%TF.GenerationSoftware,KiCad,Pcbnew,10.0.0*%
%TF.CreationDate,2026-04-02T11:02:04-07:00*%
%TF.ProjectId,SPO2_Sensor,53504f32-5f53-4656-9e73-6f722e6b6963,rev?*%
%TF.SameCoordinates,Original*%
%TF.FileFunction,Copper,L2,Bot*%
%TF.FilePolarity,Positive*%
%FSLAX46Y46*%
G04 Gerber Fmt 4.6, Leading zero omitted, Abs format (unit mm)*
G04 Created by KiCad (PCBNEW 10.0.0) date 2026-04-02 11:02:04*
%MOMM*%
%LPD*%
G01*
G04 APERTURE LIST*
%TA.AperFunction,ComponentPad*%
%ADD10R,1.524000X1.524000*%
%TD*%
%TA.AperFunction,ComponentPad*%
%ADD11C,1.524000*%
%TD*%
%TA.AperFunction,ComponentPad*%
%ADD12C,1.600000*%
%TD*%
%TA.AperFunction,ComponentPad*%
%ADD13C,2.000000*%
%TD*%
%TA.AperFunction,ComponentPad*%
%ADD14R,1.800000X1.800000*%
%TD*%
%TA.AperFunction,ComponentPad*%
%ADD15C,1.800000*%
%TD*%
%TA.AperFunction,ComponentPad*%
%ADD16R,1.600000X1.600000*%
%TD*%
%TA.AperFunction,ComponentPad*%
%ADD17O,1.600000X1.600000*%
%TD*%
%TA.AperFunction,Conductor*%
%ADD18C,0.127000*%
%TD*%
G04 APERTURE END LIST*
D10*
%TO.P,U1,1,INT_1*%
%TO.N,unconnected-(U1-INT-Pad1)*%
X148590000Y-71120000D03*
D11*
%TO.P,U1,2,SDA_2*%
%TO.N,Net-(A1-A4)*%
X148590000Y-73660000D03*
%TO.P,U1,3,SCL_3*%
%TO.N,Net-(A1-A5)*%
X148590000Y-76200000D03*
%TO.P,U1,4,GND_4*%
%TO.N,GND*%
X148590000Y-78740000D03*
%TO.P,U1,5,VCC_5*%
%TO.N,+5V*%
X148590000Y-81280000D03*
%TD*%
D12*
%TO.P,R2,1*%
%TO.N,+5V*%
X189230000Y-69850000D03*
%TO.P,R2,2*%
%TO.N,Net-(A1-D3)*%
X189230000Y-62230000D03*
%TD*%
D13*
%TO.P,SW2,1,1_1*%
%TO.N,GND*%
X200370000Y-62790000D03*
X200370000Y-69290000D03*
%TO.P,SW2,2,2_2*%
%TO.N,Net-(A1-D3)*%
X195870000Y-62790000D03*
X195870000Y-69290000D03*
%TD*%
D12*
%TO.P,C2,1*%
%TO.N,Net-(A1-D3)*%
X184150000Y-63500000D03*
%TO.P,C2,2*%
%TO.N,GND*%
X184150000Y-68500000D03*
%TD*%
D13*
%TO.P,SW3,1,1_1*%
%TO.N,GND*%
X195870000Y-80720000D03*
X195870000Y-74220000D03*
%TO.P,SW3,2,2_2*%
%TO.N,Net-(A1-D4)*%
X200370000Y-80720000D03*
X200370000Y-74220000D03*
%TD*%
D12*
%TO.P,C3,1*%
%TO.N,Net-(A1-D4)*%
X184048400Y-74066400D03*
%TO.P,C3,2*%
%TO.N,GND*%
X184048400Y-79066400D03*
%TD*%
D10*
%TO.P,U2,1,GND_1*%
%TO.N,GND*%
X143510000Y-40640000D03*
D11*
%TO.P,U2,2,VCC_2*%
%TO.N,+5V*%
X146050000Y-40640000D03*
%TO.P,U2,3,SCL_3*%
%TO.N,Net-(A1-A5)*%
X148590000Y-40640000D03*
%TO.P,U2,4,SDA_4*%
%TO.N,Net-(A1-A4)*%
X151130000Y-40640000D03*
%TD*%
D12*
%TO.P,C1,1*%
%TO.N,Net-(A1-D2)*%
X184150000Y-52110000D03*
%TO.P,C1,2*%
%TO.N,GND*%
X184150000Y-57110000D03*
%TD*%
D14*
%TO.P,D1,1,K_1*%
%TO.N,GND*%
X199390000Y-44450000D03*
D15*
%TO.P,D1,2,A_2*%
%TO.N,Net-(D1-A)*%
X196850000Y-44450000D03*
%TD*%
D12*
%TO.P,R1,1*%
%TO.N,+5V*%
X189230000Y-58420000D03*
%TO.P,R1,2*%
%TO.N,Net-(A1-D2)*%
X189230000Y-50800000D03*
%TD*%
%TO.P,R3,1*%
%TO.N,+5V*%
X189230000Y-81280000D03*
%TO.P,R3,2*%
%TO.N,Net-(A1-D4)*%
X189230000Y-73660000D03*
%TD*%
D16*
%TO.P,A1,1,D1/TX_1*%
%TO.N,unconnected-(A1-D1{slash}TX-Pad1)*%
X179070000Y-80010000D03*
D17*
%TO.P,A1,2,D0/RX_2*%
%TO.N,unconnected-(A1-D0{slash}RX-Pad2)*%
X179070000Y-77470000D03*
%TO.P,A1,3,~{RESET}_3*%
%TO.N,unconnected-(A1-~{RESET}-Pad3)*%
X179070000Y-74930000D03*
%TO.P,A1,4,GND_4*%
%TO.N,GND*%
X179070000Y-72390000D03*
%TO.P,A1,5,D2_5*%
%TO.N,Net-(A1-D2)*%
X179070000Y-69850000D03*
%TO.P,A1,6,D3_6*%
%TO.N,Net-(A1-D3)*%
X179070000Y-67310000D03*
%TO.P,A1,7,D4_7*%
%TO.N,Net-(A1-D4)*%
X179070000Y-64770000D03*
%TO.P,A1,8,D5_8*%
%TO.N,unconnected-(A1-D5-Pad8)*%
X179070000Y-62230000D03*
%TO.P,A1,9,D6_9*%
%TO.N,unconnected-(A1-D6-Pad9)*%
X179070000Y-59690000D03*
%TO.P,A1,10,D7_10*%
%TO.N,unconnected-(A1-D7-Pad10)*%
X179070000Y-57150000D03*
%TO.P,A1,11,D8_11*%
%TO.N,unconnected-(A1-D8-Pad11)*%
X179070000Y-54610000D03*
%TO.P,A1,12,D9_12*%
%TO.N,unconnected-(A1-D9-Pad12)*%
X179070000Y-52070000D03*
%TO.P,A1,13,D10_13*%
%TO.N,unconnected-(A1-D10-Pad13)*%
X179070000Y-49530000D03*
%TO.P,A1,14,D11_14*%
%TO.N,unconnected-(A1-D11-Pad14)*%
X179070000Y-46990000D03*
%TO.P,A1,15,D12_15*%
%TO.N,Net-(A1-D12)*%
X179070000Y-44450000D03*
%TO.P,A1,16,D13_16*%
%TO.N,unconnected-(A1-D13-Pad16)*%
X163830000Y-44450000D03*
%TO.P,A1,17,3V3_17*%
%TO.N,unconnected-(A1-3V3-Pad17)*%
X163830000Y-46990000D03*
%TO.P,A1,18,AREF_18*%
%TO.N,unconnected-(A1-AREF-Pad18)*%
X163830000Y-49530000D03*
%TO.P,A1,19,A0_19*%
%TO.N,unconnected-(A1-A0-Pad19)*%
X163830000Y-52070000D03*
%TO.P,A1,20,A1_20*%
%TO.N,unconnected-(A1-A1-Pad20)*%
X163830000Y-54610000D03*
%TO.P,A1,21,A2_21*%
%TO.N,unconnected-(A1-A2-Pad21)*%
X163830000Y-57150000D03*
%TO.P,A1,22,A3_22*%
%TO.N,unconnected-(A1-A3-Pad22)*%
X163830000Y-59690000D03*
%TO.P,A1,23,A4_23*%
%TO.N,Net-(A1-A4)*%
X163830000Y-62230000D03*
%TO.P,A1,24,A5_24*%
%TO.N,Net-(A1-A5)*%
X163830000Y-64770000D03*
%TO.P,A1,25,A6_25*%
%TO.N,unconnected-(A1-A6-Pad25)*%
X163830000Y-67310000D03*
%TO.P,A1,26,A7_26*%
%TO.N,unconnected-(A1-A7-Pad26)*%
X163830000Y-69850000D03*
%TO.P,A1,27,+5V_27*%
%TO.N,+5V*%
X163830000Y-72390000D03*
%TO.P,A1,28,~{RESET}_28*%
%TO.N,unconnected-(A1-~{RESET}-Pad28)*%
X163830000Y-74930000D03*
%TO.P,A1,29,GND_29*%
%TO.N,GND*%
X163830000Y-77470000D03*
%TO.P,A1,30,VIN_30*%
%TO.N,unconnected-(A1-VIN-Pad30)*%
X163830000Y-80010000D03*
%TD*%
D12*
%TO.P,R4,1*%
%TO.N,Net-(A1-D12)*%
X183920000Y-42740000D03*
%TO.P,R4,2*%
%TO.N,Net-(D1-A)*%
X191540000Y-42740000D03*
%TD*%
D13*
%TO.P,SW1,1,1_1*%
%TO.N,GND*%
X200370000Y-51360000D03*
X200370000Y-57860000D03*
%TO.P,SW1,2,2_2*%
%TO.N,Net-(A1-D2)*%
X195870000Y-51360000D03*
X195870000Y-57860000D03*
%TD*%
%TO.N,Net-(A1-A4)*%
D18*
X148590000Y-73660000D02*
X152400000Y-73660000D01*
X152400000Y-73660000D02*
X163830000Y-62230000D01*
%TO.N,Net-(A1-A5)*%
X148590000Y-76200000D02*
X152400000Y-76200000D01*
X152400000Y-76200000D02*
X163830000Y-64770000D01*
%TO.N,+5V*%
X189230000Y-69850000D02*
X191262000Y-67818000D01*
X189230000Y-81280000D02*
X191262000Y-79248000D01*
X191262000Y-67818000D02*
X191262000Y-60452000D01*
X191262000Y-60452000D02*
X189230000Y-58420000D01*
X191262000Y-79248000D02*
X191262000Y-71882000D01*
X191262000Y-71882000D02*
X189230000Y-69850000D01*
%TO.N,Net-(A1-D4)*%
X181356000Y-67056000D02*
X181356000Y-68834000D01*
X184048400Y-71526400D02*
X184048400Y-74066400D01*
X181356000Y-68834000D02*
X184048400Y-71526400D01*
X179070000Y-64770000D02*
X181356000Y-67056000D01*
%TD*%
%TA.AperFunction,Conductor*%
%TO.N,GND*%
G36*
X203442539Y-36520185D02*
G01*
X203488294Y-36572989D01*
X203499500Y-36624500D01*
X203499500Y-85375500D01*
X203479815Y-85442539D01*
X203427011Y-85488294D01*
X203375500Y-85499500D01*
X131624500Y-85499500D01*
X131557461Y-85479815D01*
X131511706Y-85427011D01*
X131500500Y-85375500D01*
X131500500Y-70310135D01*
X147327500Y-70310135D01*
X147327500Y-71929870D01*
X147327501Y-71929876D01*
X147333908Y-71989483D01*
X147384202Y-72124328D01*
X147384206Y-72124335D01*
X147470452Y-72239544D01*
X147470455Y-72239547D01*
X147585664Y-72325793D01*
X147585671Y-72325797D01*
X147720517Y-72376091D01*
X147720516Y-72376091D01*
X147727444Y-72376835D01*
X147780127Y-72382500D01*
X147818801Y-72382499D01*
X147885838Y-72402182D01*
X147931594Y-72454985D01*
X147941539Y-72524143D01*
X147912516Y-72587699D01*
X147891687Y-72606816D01*
X147767542Y-72697014D01*
X147767533Y-72697021D01*
X147627021Y-72837533D01*
X147510213Y-72998305D01*
X147419994Y-73175367D01*
X147419993Y-73175370D01*
X147358587Y-73364362D01*
X147336742Y-73502287D01*
X147327500Y-73560639D01*
X147327500Y-73759361D01*
X147336742Y-73817713D01*
X147358587Y-73955637D01*
X147419993Y-74144629D01*
X147419994Y-74144632D01*
X147494933Y-74291705D01*
X147510213Y-74321694D01*
X147627019Y-74482464D01*
X147767536Y-74622981D01*
X147928306Y-74739787D01*
X147992085Y-74772284D01*
X148084780Y-74819515D01*
X148135576Y-74867490D01*
X148152371Y-74935311D01*
X148129833Y-75001446D01*
X148084780Y-75040485D01*
X147928305Y-75120213D01*
X147767533Y-75237021D01*
X147627021Y-75377533D01*
X147510213Y-75538305D01*
X147419994Y-75715367D01*
X147419993Y-75715370D01*
X147358587Y-75904362D01*
X147327500Y-76100639D01*
X147327500Y-76299360D01*
X147358587Y-76495637D01*
X147419993Y-76684629D01*
X147419994Y-76684632D01*
X147472995Y-76788650D01*
X147510213Y-76861694D01*
X147627019Y-77022464D01*
X147767536Y-77162981D01*
X147928306Y-77279787D01*
X148085332Y-77359796D01*
X148136127Y-77407769D01*
X148152922Y-77475590D01*
X148130385Y-77541725D01*
X148085332Y-77580764D01*
X147928566Y-77660641D01*
X147891283Y-77687729D01*
X147891282Y-77687730D01*
X148562554Y-78359000D01*
X148539840Y-78359000D01*
X148442939Y-78384964D01*
X148356060Y-78435124D01*
X148285124Y-78506060D01*
X148234964Y-78592939D01*
X148209000Y-78689840D01*
X148209000Y-78712552D01*
X147537730Y-78041282D01*
X147537729Y-78041283D01*
X147510643Y-78078564D01*
X147420457Y-78255562D01*
X147359075Y-78444476D01*
X147359075Y-78444479D01*
X147328000Y-78640678D01*
X147328000Y-78839321D01*
X147359075Y-79035520D01*
X147359075Y-79035523D01*
X147420457Y-79224437D01*
X147510641Y-79401432D01*
X147537730Y-79438715D01*
X147537731Y-79438716D01*
X148209000Y-78767447D01*
X148209000Y-78790160D01*
X148234964Y-78887061D01*
X148285124Y-78973940D01*
X148356060Y-79044876D01*
X148442939Y-79095036D01*
X148539840Y-79121000D01*
X148562553Y-79121000D01*
X147891283Y-79792268D01*
X147891283Y-79792269D01*
X147928567Y-79819358D01*
X148085331Y-79899234D01*
X148136127Y-79947209D01*
X148152922Y-80015030D01*
X148130384Y-80081165D01*
X148085331Y-80120204D01*
X147928305Y-80200213D01*
X147767533Y-80317021D01*
X147627021Y-80457533D01*
X147510213Y-80618305D01*
X147419994Y-80795367D01*
X147419993Y-80795370D01*
X147358587Y-80984362D01*
X147327500Y-81180639D01*
X147327500Y-81379360D01*
X147358587Y-81575637D01*
X147419993Y-81764629D01*
X147419994Y-81764632D01*
X147470889Y-81864517D01*
X147510213Y-81941694D01*
X147627019Y-82102464D01*
X147767536Y-82242981D01*
X147928306Y-82359787D01*
X147992085Y-82392284D01*
X148105367Y-82450005D01*
X148105370Y-82450006D01*
X148199866Y-82480709D01*
X148294364Y-82511413D01*
X148490639Y-82542500D01*
X148490640Y-82542500D01*
X148689360Y-82542500D01*
X148689361Y-82542500D01*
X148885636Y-82511413D01*
X149074632Y-82450005D01*
X149251694Y-82359787D01*
X149412464Y-82242981D01*
X149552981Y-82102464D01*
X149669787Y-81941694D01*
X149760005Y-81764632D01*
X149821413Y-81575636D01*
X149852500Y-81379361D01*
X149852500Y-81180639D01*
X149821413Y-80984364D01*
X149780311Y-80857864D01*
X149760006Y-80795370D01*
X149760005Y-80795367D01*
X149707137Y-80691610D01*
X149669787Y-80618306D01*
X149552981Y-80457536D01*
X149412464Y-80317019D01*
X149251694Y-80200213D01*
X149094667Y-80120203D01*
X149043872Y-80072229D01*
X149027077Y-80004408D01*
X149049614Y-79938273D01*
X149091714Y-79900790D01*
X149281228Y-79797709D01*
X149288715Y-79792268D01*
X148617448Y-79121000D01*
X148640160Y-79121000D01*
X148737061Y-79095036D01*
X148823940Y-79044876D01*
X148894876Y-78973940D01*
X148945036Y-78887061D01*
X148971000Y-78790160D01*
X148971000Y-78767447D01*
X149642268Y-79438715D01*
X149669362Y-79401425D01*
X149759542Y-79224437D01*
X149820924Y-79035523D01*
X149820924Y-79035520D01*
X149852000Y-78839321D01*
X149852000Y-78640678D01*
X149820924Y-78444479D01*
X149820924Y-78444476D01*
X149759542Y-78255562D01*
X149669358Y-78078567D01*
X149642268Y-78041283D01*
X148971000Y-78712551D01*
X148971000Y-78689840D01*
X148945036Y-78592939D01*
X148894876Y-78506060D01*
X148823940Y-78435124D01*
X148737061Y-78384964D01*
X148640160Y-78359000D01*
X148617447Y-78359000D01*
X149288716Y-77687731D01*
X149288715Y-77687730D01*
X149251432Y-77660641D01*
X149094668Y-77580765D01*
X149043872Y-77532790D01*
X149027077Y-77464969D01*
X149049615Y-77398834D01*
X149094667Y-77359796D01*
X149251694Y-77279787D01*
X149412464Y-77162981D01*
X149552981Y-77022464D01*
X149669787Y-76861694D01*
X149685067Y-76831704D01*
X149733042Y-76780909D01*
X149795552Y-76764000D01*
X152474251Y-76764000D01*
X152474253Y-76764000D01*
X152617696Y-76725565D01*
X152746304Y-76651313D01*
X152851313Y-76546304D01*
X152851313Y-76546302D01*
X152861517Y-76536099D01*
X152861521Y-76536094D01*
X162323544Y-67074070D01*
X162384865Y-67040587D01*
X162454557Y-67045571D01*
X162510490Y-67087443D01*
X162534907Y-67152907D01*
X162533697Y-67181148D01*
X162530712Y-67200000D01*
X162529500Y-67207651D01*
X162529500Y-67412351D01*
X162561522Y-67614534D01*
X162624781Y-67809223D01*
X162717715Y-67991613D01*
X162838028Y-68157213D01*
X162982786Y-68301971D01*
X163114524Y-68397682D01*
X163148390Y-68422287D01*
X163239840Y-68468883D01*
X163241080Y-68469515D01*
X163291876Y-68517490D01*
X163308671Y-68585311D01*
X163286134Y-68651446D01*
X163241080Y-68690485D01*
X163148386Y-68737715D01*
X162982786Y-68858028D01*
X162838028Y-69002786D01*
X162717715Y-69168386D01*
X162624781Y-69350776D01*
X162561522Y-69545465D01*
X162529500Y-69747648D01*
X162529500Y-69952351D01*
X162561522Y-70154534D01*
X162624781Y-70349223D01*
X162688691Y-70474653D01*
X162708056Y-70512658D01*
X162717715Y-70531613D01*
X162838028Y-70697213D01*
X162982786Y-70841971D01*
X163137749Y-70954556D01*
X163148390Y-70962287D01*
X163239840Y-71008883D01*
X163241080Y-71009515D01*
X163291876Y-71057490D01*
X163308671Y-71125311D01*
X163286134Y-71191446D01*
X163241080Y-71230485D01*
X163148386Y-71277715D01*
X162982786Y-71398028D01*
X162838028Y-71542786D01*
X162717715Y-71708386D01*
X162624781Y-71890776D01*
X162561522Y-72085465D01*
X162529500Y-72287648D01*
X162529500Y-72492351D01*
X162561522Y-72694534D01*
X162624781Y-72889223D01*
X162717715Y-73071613D01*
X162838028Y-73237213D01*
X162982786Y-73381971D01*
X163137749Y-73494556D01*
X163148390Y-73502287D01*
X163239840Y-73548883D01*
X163241080Y-73549515D01*
X163291876Y-73597490D01*
X163308671Y-73665311D01*
X163286134Y-73731446D01*
X163241080Y-73770485D01*
X163148386Y-73817715D01*
X162982786Y-73938028D01*
X162838028Y-74082786D01*
X162717715Y-74248386D01*
X162624781Y-74430776D01*
X162561522Y-74625465D01*
X162529500Y-74827648D01*
X162529500Y-75032351D01*
X162561522Y-75234534D01*
X162624781Y-75429223D01*
X162662548Y-75503343D01*
X162717182Y-75610568D01*
X162717715Y-75611613D01*
X162838028Y-75777213D01*
X162982786Y-75921971D01*
X163137749Y-76034556D01*
X163148390Y-76042287D01*
X163220424Y-76078990D01*
X163241629Y-76089795D01*
X163292425Y-76137770D01*
X163309220Y-76205591D01*
X163286682Y-76271726D01*
X163241629Y-76310765D01*
X163148650Y-76358140D01*
X162983105Y-76478417D01*
X162983104Y-76478417D01*
X162838417Y-76623104D01*
X162838417Y-76623105D01*
X162718140Y-76788650D01*
X162625244Y-76970970D01*
X162562009Y-77165586D01*
X162553391Y-77220000D01*
X163396988Y-77220000D01*
X163364075Y-77277007D01*
X163330000Y-77404174D01*
X163330000Y-77535826D01*
X163364075Y-77662993D01*
X163396988Y-77720000D01*
X162553391Y-77720000D01*
X162562009Y-77774413D01*
X162625244Y-77969029D01*
X162718140Y-78151349D01*
X162838417Y-78316894D01*
X162838417Y-78316895D01*
X162983104Y-78461582D01*
X163148652Y-78581861D01*
X163241628Y-78629234D01*
X163292425Y-78677208D01*
X163309220Y-78745029D01*
X163286683Y-78811164D01*
X163241630Y-78850203D01*
X163148388Y-78897713D01*
X162982786Y-79018028D01*
X162838028Y-79162786D01*
X162717715Y-79328386D01*
X162624781Y-79510776D01*
X162561522Y-79705465D01*
X162529500Y-79907648D01*
X162529500Y-80112351D01*
X162561522Y-80314534D01*
X162624781Y-80509223D01*
X162717715Y-80691613D01*
X162838028Y-80857213D01*
X162982786Y-81001971D01*
X163078305Y-81071368D01*
X163148390Y-81122287D01*
X163222622Y-81160110D01*
X163330776Y-81215218D01*
X163330778Y-81215218D01*
X163330781Y-81215220D01*
X163384019Y-81232518D01*
X163525465Y-81278477D01*
X163626557Y-81294488D01*
X163727648Y-81310500D01*
X163727649Y-81310500D01*
X163932351Y-81310500D01*
X163932352Y-81310500D01*
X164134534Y-81278477D01*
X164329219Y-81215220D01*
X164511610Y-81122287D01*
X164607901Y-81052328D01*
X164677213Y-81001971D01*
X164677215Y-81001968D01*
X164677219Y-81001966D01*
X164821966Y-80857219D01*
X164821968Y-80857215D01*
X164821971Y-80857213D01*
X164877505Y-80780776D01*
X164942287Y-80691610D01*
X165035220Y-80509219D01*
X165098477Y-80314534D01*
X165130500Y-80112352D01*
X165130500Y-79907648D01*
X165112234Y-79792321D01*
X165098477Y-79705465D01*
X165062357Y-79594300D01*
X165035220Y-79510781D01*
X165035218Y-79510778D01*
X165035218Y-79510776D01*
X165001503Y-79444607D01*
X164942287Y-79328390D01*
X164890018Y-79256447D01*
X164821971Y-79162786D01*
X164677213Y-79018028D01*
X164511611Y-78897713D01*
X164418369Y-78850203D01*
X164367574Y-78802229D01*
X164350779Y-78734407D01*
X164373317Y-78668273D01*
X164418371Y-78629234D01*
X164511347Y-78581861D01*
X164676894Y-78461582D01*
X164676895Y-78461582D01*
X164821582Y-78316895D01*
X164821582Y-78316894D01*
X164941859Y-78151349D01*
X165034755Y-77969029D01*
X165097990Y-77774413D01*
X165106609Y-77720000D01*
X164263012Y-77720000D01*
X164295925Y-77662993D01*
X164330000Y-77535826D01*
X164330000Y-77404174D01*
X164295925Y-77277007D01*
X164263012Y-77220000D01*
X165106609Y-77220000D01*
X165097990Y-77165586D01*
X165034755Y-76970970D01*
X164941859Y-76788650D01*
X164821582Y-76623105D01*
X164821582Y-76623104D01*
X164676895Y-76478417D01*
X164511349Y-76358140D01*
X164418370Y-76310765D01*
X164367574Y-76262790D01*
X164350779Y-76194969D01*
X164373316Y-76128835D01*
X164418370Y-76089795D01*
X164418920Y-76089515D01*
X164511610Y-76042287D01*
X164532770Y-76026913D01*
X164677213Y-75921971D01*
X164677215Y-75921968D01*
X164677219Y-75921966D01*
X164821966Y-75777219D01*
X164821968Y-75777215D01*
X164821971Y-75777213D01*
X164890372Y-75683065D01*
X164942287Y-75611610D01*
X165035220Y-75429219D01*
X165098477Y-75234534D01*
X165130500Y-75032352D01*
X165130500Y-74827648D01*
X165098477Y-74625466D01*
X165080899Y-74571368D01*
X165035218Y-74430776D01*
X165001503Y-74364607D01*
X164942287Y-74248390D01*
X164921660Y-74219999D01*
X164821971Y-74082786D01*
X164677213Y-73938028D01*
X164511614Y-73817715D01*
X164437378Y-73779890D01*
X164418917Y-73770483D01*
X164368123Y-73722511D01*
X164351328Y-73654690D01*
X164373865Y-73588555D01*
X164418917Y-73549516D01*
X164511610Y-73502287D01*
X164605834Y-73433830D01*
X164677213Y-73381971D01*
X164677215Y-73381968D01*
X164677219Y-73381966D01*
X164821966Y-73237219D01*
X164821968Y-73237215D01*
X164821971Y-73237213D01*
X164877505Y-73160776D01*
X164942287Y-73071610D01*
X165035220Y-72889219D01*
X165098477Y-72694534D01*
X165130500Y-72492352D01*
X165130500Y-72287648D01*
X165116144Y-72197007D01*
X165098477Y-72085465D01*
X165035218Y-71890776D01*
X164994762Y-71811378D01*
X164942287Y-71708390D01*
X164910255Y-71664301D01*
X164821971Y-71542786D01*
X164677213Y-71398028D01*
X164511614Y-71277715D01*
X164505006Y-71274348D01*
X164418917Y-71230483D01*
X164368123Y-71182511D01*
X164351328Y-71114690D01*
X164373865Y-71048555D01*
X164418917Y-71009516D01*
X164511610Y-70962287D01*
X164532770Y-70946913D01*
X164677213Y-70841971D01*
X164677215Y-70841968D01*
X164677219Y-70841966D01*
X164821966Y-70697219D01*
X164821968Y-70697215D01*
X164821971Y-70697213D01*
X164912278Y-70572914D01*
X164942287Y-70531610D01*
X165035220Y-70349219D01*
X165098477Y-70154534D01*
X165130500Y-69952352D01*
X165130500Y-69747648D01*
X165113667Y-69641368D01*
X165098477Y-69545465D01*
X165053828Y-69408052D01*
X165035220Y-69350781D01*
X165035218Y-69350778D01*
X165035218Y-69350776D01*
X164971601Y-69225922D01*
X164942287Y-69168390D01*
X164934556Y-69157749D01*
X164821971Y-69002786D01*
X164677213Y-68858028D01*
X164511614Y-68737715D01*
X164465086Y-68714008D01*
X164418917Y-68690483D01*
X164368123Y-68642511D01*
X164351328Y-68574690D01*
X164373865Y-68508555D01*
X164418917Y-68469516D01*
X164511610Y-68422287D01*
X164545476Y-68397682D01*
X164677213Y-68301971D01*
X164677215Y-68301968D01*
X164677219Y-68301966D01*
X164821966Y-68157219D01*
X164821968Y-68157215D01*
X164821971Y-68157213D01*
X164910255Y-68035698D01*
X164942287Y-67991610D01*
X165035220Y-67809219D01*
X165098477Y-67614534D01*
X165130500Y-67412352D01*
X165130500Y-67207648D01*
X165111461Y-67087443D01*
X165098477Y-67005465D01*
X165069127Y-66915137D01*
X165035220Y-66810781D01*
X165035218Y-66810778D01*
X165035218Y-66810776D01*
X164983715Y-66709697D01*
X164942287Y-66628390D01*
X164925066Y-66604687D01*
X164821971Y-66462786D01*
X164677213Y-66318028D01*
X164511614Y-66197715D01*
X164505006Y-66194348D01*
X164418917Y-66150483D01*
X164368123Y-66102511D01*
X164351328Y-66034690D01*
X164373865Y-65968555D01*
X164418917Y-65929516D01*
X164511610Y-65882287D01*
X164532770Y-65866913D01*
X164677213Y-65761971D01*
X164677215Y-65761968D01*
X164677219Y-65761966D01*
X164821966Y-65617219D01*
X164821968Y-65617215D01*
X164821971Y-65617213D01*
X164874732Y-65544590D01*
X164942287Y-65451610D01*
X165035220Y-65269219D01*
X165098477Y-65074534D01*
X165130500Y-64872352D01*
X165130500Y-64667648D01*
X165098477Y-64465466D01*
X165035220Y-64270781D01*
X165035218Y-64270778D01*
X165035218Y-64270776D01*
X164995801Y-64193417D01*
X164942287Y-64088390D01*
X164931043Y-64072914D01*
X164821971Y-63922786D01*
X164677213Y-63778028D01*
X164511614Y-63657715D01*
X164505006Y-63654348D01*
X164418917Y-63610483D01*
X164368123Y-63562511D01*
X164351328Y-63494690D01*
X164373865Y-63428555D01*
X164418917Y-63389516D01*
X164511610Y-63342287D01*
X164666010Y-63230110D01*
X164677213Y-63221971D01*
X164677215Y-63221968D01*
X164677219Y-63221966D01*
X164821966Y-63077219D01*
X164821968Y-63077215D01*
X164821971Y-63077213D01*
X164877505Y-63000776D01*
X164942287Y-62911610D01*
X165035220Y-62729219D01*
X165098477Y-62534534D01*
X165130500Y-62332352D01*
X165130500Y-62127648D01*
X165098477Y-61925466D01*
X165096991Y-61920894D01*
X165056069Y-61794948D01*
X165035220Y-61730781D01*
X165035218Y-61730778D01*
X165035218Y-61730776D01*
X164991758Y-61645483D01*
X164942287Y-61548390D01*
X164912277Y-61507084D01*
X164821971Y-61382786D01*
X164677213Y-61238028D01*
X164511614Y-61117715D01*
X164505006Y-61114348D01*
X164418917Y-61070483D01*
X164368123Y-61022511D01*
X164351328Y-60954690D01*
X164373865Y-60888555D01*
X164418917Y-60849516D01*
X164511610Y-60802287D01*
X164637780Y-60710620D01*
X164677213Y-60681971D01*
X164677215Y-60681968D01*
X164677219Y-60681966D01*
X164821966Y-60537219D01*
X164821968Y-60537215D01*
X164821971Y-60537213D01*
X164874732Y-60464590D01*
X164942287Y-60371610D01*
X165035220Y-60189219D01*
X165098477Y-59994534D01*
X165130500Y-59792352D01*
X165130500Y-59587648D01*
X165098477Y-59385466D01*
X165035220Y-59190781D01*
X165035218Y-59190778D01*
X165035218Y-59190776D01*
X165001503Y-59124607D01*
X164942287Y-59008390D01*
X164898207Y-58947718D01*
X164821971Y-58842786D01*
X164677213Y-58698028D01*
X164511614Y-58577715D01*
X164505006Y-58574348D01*
X164418917Y-58530483D01*
X164368123Y-58482511D01*
X164351328Y-58414690D01*
X164373865Y-58348555D01*
X164418917Y-58309516D01*
X164511610Y-58262287D01*
X164581861Y-58211247D01*
X164677213Y-58141971D01*
X164677215Y-58141968D01*
X164677219Y-58141966D01*
X164821966Y-57997219D01*
X164821968Y-57997215D01*
X164821971Y-57997213D01*
X164877505Y-57920776D01*
X164942287Y-57831610D01*
X165035220Y-57649219D01*
X165098477Y-57454534D01*
X165130500Y-57252352D01*
X165130500Y-57047648D01*
X165098477Y-56845466D01*
X165035220Y-56650781D01*
X165035218Y-56650778D01*
X165035218Y-56650776D01*
X164997452Y-56576657D01*
X164942287Y-56468390D01*
X164934556Y-56457749D01*
X164821971Y-56302786D01*
X164677213Y-56158028D01*
X164511614Y-56037715D01*
X164433957Y-55998147D01*
X164418917Y-55990483D01*
X164368123Y-55942511D01*
X164351328Y-55874690D01*
X164373865Y-55808555D01*
X164418917Y-55769516D01*
X164511610Y-55722287D01*
X164532770Y-55706913D01*
X164677213Y-55601971D01*
X164677215Y-55601968D01*
X164677219Y-55601966D01*
X164821966Y-55457219D01*
X164821968Y-55457215D01*
X164821971Y-55457213D01*
X164874732Y-55384590D01*
X164942287Y-55291610D01*
X165035220Y-55109219D01*
X165098477Y-54914534D01*
X165130500Y-54712352D01*
X165130500Y-54507648D01*
X165098477Y-54305466D01*
X165035220Y-54110781D01*
X165035218Y-54110778D01*
X165035218Y-54110776D01*
X165001503Y-54044607D01*
X164942287Y-53928390D01*
X164934556Y-53917749D01*
X164821971Y-53762786D01*
X164677213Y-53618028D01*
X164511614Y-53497715D01*
X164505006Y-53494348D01*
X164418917Y-53450483D01*
X164368123Y-53402511D01*
X164351328Y-53334690D01*
X164373865Y-53268555D01*
X164418917Y-53229516D01*
X164511610Y-53182287D01*
X164532770Y-53166913D01*
X164677213Y-53061971D01*
X164677215Y-53061968D01*
X164677219Y-53061966D01*
X164821966Y-52917219D01*
X164821968Y-52917215D01*
X164821971Y-52917213D01*
X164913223Y-52791613D01*
X164942287Y-52751610D01*
X165035220Y-52569219D01*
X165098477Y-52374534D01*
X165130500Y-52172352D01*
X165130500Y-51967648D01*
X165115433Y-51872518D01*
X165098477Y-51765465D01*
X165035218Y-51570776D01*
X165001503Y-51504607D01*
X164942287Y-51388390D01*
X164921660Y-51359999D01*
X164821971Y-51222786D01*
X164677213Y-51078028D01*
X164511614Y-50957715D01*
X164437378Y-50919890D01*
X164418917Y-50910483D01*
X164368123Y-50862511D01*
X164351328Y-50794690D01*
X164373865Y-50728555D01*
X164418917Y-50689516D01*
X164511610Y-50642287D01*
X164605834Y-50573830D01*
X164677213Y-50521971D01*
X164677215Y-50521968D01*
X164677219Y-50521966D01*
X164821966Y-50377219D01*
X164821968Y-50377215D01*
X164821971Y-50377213D01*
X164877505Y-50300776D01*
X164942287Y-50211610D01*
X165035220Y-50029219D01*
X165098477Y-49834534D01*
X165130500Y-49632352D01*
X165130500Y-49427648D01*
X165098477Y-49225466D01*
X165035220Y-49030781D01*
X165035218Y-49030778D01*
X165035218Y-49030776D01*
X165001503Y-48964607D01*
X164942287Y-48848390D01*
X164934556Y-48837749D01*
X164821971Y-48682786D01*
X164677213Y-48538028D01*
X164511614Y-48417715D01*
X164505006Y-48414348D01*
X164418917Y-48370483D01*
X164368123Y-48322511D01*
X164351328Y-48254690D01*
X164373865Y-48188555D01*
X164418917Y-48149516D01*
X164511610Y-48102287D01*
X164532770Y-48086913D01*
X164677213Y-47981971D01*
X164677215Y-47981968D01*
X164677219Y-47981966D01*
X164821966Y-47837219D01*
X164821968Y-47837215D01*
X164821971Y-47837213D01*
X164874732Y-47764590D01*
X164942287Y-47671610D01*
X165035220Y-47489219D01*
X165098477Y-47294534D01*
X165130500Y-47092352D01*
X165130500Y-46887648D01*
X165098477Y-46685466D01*
X165035220Y-46490781D01*
X165035218Y-46490778D01*
X165035218Y-46490776D01*
X165001503Y-46424607D01*
X164942287Y-46308390D01*
X164934556Y-46297749D01*
X164821971Y-46142786D01*
X164677213Y-45998028D01*
X164511614Y-45877715D01*
X164505006Y-45874348D01*
X164418917Y-45830483D01*
X164368123Y-45782511D01*
X164351328Y-45714690D01*
X164373865Y-45648555D01*
X164418917Y-45609516D01*
X164511610Y-45562287D01*
X164532770Y-45546913D01*
X164677213Y-45441971D01*
X164677215Y-45441968D01*
X164677219Y-45441966D01*
X164821966Y-45297219D01*
X164821968Y-45297215D01*
X164821971Y-45297213D01*
X164874732Y-45224590D01*
X164942287Y-45131610D01*
X165035220Y-44949219D01*
X165098477Y-44754534D01*
X165130500Y-44552352D01*
X165130500Y-44347648D01*
X177769500Y-44347648D01*
X177769500Y-44552351D01*
X177801522Y-44754534D01*
X177864781Y-44949223D01*
X177957715Y-45131613D01*
X178078028Y-45297213D01*
X178222786Y-45441971D01*
X178377749Y-45554556D01*
X178388390Y-45562287D01*
X178479840Y-45608883D01*
X178481080Y-45609515D01*
X178531876Y-45657490D01*
X178548671Y-45725311D01*
X178526134Y-45791446D01*
X178481080Y-45830485D01*
X178388386Y-45877715D01*
X178222786Y-45998028D01*
X178078028Y-46142786D01*
X177957715Y-46308386D01*
X177864781Y-46490776D01*
X177801522Y-46685465D01*
X177769500Y-46887648D01*
X177769500Y-47092351D01*
X177801522Y-47294534D01*
X177864781Y-47489223D01*
X177957715Y-47671613D01*
X178078028Y-47837213D01*
X178222786Y-47981971D01*
X178377749Y-48094556D01*
X178388390Y-48102287D01*
X178479840Y-48148883D01*
X178481080Y-48149515D01*
X178531876Y-48197490D01*
X178548671Y-48265311D01*
X178526134Y-48331446D01*
X178481080Y-48370485D01*
X178388386Y-48417715D01*
X178222786Y-48538028D01*
X178078028Y-48682786D01*
X177957715Y-48848386D01*
X177864781Y-49030776D01*
X177801522Y-49225465D01*
X177769500Y-49427648D01*
X177769500Y-49632351D01*
X177801522Y-49834534D01*
X177864781Y-50029223D01*
X177957715Y-50211613D01*
X178078028Y-50377213D01*
X178222786Y-50521971D01*
X178377749Y-50634556D01*
X178388390Y-50642287D01*
X178479840Y-50688883D01*
X178481080Y-50689515D01*
X178531876Y-50737490D01*
X178548671Y-50805311D01*
X178526134Y-50871446D01*
X178481080Y-50910485D01*
X178388386Y-50957715D01*
X178222786Y-51078028D01*
X178078028Y-51222786D01*
X177957715Y-51388386D01*
X177864781Y-51570776D01*
X177801522Y-51765465D01*
X177769500Y-51967648D01*
X177769500Y-52172351D01*
X177801522Y-52374534D01*
X177864781Y-52569223D01*
X177902548Y-52643343D01*
X177957182Y-52750568D01*
X177957715Y-52751613D01*
X178078028Y-52917213D01*
X178222786Y-53061971D01*
X178377749Y-53174556D01*
X178388390Y-53182287D01*
X178479840Y-53228883D01*
X178481080Y-53229515D01*
X178531876Y-53277490D01*
X178548671Y-53345311D01*
X178526134Y-53411446D01*
X178481080Y-53450485D01*
X178388386Y-53497715D01*
X178222786Y-53618028D01*
X178078028Y-53762786D01*
X177957715Y-53928386D01*
X177864781Y-54110776D01*
X177801522Y-54305465D01*
X177769500Y-54507648D01*
X177769500Y-54712351D01*
X177801522Y-54914534D01*
X177864781Y-55109223D01*
X177957715Y-55291613D01*
X178078028Y-55457213D01*
X178222786Y-55601971D01*
X178377749Y-55714556D01*
X178388390Y-55722287D01*
X178479840Y-55768883D01*
X178481080Y-55769515D01*
X178531876Y-55817490D01*
X178548671Y-55885311D01*
X178526134Y-55951446D01*
X178481080Y-55990485D01*
X178388386Y-56037715D01*
X178222786Y-56158028D01*
X178078028Y-56302786D01*
X177957715Y-56468386D01*
X177864781Y-56650776D01*
X177801522Y-56845465D01*
X177769500Y-57047648D01*
X177769500Y-57252351D01*
X177801522Y-57454534D01*
X177864781Y-57649223D01*
X177910213Y-57738386D01*
X177937199Y-57791350D01*
X177957715Y-57831613D01*
X178078028Y-57997213D01*
X178222786Y-58141971D01*
X178332745Y-58221859D01*
X178388390Y-58262287D01*
X178462622Y-58300110D01*
X178481080Y-58309515D01*
X178531876Y-58357490D01*
X178548671Y-58425311D01*
X178526134Y-58491446D01*
X178481080Y-58530485D01*
X178388386Y-58577715D01*
X178222786Y-58698028D01*
X178078028Y-58842786D01*
X177957715Y-59008386D01*
X177864781Y-59190776D01*
X177801522Y-59385465D01*
X177769500Y-59587648D01*
X177769500Y-59792351D01*
X177801522Y-59994534D01*
X177864781Y-60189223D01*
X177928691Y-60314653D01*
X177957709Y-60371603D01*
X177957715Y-60371613D01*
X178078028Y-60537213D01*
X178222786Y-60681971D01*
X178377749Y-60794556D01*
X178388390Y-60802287D01*
X178479840Y-60848883D01*
X178481080Y-60849515D01*
X178531876Y-60897490D01*
X178548671Y-60965311D01*
X178526134Y-61031446D01*
X178481080Y-61070485D01*
X178388386Y-61117715D01*
X178222786Y-61238028D01*
X178078028Y-61382786D01*
X177957715Y-61548386D01*
X177864781Y-61730776D01*
X177801522Y-61925465D01*
X177769500Y-62127648D01*
X177769500Y-62332351D01*
X177801522Y-62534534D01*
X177864781Y-62729223D01*
X177910213Y-62818386D01*
X177955920Y-62908092D01*
X177957715Y-62911613D01*
X178078028Y-63077213D01*
X178222786Y-63221971D01*
X178315500Y-63289330D01*
X178388390Y-63342287D01*
X178479840Y-63388883D01*
X178481080Y-63389515D01*
X178531876Y-63437490D01*
X178548671Y-63505311D01*
X178526134Y-63571446D01*
X178481080Y-63610485D01*
X178388386Y-63657715D01*
X178222786Y-63778028D01*
X178078028Y-63922786D01*
X177957715Y-64088386D01*
X177864781Y-64270776D01*
X177801522Y-64465465D01*
X177769500Y-64667648D01*
X177769500Y-64872351D01*
X177801522Y-65074534D01*
X177864781Y-65269223D01*
X177957715Y-65451613D01*
X178078028Y-65617213D01*
X178222786Y-65761971D01*
X178377749Y-65874556D01*
X178388390Y-65882287D01*
X178479840Y-65928883D01*
X178481080Y-65929515D01*
X178531876Y-65977490D01*
X178548671Y-66045311D01*
X178526134Y-66111446D01*
X178481080Y-66150485D01*
X178388386Y-66197715D01*
X178222786Y-66318028D01*
X178078028Y-66462786D01*
X177957715Y-66628386D01*
X177864781Y-66810776D01*
X177801522Y-67005465D01*
X177769500Y-67207648D01*
X177769500Y-67412351D01*
X177801522Y-67614534D01*
X177864781Y-67809223D01*
X177957715Y-67991613D01*
X178078028Y-68157213D01*
X178222786Y-68301971D01*
X178354524Y-68397682D01*
X178388390Y-68422287D01*
X178479840Y-68468883D01*
X178481080Y-68469515D01*
X178531876Y-68517490D01*
X178548671Y-68585311D01*
X178526134Y-68651446D01*
X178481080Y-68690485D01*
X178388386Y-68737715D01*
X178222786Y-68858028D01*
X178078028Y-69002786D01*
X177957715Y-69168386D01*
X177864781Y-69350776D01*
X177801522Y-69545465D01*
X177769500Y-69747648D01*
X177769500Y-69952351D01*
X177801522Y-70154534D01*
X177864781Y-70349223D01*
X177928691Y-70474653D01*
X177948056Y-70512658D01*
X177957715Y-70531613D01*
X178078028Y-70697213D01*
X178222786Y-70841971D01*
X178377749Y-70954556D01*
X178388390Y-70962287D01*
X178460424Y-70998990D01*
X178481629Y-71009795D01*
X178532425Y-71057770D01*
X178549220Y-71125591D01*
X178526682Y-71191726D01*
X178481629Y-71230765D01*
X178388650Y-71278140D01*
X178223105Y-71398417D01*
X178223104Y-71398417D01*
X178078417Y-71543104D01*
X178078417Y-71543105D01*
X177958140Y-71708650D01*
X177865244Y-71890970D01*
X177802009Y-72085586D01*
X177793391Y-72140000D01*
X178636988Y-72140000D01*
X178604075Y-72197007D01*
X178570000Y-72324174D01*
X178570000Y-72455826D01*
X178604075Y-72582993D01*
X178636988Y-72640000D01*
X177793391Y-72640000D01*
X177802009Y-72694413D01*
X177865244Y-72889029D01*
X177958140Y-73071349D01*
X178078417Y-73236894D01*
X178078417Y-73236895D01*
X178223104Y-73381582D01*
X178388652Y-73501861D01*
X178481628Y-73549234D01*
X178532425Y-73597208D01*
X178549220Y-73665029D01*
X178526683Y-73731164D01*
X178481630Y-73770203D01*
X178388388Y-73817713D01*
X178222786Y-73938028D01*
X178078028Y-74082786D01*
X177957715Y-74248386D01*
X177864781Y-74430776D01*
X177801522Y-74625465D01*
X177769500Y-74827648D01*
X177769500Y-75032351D01*
X177801522Y-75234534D01*
X177864781Y-75429223D01*
X177902548Y-75503343D01*
X177957182Y-75610568D01*
X177957715Y-75611613D01*
X178078028Y-75777213D01*
X178222786Y-75921971D01*
X178377749Y-76034556D01*
X178388390Y-76042287D01*
X178479840Y-76088883D01*
X178481080Y-76089515D01*
X178531876Y-76137490D01*
X178548671Y-76205311D01*
X178526134Y-76271446D01*
X178481080Y-76310485D01*
X178388386Y-76357715D01*
X178222786Y-76478028D01*
X178078028Y-76622786D01*
X177957715Y-76788386D01*
X177864781Y-76970776D01*
X177801522Y-77165465D01*
X177769500Y-77367648D01*
X177769500Y-77572351D01*
X177801522Y-77774534D01*
X177864781Y-77969223D01*
X177957715Y-78151613D01*
X178078028Y-78317213D01*
X178222784Y-78461969D01*
X178259068Y-78488330D01*
X178301735Y-78543659D01*
X178307715Y-78613273D01*
X178275109Y-78675068D01*
X178214271Y-78709426D01*
X178199440Y-78711938D01*
X178162519Y-78715907D01*
X178027671Y-78766202D01*
X178027664Y-78766206D01*
X177912455Y-78852452D01*
X177912452Y-78852455D01*
X177826206Y-78967664D01*
X177826202Y-78967671D01*
X177775908Y-79102517D01*
X177769501Y-79162116D01*
X177769501Y-79162123D01*
X177769500Y-79162135D01*
X177769500Y-80857870D01*
X177769501Y-80857876D01*
X177775908Y-80917483D01*
X177826202Y-81052328D01*
X177826206Y-81052335D01*
X177912452Y-81167544D01*
X177912455Y-81167547D01*
X178027664Y-81253793D01*
X178027671Y-81253797D01*
X178162517Y-81304091D01*
X178162516Y-81304091D01*
X178169444Y-81304835D01*
X178222127Y-81310500D01*
X179917872Y-81310499D01*
X179977483Y-81304091D01*
X180112331Y-81253796D01*
X180227546Y-81167546D01*
X180313796Y-81052331D01*
X180364091Y-80917483D01*
X180370500Y-80857873D01*
X180370499Y-80004408D01*
X180370499Y-79162129D01*
X180370498Y-79162123D01*
X180370497Y-79162116D01*
X180364091Y-79102517D01*
X180350620Y-79066399D01*
X180326806Y-79002549D01*
X180313797Y-78967671D01*
X180313793Y-78967664D01*
X180311111Y-78964082D01*
X182748400Y-78964082D01*
X182748400Y-79168717D01*
X182780409Y-79370817D01*
X182843644Y-79565431D01*
X182936541Y-79747750D01*
X182936547Y-79747759D01*
X182968923Y-79792321D01*
X182968924Y-79792322D01*
X183648400Y-79112846D01*
X183648400Y-79119061D01*
X183675659Y-79220794D01*
X183728320Y-79312006D01*
X183802794Y-79386480D01*
X183894006Y-79439141D01*
X183995739Y-79466400D01*
X184001953Y-79466400D01*
X183322476Y-80145874D01*
X183367050Y-80178259D01*
X183549368Y-80271155D01*
X183743982Y-80334390D01*
X183946083Y-80366400D01*
X184150717Y-80366400D01*
X184352817Y-80334390D01*
X184547431Y-80271155D01*
X184729749Y-80178259D01*
X184774321Y-80145874D01*
X184094847Y-79466400D01*
X184101061Y-79466400D01*
X184202794Y-79439141D01*
X184294006Y-79386480D01*
X184368480Y-79312006D01*
X184421141Y-79220794D01*
X184448400Y-79119061D01*
X184448400Y-79112848D01*
X185127874Y-79792322D01*
X185127874Y-79792321D01*
X185160259Y-79747749D01*
X185253155Y-79565431D01*
X185316390Y-79370817D01*
X185348400Y-79168717D01*
X185348400Y-78964082D01*
X185316390Y-78761982D01*
X185253155Y-78567368D01*
X185160259Y-78385050D01*
X185127874Y-78340477D01*
X185127874Y-78340476D01*
X184448400Y-79019951D01*
X184448400Y-79013739D01*
X184421141Y-78912006D01*
X184368480Y-78820794D01*
X184294006Y-78746320D01*
X184202794Y-78693659D01*
X184101061Y-78666400D01*
X184094846Y-78666400D01*
X184774322Y-77986924D01*
X184774321Y-77986923D01*
X184729759Y-77954547D01*
X184729750Y-77954541D01*
X184547431Y-77861644D01*
X184352817Y-77798409D01*
X184150717Y-77766400D01*
X183946083Y-77766400D01*
X183743982Y-77798409D01*
X183549368Y-77861644D01*
X183367044Y-77954543D01*
X183322477Y-77986923D01*
X183322477Y-77986924D01*
X184001954Y-78666400D01*
X183995739Y-78666400D01*
X183894006Y-78693659D01*
X183802794Y-78746320D01*
X183728320Y-78820794D01*
X183675659Y-78912006D01*
X183648400Y-79013739D01*
X183648400Y-79019953D01*
X182968924Y-78340477D01*
X182968923Y-78340477D01*
X182936543Y-78385044D01*
X182843644Y-78567368D01*
X182780409Y-78761982D01*
X182748400Y-78964082D01*
X180311111Y-78964082D01*
X180227547Y-78852455D01*
X180227544Y-78852452D01*
X180112335Y-78766206D01*
X180112328Y-78766202D01*
X179977482Y-78715908D01*
X179977483Y-78715908D01*
X179940560Y-78711939D01*
X179876009Y-78685201D01*
X179836160Y-78627809D01*
X179833667Y-78557984D01*
X179869319Y-78497895D01*
X179880930Y-78488331D01*
X179917219Y-78461966D01*
X180061966Y-78317219D01*
X180061968Y-78317215D01*
X180061971Y-78317213D01*
X180114732Y-78244590D01*
X180182287Y-78151610D01*
X180275220Y-77969219D01*
X180338477Y-77774534D01*
X180370500Y-77572352D01*
X180370500Y-77367648D01*
X180356144Y-77277007D01*
X180338477Y-77165465D01*
X180275218Y-76970776D01*
X180182419Y-76788650D01*
X180182287Y-76788390D01*
X180164566Y-76763999D01*
X180061971Y-76622786D01*
X179917213Y-76478028D01*
X179751614Y-76357715D01*
X179745006Y-76354348D01*
X179658917Y-76310483D01*
X179608123Y-76262511D01*
X179591328Y-76194690D01*
X179613865Y-76128555D01*
X179658917Y-76089516D01*
X179751610Y-76042287D01*
X179772770Y-76026913D01*
X179917213Y-75921971D01*
X179917215Y-75921968D01*
X179917219Y-75921966D01*
X180061966Y-75777219D01*
X180061968Y-75777215D01*
X180061971Y-75777213D01*
X180130372Y-75683065D01*
X180182287Y-75611610D01*
X180275220Y-75429219D01*
X180338477Y-75234534D01*
X180370500Y-75032352D01*
X180370500Y-74827648D01*
X180338477Y-74625466D01*
X180320899Y-74571368D01*
X180275218Y-74430776D01*
X180241503Y-74364607D01*
X180182287Y-74248390D01*
X180161660Y-74219999D01*
X180061971Y-74082786D01*
X179917213Y-73938028D01*
X179751611Y-73817713D01*
X179658369Y-73770203D01*
X179607574Y-73722229D01*
X179590779Y-73654407D01*
X179613317Y-73588273D01*
X179658371Y-73549234D01*
X179751347Y-73501861D01*
X179916894Y-73381582D01*
X179916895Y-73381582D01*
X180061582Y-73236895D01*
X180061582Y-73236894D01*
X180181859Y-73071349D01*
X180274755Y-72889029D01*
X180337990Y-72694413D01*
X180346609Y-72640000D01*
X179503012Y-72640000D01*
X179535925Y-72582993D01*
X179570000Y-72455826D01*
X179570000Y-72324174D01*
X179535925Y-72197007D01*
X179503012Y-72140000D01*
X180346609Y-72140000D01*
X180337990Y-72085586D01*
X180274755Y-71890970D01*
X180181859Y-71708650D01*
X180061582Y-71543105D01*
X180061582Y-71543104D01*
X179916895Y-71398417D01*
X179751349Y-71278140D01*
X179658370Y-71230765D01*
X179607574Y-71182790D01*
X179590779Y-71114969D01*
X179613316Y-71048835D01*
X179658370Y-71009795D01*
X179658920Y-71009515D01*
X179751610Y-70962287D01*
X179772770Y-70946913D01*
X179917213Y-70841971D01*
X179917215Y-70841968D01*
X179917219Y-70841966D01*
X180061966Y-70697219D01*
X180061968Y-70697215D01*
X180061971Y-70697213D01*
X180152278Y-70572914D01*
X180182287Y-70531610D01*
X180275220Y-70349219D01*
X180338477Y-70154534D01*
X180370500Y-69952352D01*
X180370500Y-69747648D01*
X180353667Y-69641368D01*
X180338477Y-69545465D01*
X180293828Y-69408052D01*
X180275220Y-69350781D01*
X180275218Y-69350778D01*
X180275218Y-69350776D01*
X180211601Y-69225922D01*
X180182287Y-69168390D01*
X180174556Y-69157749D01*
X180061971Y-69002786D01*
X179917213Y-68858028D01*
X179751614Y-68737715D01*
X179705086Y-68714008D01*
X179658917Y-68690483D01*
X179608123Y-68642511D01*
X179591328Y-68574690D01*
X179613865Y-68508555D01*
X179658917Y-68469516D01*
X179751610Y-68422287D01*
X179785476Y-68397682D01*
X179917213Y-68301971D01*
X179917215Y-68301968D01*
X179917219Y-68301966D01*
X180061966Y-68157219D01*
X180061968Y-68157215D01*
X180061971Y-68157213D01*
X180150255Y-68035698D01*
X180182287Y-67991610D01*
X180275220Y-67809219D01*
X180338477Y-67614534D01*
X180370500Y-67412352D01*
X180370500Y-67207648D01*
X180366303Y-67181151D01*
X180375257Y-67111859D01*
X180420253Y-67058407D01*
X180487004Y-67037767D01*
X180554318Y-67056491D01*
X180576457Y-67074073D01*
X180755681Y-67253297D01*
X180789166Y-67314620D01*
X180792000Y-67340978D01*
X180792000Y-68759747D01*
X180792000Y-68908253D01*
X180830435Y-69051696D01*
X180904687Y-69180304D01*
X180904689Y-69180306D01*
X181016761Y-69292378D01*
X181016767Y-69292383D01*
X183448081Y-71723697D01*
X183481566Y-71785020D01*
X183484400Y-71811378D01*
X183484400Y-72818199D01*
X183464715Y-72885238D01*
X183416697Y-72928683D01*
X183366786Y-72954114D01*
X183201186Y-73074428D01*
X183056428Y-73219186D01*
X182936115Y-73384786D01*
X182843181Y-73567176D01*
X182779922Y-73761865D01*
X182747900Y-73964048D01*
X182747900Y-74168751D01*
X182779922Y-74370934D01*
X182843181Y-74565623D01*
X182907091Y-74691053D01*
X182931923Y-74739787D01*
X182936115Y-74748013D01*
X183056428Y-74913613D01*
X183201186Y-75058371D01*
X183356149Y-75170956D01*
X183366790Y-75178687D01*
X183476396Y-75234534D01*
X183549176Y-75271618D01*
X183549178Y-75271618D01*
X183549181Y-75271620D01*
X183653537Y-75305527D01*
X183743865Y-75334877D01*
X183844957Y-75350888D01*
X183946048Y-75366900D01*
X183946049Y-75366900D01*
X184150751Y-75366900D01*
X184150752Y-75366900D01*
X184352934Y-75334877D01*
X184547619Y-75271620D01*
X184730010Y-75178687D01*
X184853310Y-75089105D01*
X184895613Y-75058371D01*
X184895615Y-75058368D01*
X184895619Y-75058366D01*
X185040366Y-74913619D01*
X185040368Y-74913615D01*
X185040371Y-74913613D01*
X185125964Y-74795802D01*
X185160687Y-74748010D01*
X185253620Y-74565619D01*
X185316877Y-74370934D01*
X185348900Y-74168752D01*
X185348900Y-73964048D01*
X185325723Y-73817715D01*
X185316877Y-73761865D01*
X185253618Y-73567176D01*
X185185540Y-73433567D01*
X185160687Y-73384790D01*
X185139381Y-73355465D01*
X185040371Y-73219186D01*
X184895613Y-73074428D01*
X184730013Y-72954114D01*
X184680103Y-72928683D01*
X184629308Y-72880707D01*
X184612400Y-72818199D01*
X184612400Y-71610655D01*
X184612401Y-71610642D01*
X184612401Y-71452150D01*
X184612401Y-71452148D01*
X184573965Y-71308704D01*
X184556073Y-71277715D01*
X184499715Y-71180099D01*
X184499710Y-71180093D01*
X181956319Y-68636702D01*
X181922834Y-68575379D01*
X181920000Y-68549021D01*
X181920000Y-68397682D01*
X182850000Y-68397682D01*
X182850000Y-68602317D01*
X182882009Y-68804417D01*
X182945244Y-68999031D01*
X183038141Y-69181350D01*
X183038147Y-69181359D01*
X183070523Y-69225921D01*
X183070524Y-69225922D01*
X183750000Y-68546446D01*
X183750000Y-68552661D01*
X183777259Y-68654394D01*
X183829920Y-68745606D01*
X183904394Y-68820080D01*
X183995606Y-68872741D01*
X184097339Y-68900000D01*
X184103553Y-68900000D01*
X183424076Y-69579474D01*
X183468650Y-69611859D01*
X183650968Y-69704755D01*
X183845582Y-69767990D01*
X184047683Y-69800000D01*
X184252317Y-69800000D01*
X184454417Y-69767990D01*
X184649031Y-69704755D01*
X184831349Y-69611859D01*
X184875921Y-69579474D01*
X184196447Y-68900000D01*
X184202661Y-68900000D01*
X184304394Y-68872741D01*
X184395606Y-68820080D01*
X184470080Y-68745606D01*
X184522741Y-68654394D01*
X184550000Y-68552661D01*
X184550000Y-68546447D01*
X185229474Y-69225921D01*
X185261859Y-69181349D01*
X185354755Y-68999031D01*
X185417990Y-68804417D01*
X185450000Y-68602317D01*
X185450000Y-68397682D01*
X185417990Y-68195582D01*
X185354755Y-68000968D01*
X185261859Y-67818650D01*
X185229474Y-67774077D01*
X185229474Y-67774076D01*
X184550000Y-68453551D01*
X184550000Y-68447339D01*
X184522741Y-68345606D01*
X184470080Y-68254394D01*
X184395606Y-68179920D01*
X184304394Y-68127259D01*
X184202661Y-68100000D01*
X184196446Y-68100000D01*
X184875922Y-67420524D01*
X184875921Y-67420523D01*
X184831359Y-67388147D01*
X184831350Y-67388141D01*
X184649031Y-67295244D01*
X184454417Y-67232009D01*
X184252317Y-67200000D01*
X184047683Y-67200000D01*
X183845582Y-67232009D01*
X183650968Y-67295244D01*
X183468644Y-67388143D01*
X183424077Y-67420523D01*
X183424077Y-67420524D01*
X184103554Y-68100000D01*
X184097339Y-68100000D01*
X183995606Y-68127259D01*
X183904394Y-68179920D01*
X183829920Y-68254394D01*
X183777259Y-68345606D01*
X183750000Y-68447339D01*
X183750000Y-68453553D01*
X183070524Y-67774077D01*
X183070523Y-67774077D01*
X183038143Y-67818644D01*
X182945244Y-68000968D01*
X182882009Y-68195582D01*
X182850000Y-68397682D01*
X181920000Y-68397682D01*
X181920000Y-66981750D01*
X181920000Y-66981748D01*
X181881565Y-66838304D01*
X181807313Y-66709696D01*
X181702304Y-66604687D01*
X181702303Y-66604686D01*
X181697973Y-66600356D01*
X181697962Y-66600346D01*
X180351418Y-65253802D01*
X180317933Y-65192479D01*
X180321168Y-65127804D01*
X180338477Y-65074534D01*
X180370500Y-64872352D01*
X180370500Y-64667648D01*
X180338477Y-64465466D01*
X180275220Y-64270781D01*
X180275218Y-64270778D01*
X180275218Y-64270776D01*
X180235801Y-64193417D01*
X180182287Y-64088390D01*
X180171043Y-64072914D01*
X180061971Y-63922786D01*
X179917213Y-63778028D01*
X179751614Y-63657715D01*
X179745006Y-63654348D01*
X179658917Y-63610483D01*
X179608123Y-63562511D01*
X179591328Y-63494690D01*
X179613865Y-63428555D01*
X179647066Y-63397648D01*
X182849500Y-63397648D01*
X182849500Y-63602352D01*
X182850788Y-63610485D01*
X182881522Y-63804534D01*
X182944781Y-63999223D01*
X182982548Y-64073343D01*
X183037182Y-64180568D01*
X183037715Y-64181613D01*
X183158028Y-64347213D01*
X183302786Y-64491971D01*
X183457749Y-64604556D01*
X183468390Y-64612287D01*
X183577042Y-64667648D01*
X183650776Y-64705218D01*
X183650778Y-64705218D01*
X183650781Y-64705220D01*
X183755137Y-64739127D01*
X183845465Y-64768477D01*
X183946557Y-64784488D01*
X184047648Y-64800500D01*
X184047649Y-64800500D01*
X184252351Y-64800500D01*
X184252352Y-64800500D01*
X184454534Y-64768477D01*
X184649219Y-64705220D01*
X184831610Y-64612287D01*
X184939265Y-64534072D01*
X184997213Y-64491971D01*
X184997215Y-64491968D01*
X184997219Y-64491966D01*
X185141966Y-64347219D01*
X185141968Y-64347215D01*
X185141971Y-64347213D01*
X185210372Y-64253065D01*
X185262287Y-64181610D01*
X185355220Y-63999219D01*
X185418477Y-63804534D01*
X185450500Y-63602352D01*
X185450500Y-63397648D01*
X185418477Y-63195466D01*
X185400899Y-63141368D01*
X185355218Y-63000776D01*
X185321503Y-62934607D01*
X185262287Y-62818390D01*
X185241660Y-62789999D01*
X185141971Y-62652786D01*
X184997213Y-62508028D01*
X184831613Y-62387715D01*
X184831612Y-62387714D01*
X184831610Y-62387713D01*
X184774653Y-62358691D01*
X184649223Y-62294781D01*
X184454534Y-62231522D01*
X184279995Y-62203878D01*
X184252352Y-62199500D01*
X184047648Y-62199500D01*
X184023329Y-62203351D01*
X183845465Y-62231522D01*
X183650776Y-62294781D01*
X183468386Y-62387715D01*
X183302786Y-62508028D01*
X183158028Y-62652786D01*
X183037715Y-62818386D01*
X182944781Y-63000776D01*
X182881522Y-63195465D01*
X182858269Y-63342284D01*
X182849500Y-63397648D01*
X179647066Y-63397648D01*
X179651195Y-63393804D01*
X179654976Y-63391524D01*
X179751610Y-63342287D01*
X179917219Y-63221966D01*
X180061966Y-63077219D01*
X180061968Y-63077215D01*
X180061971Y-63077213D01*
X180117505Y-63000776D01*
X180182287Y-62911610D01*
X180275220Y-62729219D01*
X180338477Y-62534534D01*
X180370500Y-62332352D01*
X180370500Y-62127648D01*
X180338477Y-61925466D01*
X180336991Y-61920894D01*
X180296069Y-61794948D01*
X180275220Y-61730781D01*
X180275218Y-61730778D01*
X180275218Y-61730776D01*
X180231758Y-61645483D01*
X180182287Y-61548390D01*
X180152277Y-61507084D01*
X180061971Y-61382786D01*
X179917213Y-61238028D01*
X179751614Y-61117715D01*
X179745006Y-61114348D01*
X179658917Y-61070483D01*
X179608123Y-61022511D01*
X179591328Y-60954690D01*
X179613865Y-60888555D01*
X179658917Y-60849516D01*
X179751610Y-60802287D01*
X179877780Y-60710620D01*
X179917213Y-60681971D01*
X179917215Y-60681968D01*
X179917219Y-60681966D01*
X180061966Y-60537219D01*
X180061968Y-60537215D01*
X180061971Y-60537213D01*
X180114732Y-60464590D01*
X180182287Y-60371610D01*
X180275220Y-60189219D01*
X180338477Y-59994534D01*
X180370500Y-59792352D01*
X180370500Y-59587648D01*
X180338477Y-59385466D01*
X180275220Y-59190781D01*
X180275218Y-59190778D01*
X180275218Y-59190776D01*
X180241503Y-59124607D01*
X180182287Y-59008390D01*
X180138207Y-58947718D01*
X180061971Y-58842786D01*
X179917213Y-58698028D01*
X179751614Y-58577715D01*
X179745006Y-58574348D01*
X179658917Y-58530483D01*
X179608123Y-58482511D01*
X179591328Y-58414690D01*
X179613865Y-58348555D01*
X179658917Y-58309516D01*
X179751610Y-58262287D01*
X179821861Y-58211247D01*
X179917213Y-58141971D01*
X179917215Y-58141968D01*
X179917219Y-58141966D01*
X180061966Y-57997219D01*
X180061968Y-57997215D01*
X180061971Y-57997213D01*
X180117505Y-57920776D01*
X180182287Y-57831610D01*
X180275220Y-57649219D01*
X180338477Y-57454534D01*
X180370500Y-57252352D01*
X180370500Y-57047648D01*
X180364170Y-57007682D01*
X182850000Y-57007682D01*
X182850000Y-57212317D01*
X182882009Y-57414417D01*
X182945244Y-57609031D01*
X183038141Y-57791350D01*
X183038147Y-57791359D01*
X183070523Y-57835921D01*
X183070524Y-57835922D01*
X183750000Y-57156446D01*
X183750000Y-57162661D01*
X183777259Y-57264394D01*
X183829920Y-57355606D01*
X183904394Y-57430080D01*
X183995606Y-57482741D01*
X184097339Y-57510000D01*
X184103553Y-57510000D01*
X183424076Y-58189474D01*
X183468650Y-58221859D01*
X183650968Y-58314755D01*
X183845582Y-58377990D01*
X184047683Y-58410000D01*
X184252317Y-58410000D01*
X184454417Y-58377990D01*
X184640127Y-58317648D01*
X187929500Y-58317648D01*
X187929500Y-58522351D01*
X187961522Y-58724534D01*
X188024781Y-58919223D01*
X188070213Y-59008386D01*
X188108056Y-59082658D01*
X188117715Y-59101613D01*
X188238028Y-59267213D01*
X188382786Y-59411971D01*
X188537749Y-59524556D01*
X188548390Y-59532287D01*
X188657042Y-59587648D01*
X188730776Y-59625218D01*
X188730778Y-59625218D01*
X188730781Y-59625220D01*
X188835137Y-59659127D01*
X188925465Y-59688477D01*
X189007171Y-59701418D01*
X189127648Y-59720500D01*
X189127649Y-59720500D01*
X189332351Y-59720500D01*
X189332352Y-59720500D01*
X189534534Y-59688477D01*
X189587805Y-59671167D01*
X189657643Y-59669173D01*
X189713802Y-59701418D01*
X190661681Y-60649297D01*
X190695166Y-60710620D01*
X190698000Y-60736978D01*
X190698000Y-61756629D01*
X190678315Y-61823668D01*
X190625511Y-61869423D01*
X190556353Y-61879367D01*
X190492797Y-61850342D01*
X190456069Y-61794948D01*
X190435220Y-61730781D01*
X190435218Y-61730778D01*
X190435218Y-61730776D01*
X190391758Y-61645483D01*
X190342287Y-61548390D01*
X190312277Y-61507084D01*
X190221971Y-61382786D01*
X190077213Y-61238028D01*
X189911613Y-61117715D01*
X189911612Y-61117714D01*
X189911610Y-61117713D01*
X189854653Y-61088691D01*
X189729223Y-61024781D01*
X189534534Y-60961522D01*
X189359995Y-60933878D01*
X189332352Y-60929500D01*
X189127648Y-60929500D01*
X189103329Y-60933351D01*
X188925465Y-60961522D01*
X188730776Y-61024781D01*
X188548386Y-61117715D01*
X188382786Y-61238028D01*
X188238028Y-61382786D01*
X188117715Y-61548386D01*
X188024781Y-61730776D01*
X187961522Y-61925465D01*
X187929500Y-62127648D01*
X187929500Y-62332351D01*
X187961522Y-62534534D01*
X188024781Y-62729223D01*
X188070213Y-62818386D01*
X188115920Y-62908092D01*
X188117715Y-62911613D01*
X188238028Y-63077213D01*
X188382786Y-63221971D01*
X188475500Y-63289330D01*
X188548390Y-63342287D01*
X188641080Y-63389515D01*
X188730776Y-63435218D01*
X188730778Y-63435218D01*
X188730781Y-63435220D01*
X188835137Y-63469127D01*
X188925465Y-63498477D01*
X188944697Y-63501523D01*
X189127648Y-63530500D01*
X189127649Y-63530500D01*
X189332351Y-63530500D01*
X189332352Y-63530500D01*
X189534534Y-63498477D01*
X189729219Y-63435220D01*
X189911610Y-63342287D01*
X190066010Y-63230110D01*
X190077213Y-63221971D01*
X190077215Y-63221968D01*
X190077219Y-63221966D01*
X190221966Y-63077219D01*
X190221968Y-63077215D01*
X190221971Y-63077213D01*
X190277505Y-63000776D01*
X190342287Y-62911610D01*
X190435220Y-62729219D01*
X190456069Y-62665051D01*
X190495507Y-62607376D01*
X190559865Y-62580178D01*
X190628712Y-62592093D01*
X190680187Y-62639337D01*
X190698000Y-62703370D01*
X190698000Y-67533021D01*
X190678315Y-67600060D01*
X190661681Y-67620702D01*
X189713802Y-68568580D01*
X189652479Y-68602065D01*
X189587804Y-68598831D01*
X189534531Y-68581522D01*
X189352309Y-68552661D01*
X189332352Y-68549500D01*
X189127648Y-68549500D01*
X189107691Y-68552661D01*
X188925465Y-68581522D01*
X188730776Y-68644781D01*
X188548386Y-68737715D01*
X188382786Y-68858028D01*
X188238028Y-69002786D01*
X188117715Y-69168386D01*
X188024781Y-69350776D01*
X187961522Y-69545465D01*
X187929500Y-69747648D01*
X187929500Y-69952351D01*
X187961522Y-70154534D01*
X188024781Y-70349223D01*
X188088691Y-70474653D01*
X188108056Y-70512658D01*
X188117715Y-70531613D01*
X188238028Y-70697213D01*
X188382786Y-70841971D01*
X188537749Y-70954556D01*
X188548390Y-70962287D01*
X188641080Y-71009515D01*
X188730776Y-71055218D01*
X188730778Y-71055218D01*
X188730781Y-71055220D01*
X188835137Y-71089127D01*
X188925465Y-71118477D01*
X188944697Y-71121523D01*
X189127648Y-71150500D01*
X189127649Y-71150500D01*
X189332351Y-71150500D01*
X189332352Y-71150500D01*
X189534534Y-71118477D01*
X189587805Y-71101167D01*
X189657643Y-71099173D01*
X189713802Y-71131418D01*
X190661681Y-72079297D01*
X190695166Y-72140620D01*
X190698000Y-72166978D01*
X190698000Y-73186629D01*
X190678315Y-73253668D01*
X190625511Y-73299423D01*
X190556353Y-73309367D01*
X190492797Y-73280342D01*
X190456069Y-73224948D01*
X190454195Y-73219181D01*
X190435220Y-73160781D01*
X190435218Y-73160778D01*
X190435218Y-73160776D01*
X190391221Y-73074428D01*
X190342287Y-72978390D01*
X190312277Y-72937084D01*
X190221971Y-72812786D01*
X190077213Y-72668028D01*
X189911613Y-72547715D01*
X189911612Y-72547714D01*
X189911610Y-72547713D01*
X189854653Y-72518691D01*
X189729223Y-72454781D01*
X189534534Y-72391522D01*
X189359995Y-72363878D01*
X189332352Y-72359500D01*
X189127648Y-72359500D01*
X189103329Y-72363351D01*
X188925465Y-72391522D01*
X188730776Y-72454781D01*
X188548386Y-72547715D01*
X188382786Y-72668028D01*
X188238028Y-72812786D01*
X188117715Y-72978386D01*
X188024781Y-73160776D01*
X187961522Y-73355465D01*
X187938336Y-73501861D01*
X187929500Y-73557648D01*
X187929500Y-73762352D01*
X187930788Y-73770485D01*
X187961522Y-73964534D01*
X188024781Y-74159223D01*
X188066403Y-74240909D01*
X188115920Y-74338092D01*
X188117715Y-74341613D01*
X188238028Y-74507213D01*
X188382786Y-74651971D01*
X188503657Y-74739787D01*
X188548390Y-74772287D01*
X188641080Y-74819515D01*
X188730776Y-74865218D01*
X188730778Y-74865218D01*
X188730781Y-74865220D01*
X188811395Y-74891413D01*
X188925465Y-74928477D01*
X188968613Y-74935311D01*
X189127648Y-74960500D01*
X189127649Y-74960500D01*
X189332351Y-74960500D01*
X189332352Y-74960500D01*
X189534534Y-74928477D01*
X189729219Y-74865220D01*
X189911610Y-74772287D01*
X190066010Y-74660110D01*
X190077213Y-74651971D01*
X190077215Y-74651968D01*
X190077219Y-74651966D01*
X190221966Y-74507219D01*
X190221968Y-74507215D01*
X190221971Y-74507213D01*
X190277505Y-74430776D01*
X190342287Y-74341610D01*
X190435220Y-74159219D01*
X190456069Y-74095051D01*
X190495507Y-74037376D01*
X190559865Y-74010178D01*
X190628712Y-74022093D01*
X190680187Y-74069337D01*
X190698000Y-74133370D01*
X190698000Y-78963021D01*
X190678315Y-79030060D01*
X190661681Y-79050702D01*
X189713802Y-79998580D01*
X189652479Y-80032065D01*
X189587804Y-80028831D01*
X189534531Y-80011522D01*
X189379220Y-79986923D01*
X189332352Y-79979500D01*
X189127648Y-79979500D01*
X189103329Y-79983351D01*
X188925465Y-80011522D01*
X188730776Y-80074781D01*
X188548386Y-80167715D01*
X188382786Y-80288028D01*
X188238028Y-80432786D01*
X188117715Y-80598386D01*
X188024781Y-80780776D01*
X187961522Y-80975465D01*
X187929500Y-81177648D01*
X187929500Y-81382351D01*
X187961522Y-81584534D01*
X188024781Y-81779223D01*
X188088691Y-81904653D01*
X188108056Y-81942658D01*
X188117715Y-81961613D01*
X188238028Y-82127213D01*
X188382786Y-82271971D01*
X188503657Y-82359787D01*
X188548390Y-82392287D01*
X188661668Y-82450005D01*
X188730776Y-82485218D01*
X188730778Y-82485218D01*
X188730781Y-82485220D01*
X188811392Y-82511412D01*
X188925465Y-82548477D01*
X189026557Y-82564488D01*
X189127648Y-82580500D01*
X189127649Y-82580500D01*
X189332351Y-82580500D01*
X189332352Y-82580500D01*
X189534534Y-82548477D01*
X189729219Y-82485220D01*
X189911610Y-82392287D01*
X190004590Y-82324732D01*
X190077213Y-82271971D01*
X190077215Y-82271968D01*
X190077219Y-82271966D01*
X190221966Y-82127219D01*
X190221968Y-82127215D01*
X190221971Y-82127213D01*
X190342284Y-81961614D01*
X190342285Y-81961613D01*
X190342287Y-81961610D01*
X190435220Y-81779219D01*
X190498477Y-81584534D01*
X190530500Y-81382352D01*
X190530500Y-81177648D01*
X190498477Y-80975466D01*
X190481167Y-80922194D01*
X190479173Y-80852354D01*
X190511416Y-80796198D01*
X190705667Y-80601947D01*
X194370000Y-80601947D01*
X194370000Y-80838052D01*
X194406934Y-81071247D01*
X194479897Y-81295802D01*
X194587087Y-81506174D01*
X194647338Y-81589104D01*
X194647340Y-81589105D01*
X195346212Y-80890233D01*
X195357482Y-80932292D01*
X195429890Y-81057708D01*
X195532292Y-81160110D01*
X195657708Y-81232518D01*
X195699765Y-81243787D01*
X195000893Y-81942658D01*
X195083828Y-82002914D01*
X195294197Y-82110102D01*
X195518752Y-82183065D01*
X195518751Y-82183065D01*
X195751948Y-82220000D01*
X195988052Y-82220000D01*
X196221247Y-82183065D01*
X196445802Y-82110102D01*
X196656163Y-82002918D01*
X196656169Y-82002914D01*
X196739104Y-81942658D01*
X196739105Y-81942658D01*
X196040233Y-81243787D01*
X196082292Y-81232518D01*
X196207708Y-81160110D01*
X196310110Y-81057708D01*
X196382518Y-80932292D01*
X196393787Y-80890233D01*
X197092658Y-81589105D01*
X197092658Y-81589104D01*
X197152914Y-81506169D01*
X197152918Y-81506163D01*
X197260102Y-81295802D01*
X197333065Y-81071247D01*
X197370000Y-80838052D01*
X197370000Y-80601947D01*
X197369993Y-80601902D01*
X198869500Y-80601902D01*
X198869500Y-80838097D01*
X198906446Y-81071368D01*
X198979433Y-81295996D01*
X199086519Y-81506163D01*
X199086657Y-81506433D01*
X199225483Y-81697510D01*
X199392490Y-81864517D01*
X199583567Y-82003343D01*
X199682991Y-82054002D01*
X199794003Y-82110566D01*
X199794005Y-82110566D01*
X199794008Y-82110568D01*
X199914412Y-82149689D01*
X200018631Y-82183553D01*
X200251903Y-82220500D01*
X200251908Y-82220500D01*
X200488097Y-82220500D01*
X200721368Y-82183553D01*
X200722870Y-82183065D01*
X200945992Y-82110568D01*
X201156433Y-82003343D01*
X201347510Y-81864517D01*
X201514517Y-81697510D01*
X201653343Y-81506433D01*
X201760568Y-81295992D01*
X201833553Y-81071368D01*
X201836569Y-81052328D01*
X201870500Y-80838097D01*
X201870500Y-80601902D01*
X201833553Y-80368631D01*
X201760566Y-80144003D01*
X201694850Y-80015030D01*
X201653343Y-79933567D01*
X201514517Y-79742490D01*
X201347510Y-79575483D01*
X201156433Y-79436657D01*
X201123650Y-79419953D01*
X200945996Y-79329433D01*
X200721368Y-79256446D01*
X200488097Y-79219500D01*
X200488092Y-79219500D01*
X200251908Y-79219500D01*
X200251903Y-79219500D01*
X200018631Y-79256446D01*
X199794003Y-79329433D01*
X199583566Y-79436657D01*
X199543598Y-79465696D01*
X199392490Y-79575483D01*
X199392488Y-79575485D01*
X199392487Y-79575485D01*
X199225485Y-79742487D01*
X199225485Y-79742488D01*
X199225483Y-79742490D01*
X199189279Y-79792321D01*
X199086657Y-79933566D01*
X198979433Y-80144003D01*
X198906446Y-80368631D01*
X198869500Y-80601902D01*
X197369993Y-80601902D01*
X197333065Y-80368752D01*
X197260102Y-80144197D01*
X197152914Y-79933828D01*
X197092658Y-79850894D01*
X197092658Y-79850893D01*
X196393787Y-80549765D01*
X196382518Y-80507708D01*
X196310110Y-80382292D01*
X196207708Y-80279890D01*
X196082292Y-80207482D01*
X196040234Y-80196212D01*
X196739105Y-79497340D01*
X196739104Y-79497338D01*
X196656174Y-79437087D01*
X196445802Y-79329897D01*
X196221247Y-79256934D01*
X196221248Y-79256934D01*
X195988052Y-79220000D01*
X195751948Y-79220000D01*
X195518752Y-79256934D01*
X195294197Y-79329897D01*
X195083830Y-79437084D01*
X195000894Y-79497340D01*
X195699766Y-80196212D01*
X195657708Y-80207482D01*
X195532292Y-80279890D01*
X195429890Y-80382292D01*
X195357482Y-80507708D01*
X195346212Y-80549766D01*
X194647340Y-79850894D01*
X194587084Y-79933830D01*
X194479897Y-80144197D01*
X194406934Y-80368752D01*
X194370000Y-80601947D01*
X190705667Y-80601947D01*
X191598094Y-79709521D01*
X191598099Y-79709517D01*
X191608302Y-79699313D01*
X191608304Y-79699313D01*
X191713313Y-79594304D01*
X191787565Y-79465696D01*
X191824076Y-79329432D01*
X191826000Y-79322253D01*
X191826000Y-79173747D01*
X191826000Y-74101947D01*
X194370000Y-74101947D01*
X194370000Y-74338052D01*
X194406934Y-74571247D01*
X194479897Y-74795802D01*
X194587087Y-75006174D01*
X194647338Y-75089104D01*
X194647340Y-75089105D01*
X195346212Y-74390233D01*
X195357482Y-74432292D01*
X195429890Y-74557708D01*
X195532292Y-74660110D01*
X195657708Y-74732518D01*
X195699765Y-74743787D01*
X195000893Y-75442658D01*
X195083828Y-75502914D01*
X195294197Y-75610102D01*
X195518752Y-75683065D01*
X195518751Y-75683065D01*
X195751948Y-75720000D01*
X195988052Y-75720000D01*
X196221247Y-75683065D01*
X196445802Y-75610102D01*
X196656163Y-75502918D01*
X196656169Y-75502914D01*
X196739104Y-75442658D01*
X196739105Y-75442658D01*
X196040233Y-74743787D01*
X196082292Y-74732518D01*
X196207708Y-74660110D01*
X196310110Y-74557708D01*
X196382518Y-74432292D01*
X196393787Y-74390233D01*
X197092658Y-75089105D01*
X197092658Y-75089104D01*
X197152914Y-75006169D01*
X197152918Y-75006163D01*
X197260102Y-74795802D01*
X197333065Y-74571247D01*
X197370000Y-74338052D01*
X197370000Y-74101947D01*
X197369993Y-74101902D01*
X198869500Y-74101902D01*
X198869500Y-74338097D01*
X198906446Y-74571368D01*
X198979433Y-74795996D01*
X199079563Y-74992510D01*
X199086657Y-75006433D01*
X199225483Y-75197510D01*
X199392490Y-75364517D01*
X199583567Y-75503343D01*
X199652184Y-75538305D01*
X199794003Y-75610566D01*
X199794005Y-75610566D01*
X199794008Y-75610568D01*
X199914412Y-75649689D01*
X200018631Y-75683553D01*
X200251903Y-75720500D01*
X200251908Y-75720500D01*
X200488097Y-75720500D01*
X200721368Y-75683553D01*
X200722870Y-75683065D01*
X200945992Y-75610568D01*
X201156433Y-75503343D01*
X201347510Y-75364517D01*
X201514517Y-75197510D01*
X201653343Y-75006433D01*
X201760568Y-74795992D01*
X201833553Y-74571368D01*
X201847634Y-74482464D01*
X201870500Y-74338097D01*
X201870500Y-74101902D01*
X201833553Y-73868631D01*
X201786075Y-73722511D01*
X201760568Y-73644008D01*
X201760566Y-73644005D01*
X201760566Y-73644003D01*
X201704002Y-73532991D01*
X201653343Y-73433567D01*
X201514517Y-73242490D01*
X201347510Y-73075483D01*
X201156433Y-72936657D01*
X201140783Y-72928683D01*
X200945996Y-72829433D01*
X200721368Y-72756446D01*
X200488097Y-72719500D01*
X200488092Y-72719500D01*
X200251908Y-72719500D01*
X200251903Y-72719500D01*
X200018631Y-72756446D01*
X199794003Y-72829433D01*
X199583566Y-72936657D01*
X199474550Y-73015862D01*
X199392490Y-73075483D01*
X199392488Y-73075485D01*
X199392487Y-73075485D01*
X199225485Y-73242487D01*
X199225485Y-73242488D01*
X199225483Y-73242490D01*
X199217362Y-73253668D01*
X199086657Y-73433566D01*
X198979433Y-73644003D01*
X198906446Y-73868631D01*
X198869500Y-74101902D01*
X197369993Y-74101902D01*
X197333065Y-73868752D01*
X197260102Y-73644197D01*
X197152914Y-73433828D01*
X197092658Y-73350894D01*
X197092658Y-73350893D01*
X196393787Y-74049765D01*
X196382518Y-74007708D01*
X196310110Y-73882292D01*
X196207708Y-73779890D01*
X196082292Y-73707482D01*
X196040234Y-73696212D01*
X196739105Y-72997340D01*
X196739104Y-72997338D01*
X196656174Y-72937087D01*
X196445802Y-72829897D01*
X196221247Y-72756934D01*
X196221248Y-72756934D01*
X195988052Y-72720000D01*
X195751948Y-72720000D01*
X195518752Y-72756934D01*
X195294197Y-72829897D01*
X195083830Y-72937084D01*
X195000894Y-72997340D01*
X195699766Y-73696212D01*
X195657708Y-73707482D01*
X195532292Y-73779890D01*
X195429890Y-73882292D01*
X195357482Y-74007708D01*
X195346212Y-74049766D01*
X194647340Y-73350894D01*
X194587084Y-73433830D01*
X194479897Y-73644197D01*
X194406934Y-73868752D01*
X194370000Y-74101947D01*
X191826000Y-74101947D01*
X191826000Y-71807748D01*
X191787565Y-71664304D01*
X191713313Y-71535696D01*
X191608304Y-71430687D01*
X191608303Y-71430686D01*
X191603973Y-71426356D01*
X191603962Y-71426346D01*
X190511418Y-70333802D01*
X190477933Y-70272479D01*
X190481167Y-70207805D01*
X190498477Y-70154534D01*
X190530500Y-69952352D01*
X190530500Y-69747648D01*
X190498477Y-69545466D01*
X190481167Y-69492194D01*
X190479173Y-69422354D01*
X190511416Y-69366198D01*
X190705712Y-69171902D01*
X194369500Y-69171902D01*
X194369500Y-69408097D01*
X194406446Y-69641368D01*
X194479433Y-69865996D01*
X194547944Y-70000455D01*
X194586657Y-70076433D01*
X194725483Y-70267510D01*
X194892490Y-70434517D01*
X195083567Y-70573343D01*
X195182991Y-70624002D01*
X195294003Y-70680566D01*
X195294005Y-70680566D01*
X195294008Y-70680568D01*
X195414412Y-70719689D01*
X195518631Y-70753553D01*
X195751903Y-70790500D01*
X195751908Y-70790500D01*
X195988097Y-70790500D01*
X196221368Y-70753553D01*
X196222870Y-70753065D01*
X196445992Y-70680568D01*
X196656433Y-70573343D01*
X196847510Y-70434517D01*
X197014517Y-70267510D01*
X197153343Y-70076433D01*
X197260568Y-69865992D01*
X197333553Y-69641368D01*
X197348742Y-69545468D01*
X197370500Y-69408097D01*
X197370500Y-69171947D01*
X198870000Y-69171947D01*
X198870000Y-69408052D01*
X198906934Y-69641247D01*
X198979897Y-69865802D01*
X199087087Y-70076174D01*
X199147338Y-70159104D01*
X199147340Y-70159105D01*
X199846212Y-69460233D01*
X199857482Y-69502292D01*
X199929890Y-69627708D01*
X200032292Y-69730110D01*
X200157708Y-69802518D01*
X200199765Y-69813787D01*
X199500893Y-70512658D01*
X199583828Y-70572914D01*
X199794197Y-70680102D01*
X200018752Y-70753065D01*
X200018751Y-70753065D01*
X200251948Y-70790000D01*
X200488052Y-70790000D01*
X200721247Y-70753065D01*
X200945802Y-70680102D01*
X201156163Y-70572918D01*
X201156169Y-70572914D01*
X201239104Y-70512658D01*
X201239105Y-70512658D01*
X200540233Y-69813787D01*
X200582292Y-69802518D01*
X200707708Y-69730110D01*
X200810110Y-69627708D01*
X200882518Y-69502292D01*
X200893787Y-69460234D01*
X201592658Y-70159105D01*
X201592658Y-70159104D01*
X201652914Y-70076169D01*
X201652918Y-70076163D01*
X201760102Y-69865802D01*
X201833065Y-69641247D01*
X201870000Y-69408052D01*
X201870000Y-69171947D01*
X201833065Y-68938752D01*
X201760102Y-68714197D01*
X201652914Y-68503828D01*
X201592658Y-68420894D01*
X201592658Y-68420893D01*
X200893787Y-69119765D01*
X200882518Y-69077708D01*
X200810110Y-68952292D01*
X200707708Y-68849890D01*
X200582292Y-68777482D01*
X200540234Y-68766212D01*
X201239105Y-68067340D01*
X201239104Y-68067338D01*
X201156174Y-68007087D01*
X200945802Y-67899897D01*
X200721247Y-67826934D01*
X200721248Y-67826934D01*
X200488052Y-67790000D01*
X200251948Y-67790000D01*
X200018752Y-67826934D01*
X199794197Y-67899897D01*
X199583830Y-68007084D01*
X199500894Y-68067340D01*
X200199766Y-68766212D01*
X200157708Y-68777482D01*
X200032292Y-68849890D01*
X199929890Y-68952292D01*
X199857482Y-69077708D01*
X199846212Y-69119766D01*
X199147340Y-68420894D01*
X199087084Y-68503830D01*
X198979897Y-68714197D01*
X198906934Y-68938752D01*
X198870000Y-69171947D01*
X197370500Y-69171947D01*
X197370500Y-69171902D01*
X197333553Y-68938631D01*
X197281192Y-68777482D01*
X197260568Y-68714008D01*
X197260566Y-68714005D01*
X197260566Y-68714003D01*
X197194994Y-68585311D01*
X197153343Y-68503567D01*
X197014517Y-68312490D01*
X196847510Y-68145483D01*
X196656433Y-68006657D01*
X196645268Y-68000968D01*
X196445996Y-67899433D01*
X196221368Y-67826446D01*
X195988097Y-67789500D01*
X195988092Y-67789500D01*
X195751908Y-67789500D01*
X195751903Y-67789500D01*
X195518631Y-67826446D01*
X195294003Y-67899433D01*
X195083566Y-68006657D01*
X195000047Y-68067338D01*
X194892490Y-68145483D01*
X194892488Y-68145485D01*
X194892487Y-68145485D01*
X194725485Y-68312487D01*
X194725485Y-68312488D01*
X194725483Y-68312490D01*
X194701423Y-68345606D01*
X194586657Y-68503566D01*
X194479433Y-68714003D01*
X194406446Y-68938631D01*
X194369500Y-69171902D01*
X190705712Y-69171902D01*
X191598094Y-68279521D01*
X191598099Y-68279517D01*
X191608302Y-68269313D01*
X191608304Y-68269313D01*
X191713313Y-68164304D01*
X191787565Y-68035696D01*
X191826000Y-67892252D01*
X191826000Y-62671902D01*
X194369500Y-62671902D01*
X194369500Y-62908097D01*
X194406446Y-63141368D01*
X194479433Y-63365996D01*
X194584116Y-63571446D01*
X194586657Y-63576433D01*
X194725483Y-63767510D01*
X194892490Y-63934517D01*
X195083567Y-64073343D01*
X195182991Y-64124002D01*
X195294003Y-64180566D01*
X195294005Y-64180566D01*
X195294008Y-64180568D01*
X195414412Y-64219689D01*
X195518631Y-64253553D01*
X195751903Y-64290500D01*
X195751908Y-64290500D01*
X195988097Y-64290500D01*
X196221368Y-64253553D01*
X196222870Y-64253065D01*
X196445992Y-64180568D01*
X196656433Y-64073343D01*
X196847510Y-63934517D01*
X197014517Y-63767510D01*
X197153343Y-63576433D01*
X197260568Y-63365992D01*
X197333553Y-63141368D01*
X197343714Y-63077213D01*
X197370500Y-62908097D01*
X197370500Y-62671947D01*
X198870000Y-62671947D01*
X198870000Y-62908052D01*
X198906934Y-63141247D01*
X198979897Y-63365802D01*
X199087087Y-63576174D01*
X199147338Y-63659104D01*
X199147340Y-63659105D01*
X199846212Y-62960233D01*
X199857482Y-63002292D01*
X199929890Y-63127708D01*
X200032292Y-63230110D01*
X200157708Y-63302518D01*
X200199765Y-63313787D01*
X199500893Y-64012658D01*
X199583828Y-64072914D01*
X199794197Y-64180102D01*
X200018752Y-64253065D01*
X200018751Y-64253065D01*
X200251948Y-64290000D01*
X200488052Y-64290000D01*
X200721247Y-64253065D01*
X200945802Y-64180102D01*
X201156163Y-64072918D01*
X201156169Y-64072914D01*
X201239104Y-64012658D01*
X201239105Y-64012658D01*
X200540233Y-63313787D01*
X200582292Y-63302518D01*
X200707708Y-63230110D01*
X200810110Y-63127708D01*
X200882518Y-63002292D01*
X200893787Y-62960233D01*
X201592658Y-63659105D01*
X201592658Y-63659104D01*
X201652914Y-63576169D01*
X201652918Y-63576163D01*
X201760102Y-63365802D01*
X201833065Y-63141247D01*
X201870000Y-62908052D01*
X201870000Y-62671947D01*
X201833065Y-62438752D01*
X201760102Y-62214197D01*
X201652914Y-62003828D01*
X201592658Y-61920894D01*
X201592658Y-61920893D01*
X200893787Y-62619765D01*
X200882518Y-62577708D01*
X200810110Y-62452292D01*
X200707708Y-62349890D01*
X200582292Y-62277482D01*
X200540234Y-62266212D01*
X201239105Y-61567340D01*
X201239104Y-61567338D01*
X201156174Y-61507087D01*
X200945802Y-61399897D01*
X200721247Y-61326934D01*
X200721248Y-61326934D01*
X200488052Y-61290000D01*
X200251948Y-61290000D01*
X200018752Y-61326934D01*
X199794197Y-61399897D01*
X199583830Y-61507084D01*
X199500894Y-61567340D01*
X200199766Y-62266212D01*
X200157708Y-62277482D01*
X200032292Y-62349890D01*
X199929890Y-62452292D01*
X199857482Y-62577708D01*
X199846212Y-62619765D01*
X199147340Y-61920894D01*
X199087084Y-62003830D01*
X198979897Y-62214197D01*
X198906934Y-62438752D01*
X198870000Y-62671947D01*
X197370500Y-62671947D01*
X197370500Y-62671902D01*
X197333553Y-62438631D01*
X197266259Y-62231523D01*
X197260568Y-62214008D01*
X197260566Y-62214005D01*
X197260566Y-62214003D01*
X197153477Y-62003830D01*
X197153343Y-62003567D01*
X197014517Y-61812490D01*
X196847510Y-61645483D01*
X196656433Y-61506657D01*
X196445996Y-61399433D01*
X196221368Y-61326446D01*
X195988097Y-61289500D01*
X195988092Y-61289500D01*
X195751908Y-61289500D01*
X195751903Y-61289500D01*
X195518631Y-61326446D01*
X195294003Y-61399433D01*
X195083566Y-61506657D01*
X195000047Y-61567338D01*
X194892490Y-61645483D01*
X194892488Y-61645485D01*
X194892487Y-61645485D01*
X194725485Y-61812487D01*
X194725485Y-61812488D01*
X194725483Y-61812490D01*
X194717362Y-61823668D01*
X194586657Y-62003566D01*
X194479433Y-62214003D01*
X194406446Y-62438631D01*
X194369500Y-62671902D01*
X191826000Y-62671902D01*
X191826000Y-60377748D01*
X191824355Y-60371610D01*
X191787565Y-60234304D01*
X191746925Y-60163914D01*
X191713313Y-60105696D01*
X191608304Y-60000687D01*
X191608303Y-60000686D01*
X191603973Y-59996356D01*
X191603962Y-59996346D01*
X190511418Y-58903802D01*
X190477933Y-58842479D01*
X190481167Y-58777805D01*
X190498477Y-58724534D01*
X190530500Y-58522352D01*
X190530500Y-58317648D01*
X190513840Y-58212462D01*
X190498477Y-58115465D01*
X190460056Y-57997219D01*
X190435220Y-57920781D01*
X190435218Y-57920778D01*
X190435218Y-57920776D01*
X190370281Y-57793331D01*
X190367199Y-57787282D01*
X190344076Y-57741902D01*
X194369500Y-57741902D01*
X194369500Y-57978097D01*
X194406446Y-58211368D01*
X194479433Y-58435996D01*
X194551642Y-58577713D01*
X194586657Y-58646433D01*
X194725483Y-58837510D01*
X194892490Y-59004517D01*
X195083567Y-59143343D01*
X195176660Y-59190776D01*
X195294003Y-59250566D01*
X195294005Y-59250566D01*
X195294008Y-59250568D01*
X195414412Y-59289689D01*
X195518631Y-59323553D01*
X195751903Y-59360500D01*
X195751908Y-59360500D01*
X195988097Y-59360500D01*
X196221368Y-59323553D01*
X196222870Y-59323065D01*
X196445992Y-59250568D01*
X196656433Y-59143343D01*
X196847510Y-59004517D01*
X197014517Y-58837510D01*
X197153343Y-58646433D01*
X197260568Y-58435992D01*
X197333553Y-58211368D01*
X197337021Y-58189474D01*
X197370500Y-57978097D01*
X197370500Y-57741947D01*
X198870000Y-57741947D01*
X198870000Y-57978052D01*
X198906934Y-58211247D01*
X198979897Y-58435802D01*
X199087087Y-58646174D01*
X199147338Y-58729104D01*
X199147340Y-58729105D01*
X199846212Y-58030233D01*
X199857482Y-58072292D01*
X199929890Y-58197708D01*
X200032292Y-58300110D01*
X200157708Y-58372518D01*
X200199765Y-58383787D01*
X199500893Y-59082658D01*
X199583828Y-59142914D01*
X199794197Y-59250102D01*
X200018752Y-59323065D01*
X200018751Y-59323065D01*
X200251948Y-59360000D01*
X200488052Y-59360000D01*
X200721247Y-59323065D01*
X200945802Y-59250102D01*
X201156163Y-59142918D01*
X201156169Y-59142914D01*
X201239104Y-59082658D01*
X201239105Y-59082658D01*
X200540233Y-58383787D01*
X200582292Y-58372518D01*
X200707708Y-58300110D01*
X200810110Y-58197708D01*
X200882518Y-58072292D01*
X200893787Y-58030233D01*
X201592658Y-58729105D01*
X201592658Y-58729104D01*
X201652914Y-58646169D01*
X201652918Y-58646163D01*
X201760102Y-58435802D01*
X201833065Y-58211247D01*
X201870000Y-57978052D01*
X201870000Y-57741947D01*
X201833065Y-57508752D01*
X201760102Y-57284197D01*
X201652914Y-57073828D01*
X201592658Y-56990894D01*
X201592658Y-56990893D01*
X200893787Y-57689765D01*
X200882518Y-57647708D01*
X200810110Y-57522292D01*
X200707708Y-57419890D01*
X200582292Y-57347482D01*
X200540234Y-57336212D01*
X201239105Y-56637340D01*
X201239104Y-56637338D01*
X201156174Y-56577087D01*
X200945802Y-56469897D01*
X200721247Y-56396934D01*
X200721248Y-56396934D01*
X200488052Y-56360000D01*
X200251948Y-56360000D01*
X200018752Y-56396934D01*
X199794197Y-56469897D01*
X199583830Y-56577084D01*
X199500894Y-56637340D01*
X200199766Y-57336212D01*
X200157708Y-57347482D01*
X200032292Y-57419890D01*
X199929890Y-57522292D01*
X199857482Y-57647708D01*
X199846212Y-57689765D01*
X199147340Y-56990894D01*
X199087084Y-57073830D01*
X198979897Y-57284197D01*
X198906934Y-57508752D01*
X198870000Y-57741947D01*
X197370500Y-57741947D01*
X197370500Y-57741902D01*
X197333553Y-57508631D01*
X197260566Y-57284003D01*
X197198739Y-57162661D01*
X197153343Y-57073567D01*
X197014517Y-56882490D01*
X196847510Y-56715483D01*
X196656433Y-56576657D01*
X196445996Y-56469433D01*
X196221368Y-56396446D01*
X195988097Y-56359500D01*
X195988092Y-56359500D01*
X195751908Y-56359500D01*
X195751903Y-56359500D01*
X195518631Y-56396446D01*
X195294003Y-56469433D01*
X195083566Y-56576657D01*
X195036342Y-56610968D01*
X194892490Y-56715483D01*
X194892488Y-56715485D01*
X194892487Y-56715485D01*
X194725485Y-56882487D01*
X194725485Y-56882488D01*
X194725483Y-56882490D01*
X194672361Y-56955606D01*
X194586657Y-57073566D01*
X194479433Y-57284003D01*
X194406446Y-57508631D01*
X194369500Y-57741902D01*
X190344076Y-57741902D01*
X190342287Y-57738390D01*
X190334556Y-57727749D01*
X190221971Y-57572786D01*
X190077213Y-57428028D01*
X189911613Y-57307715D01*
X189911612Y-57307714D01*
X189911610Y-57307713D01*
X189826592Y-57264394D01*
X189729223Y-57214781D01*
X189534534Y-57151522D01*
X189359995Y-57123878D01*
X189332352Y-57119500D01*
X189127648Y-57119500D01*
X189103329Y-57123351D01*
X188925465Y-57151522D01*
X188730776Y-57214781D01*
X188548386Y-57307715D01*
X188382786Y-57428028D01*
X188238028Y-57572786D01*
X188117715Y-57738386D01*
X188024781Y-57920776D01*
X187961522Y-58115465D01*
X187929500Y-58317648D01*
X184640127Y-58317648D01*
X184649031Y-58314755D01*
X184831351Y-58221858D01*
X184831353Y-58221857D01*
X184844284Y-58212462D01*
X184844288Y-58212459D01*
X184875921Y-58189474D01*
X184196447Y-57510000D01*
X184202661Y-57510000D01*
X184304394Y-57482741D01*
X184395606Y-57430080D01*
X184470080Y-57355606D01*
X184522741Y-57264394D01*
X184550000Y-57162661D01*
X184550000Y-57156447D01*
X185229474Y-57835921D01*
X185261859Y-57791349D01*
X185354755Y-57609031D01*
X185417990Y-57414417D01*
X185450000Y-57212317D01*
X185450000Y-57007682D01*
X185417990Y-56805582D01*
X185354755Y-56610968D01*
X185261859Y-56428650D01*
X185229474Y-56384077D01*
X185229474Y-56384076D01*
X184550000Y-57063551D01*
X184550000Y-57057339D01*
X184522741Y-56955606D01*
X184470080Y-56864394D01*
X184395606Y-56789920D01*
X184304394Y-56737259D01*
X184202661Y-56710000D01*
X184196446Y-56710000D01*
X184875922Y-56030524D01*
X184875921Y-56030523D01*
X184831359Y-55998147D01*
X184831350Y-55998141D01*
X184649031Y-55905244D01*
X184454417Y-55842009D01*
X184252317Y-55810000D01*
X184047683Y-55810000D01*
X183845582Y-55842009D01*
X183650968Y-55905244D01*
X183468644Y-55998143D01*
X183424077Y-56030523D01*
X183424077Y-56030524D01*
X184103554Y-56710000D01*
X184097339Y-56710000D01*
X183995606Y-56737259D01*
X183904394Y-56789920D01*
X183829920Y-56864394D01*
X183777259Y-56955606D01*
X183750000Y-57057339D01*
X183750000Y-57063553D01*
X183070524Y-56384077D01*
X183070523Y-56384077D01*
X183038143Y-56428644D01*
X182945244Y-56610968D01*
X182882009Y-56805582D01*
X182850000Y-57007682D01*
X180364170Y-57007682D01*
X180338477Y-56845466D01*
X180275220Y-56650781D01*
X180275218Y-56650778D01*
X180275218Y-56650776D01*
X180237452Y-56576657D01*
X180182287Y-56468390D01*
X180174556Y-56457749D01*
X180061971Y-56302786D01*
X179917213Y-56158028D01*
X179751614Y-56037715D01*
X179673957Y-55998147D01*
X179658917Y-55990483D01*
X179608123Y-55942511D01*
X179591328Y-55874690D01*
X179613865Y-55808555D01*
X179658917Y-55769516D01*
X179751610Y-55722287D01*
X179772770Y-55706913D01*
X179917213Y-55601971D01*
X179917215Y-55601968D01*
X179917219Y-55601966D01*
X180061966Y-55457219D01*
X180061968Y-55457215D01*
X180061971Y-55457213D01*
X180114732Y-55384590D01*
X180182287Y-55291610D01*
X180275220Y-55109219D01*
X180338477Y-54914534D01*
X180370500Y-54712352D01*
X180370500Y-54507648D01*
X180338477Y-54305466D01*
X180275220Y-54110781D01*
X180275218Y-54110778D01*
X180275218Y-54110776D01*
X180241503Y-54044607D01*
X180182287Y-53928390D01*
X180174556Y-53917749D01*
X180061971Y-53762786D01*
X179917213Y-53618028D01*
X179751614Y-53497715D01*
X179745006Y-53494348D01*
X179658917Y-53450483D01*
X179608123Y-53402511D01*
X179591328Y-53334690D01*
X179613865Y-53268555D01*
X179658917Y-53229516D01*
X179751610Y-53182287D01*
X179772770Y-53166913D01*
X179917213Y-53061971D01*
X179917215Y-53061968D01*
X179917219Y-53061966D01*
X180061966Y-52917219D01*
X180061968Y-52917215D01*
X180061971Y-52917213D01*
X180153223Y-52791613D01*
X180182287Y-52751610D01*
X180275220Y-52569219D01*
X180338477Y-52374534D01*
X180370500Y-52172352D01*
X180370500Y-52007648D01*
X182849500Y-52007648D01*
X182849500Y-52212352D01*
X182853878Y-52239995D01*
X182881522Y-52414534D01*
X182944781Y-52609223D01*
X183008691Y-52734653D01*
X183017333Y-52751613D01*
X183037715Y-52791613D01*
X183158028Y-52957213D01*
X183302786Y-53101971D01*
X183413330Y-53182284D01*
X183468390Y-53222287D01*
X183559196Y-53268555D01*
X183650776Y-53315218D01*
X183650778Y-53315218D01*
X183650781Y-53315220D01*
X183743392Y-53345311D01*
X183845465Y-53378477D01*
X183946557Y-53394488D01*
X184047648Y-53410500D01*
X184047649Y-53410500D01*
X184252351Y-53410500D01*
X184252352Y-53410500D01*
X184454534Y-53378477D01*
X184649219Y-53315220D01*
X184831610Y-53222287D01*
X184924590Y-53154732D01*
X184997213Y-53101971D01*
X184997215Y-53101968D01*
X184997219Y-53101966D01*
X185141966Y-52957219D01*
X185141968Y-52957215D01*
X185141971Y-52957213D01*
X185239079Y-52823553D01*
X185262287Y-52791610D01*
X185355220Y-52609219D01*
X185418477Y-52414534D01*
X185450500Y-52212352D01*
X185450500Y-52007648D01*
X185418477Y-51805466D01*
X185355220Y-51610781D01*
X185355218Y-51610778D01*
X185355218Y-51610776D01*
X185321503Y-51544607D01*
X185262287Y-51428390D01*
X185233223Y-51388386D01*
X185141971Y-51262786D01*
X184997213Y-51118028D01*
X184831613Y-50997715D01*
X184831612Y-50997714D01*
X184831610Y-50997713D01*
X184753106Y-50957713D01*
X184649223Y-50904781D01*
X184454534Y-50841522D01*
X184288649Y-50815249D01*
X184252352Y-50809500D01*
X184047648Y-50809500D01*
X184023329Y-50813351D01*
X183845465Y-50841522D01*
X183650776Y-50904781D01*
X183468386Y-50997715D01*
X183302786Y-51118028D01*
X183158028Y-51262786D01*
X183037715Y-51428386D01*
X182944781Y-51610776D01*
X182881522Y-51805465D01*
X182855835Y-51967648D01*
X182849500Y-52007648D01*
X180370500Y-52007648D01*
X180370500Y-51967648D01*
X180355433Y-51872518D01*
X180338477Y-51765465D01*
X180275218Y-51570776D01*
X180241503Y-51504607D01*
X180182287Y-51388390D01*
X180161660Y-51359999D01*
X180061971Y-51222786D01*
X179917213Y-51078028D01*
X179751614Y-50957715D01*
X179677378Y-50919890D01*
X179658917Y-50910483D01*
X179608123Y-50862511D01*
X179591328Y-50794690D01*
X179613865Y-50728555D01*
X179649532Y-50697648D01*
X187929500Y-50697648D01*
X187929500Y-50902351D01*
X187961522Y-51104534D01*
X188024781Y-51299223D01*
X188070213Y-51388386D01*
X188115920Y-51478092D01*
X188117715Y-51481613D01*
X188238028Y-51647213D01*
X188382786Y-51791971D01*
X188493652Y-51872518D01*
X188548390Y-51912287D01*
X188657042Y-51967648D01*
X188730776Y-52005218D01*
X188730778Y-52005218D01*
X188730781Y-52005220D01*
X188835137Y-52039127D01*
X188925465Y-52068477D01*
X189026557Y-52084488D01*
X189127648Y-52100500D01*
X189127649Y-52100500D01*
X189332351Y-52100500D01*
X189332352Y-52100500D01*
X189534534Y-52068477D01*
X189729219Y-52005220D01*
X189911610Y-51912287D01*
X190058638Y-51805466D01*
X190077213Y-51791971D01*
X190077215Y-51791968D01*
X190077219Y-51791966D01*
X190221966Y-51647219D01*
X190221968Y-51647215D01*
X190221971Y-51647213D01*
X190277505Y-51570776D01*
X190342287Y-51481610D01*
X190435220Y-51299219D01*
X190453843Y-51241902D01*
X194369500Y-51241902D01*
X194369500Y-51478097D01*
X194406446Y-51711368D01*
X194479433Y-51935996D01*
X194546936Y-52068477D01*
X194586657Y-52146433D01*
X194725483Y-52337510D01*
X194892490Y-52504517D01*
X195083567Y-52643343D01*
X195182991Y-52694002D01*
X195294003Y-52750566D01*
X195294005Y-52750566D01*
X195294008Y-52750568D01*
X195414412Y-52789689D01*
X195518631Y-52823553D01*
X195751903Y-52860500D01*
X195751908Y-52860500D01*
X195988097Y-52860500D01*
X196221368Y-52823553D01*
X196222870Y-52823065D01*
X196445992Y-52750568D01*
X196656433Y-52643343D01*
X196847510Y-52504517D01*
X197014517Y-52337510D01*
X197153343Y-52146433D01*
X197260568Y-51935992D01*
X197333553Y-51711368D01*
X197343714Y-51647213D01*
X197370500Y-51478097D01*
X197370500Y-51241947D01*
X198870000Y-51241947D01*
X198870000Y-51478052D01*
X198906934Y-51711247D01*
X198979897Y-51935802D01*
X199087087Y-52146174D01*
X199147338Y-52229104D01*
X199147340Y-52229105D01*
X199846212Y-51530233D01*
X199857482Y-51572292D01*
X199929890Y-51697708D01*
X200032292Y-51800110D01*
X200157708Y-51872518D01*
X200199765Y-51883787D01*
X199500893Y-52582658D01*
X199583828Y-52642914D01*
X199794197Y-52750102D01*
X200018752Y-52823065D01*
X200018751Y-52823065D01*
X200251948Y-52860000D01*
X200488052Y-52860000D01*
X200721247Y-52823065D01*
X200945802Y-52750102D01*
X201156163Y-52642918D01*
X201156169Y-52642914D01*
X201239104Y-52582658D01*
X201239105Y-52582658D01*
X200540233Y-51883787D01*
X200582292Y-51872518D01*
X200707708Y-51800110D01*
X200810110Y-51697708D01*
X200882518Y-51572292D01*
X200893787Y-51530233D01*
X201592658Y-52229105D01*
X201592658Y-52229104D01*
X201652914Y-52146169D01*
X201652918Y-52146163D01*
X201760102Y-51935802D01*
X201833065Y-51711247D01*
X201870000Y-51478052D01*
X201870000Y-51241947D01*
X201833065Y-51008752D01*
X201760102Y-50784197D01*
X201652914Y-50573828D01*
X201592658Y-50490894D01*
X201592658Y-50490893D01*
X200893787Y-51189765D01*
X200882518Y-51147708D01*
X200810110Y-51022292D01*
X200707708Y-50919890D01*
X200582292Y-50847482D01*
X200540234Y-50836212D01*
X201239105Y-50137340D01*
X201239104Y-50137338D01*
X201156174Y-50077087D01*
X200945802Y-49969897D01*
X200721247Y-49896934D01*
X200721248Y-49896934D01*
X200488052Y-49860000D01*
X200251948Y-49860000D01*
X200018752Y-49896934D01*
X199794197Y-49969897D01*
X199583830Y-50077084D01*
X199500894Y-50137340D01*
X200199766Y-50836212D01*
X200157708Y-50847482D01*
X200032292Y-50919890D01*
X199929890Y-51022292D01*
X199857482Y-51147708D01*
X199846212Y-51189765D01*
X199147340Y-50490894D01*
X199087084Y-50573830D01*
X198979897Y-50784197D01*
X198906934Y-51008752D01*
X198870000Y-51241947D01*
X197370500Y-51241947D01*
X197370500Y-51241902D01*
X197333553Y-51008631D01*
X197268851Y-50809500D01*
X197260568Y-50784008D01*
X197260566Y-50784005D01*
X197260566Y-50784003D01*
X197204002Y-50672991D01*
X197153343Y-50573567D01*
X197014517Y-50382490D01*
X196847510Y-50215483D01*
X196656433Y-50076657D01*
X196445996Y-49969433D01*
X196221368Y-49896446D01*
X195988097Y-49859500D01*
X195988092Y-49859500D01*
X195751908Y-49859500D01*
X195751903Y-49859500D01*
X195518631Y-49896446D01*
X195294003Y-49969433D01*
X195083566Y-50076657D01*
X195000047Y-50137338D01*
X194892490Y-50215483D01*
X194892488Y-50215485D01*
X194892487Y-50215485D01*
X194725485Y-50382487D01*
X194725485Y-50382488D01*
X194725483Y-50382490D01*
X194665862Y-50464550D01*
X194586657Y-50573566D01*
X194479433Y-50784003D01*
X194406446Y-51008631D01*
X194369500Y-51241902D01*
X190453843Y-51241902D01*
X190498477Y-51104534D01*
X190530500Y-50902352D01*
X190530500Y-50697648D01*
X190498477Y-50495466D01*
X190496991Y-50490894D01*
X190435218Y-50300776D01*
X190391758Y-50215483D01*
X190342287Y-50118390D01*
X190312277Y-50077084D01*
X190221971Y-49952786D01*
X190077213Y-49808028D01*
X189911613Y-49687715D01*
X189911612Y-49687714D01*
X189911610Y-49687713D01*
X189854653Y-49658691D01*
X189729223Y-49594781D01*
X189534534Y-49531522D01*
X189359995Y-49503878D01*
X189332352Y-49499500D01*
X189127648Y-49499500D01*
X189103329Y-49503351D01*
X188925465Y-49531522D01*
X188730776Y-49594781D01*
X188548386Y-49687715D01*
X188382786Y-49808028D01*
X188238028Y-49952786D01*
X188117715Y-50118386D01*
X188024781Y-50300776D01*
X187961522Y-50495465D01*
X187929500Y-50697648D01*
X179649532Y-50697648D01*
X179658917Y-50689516D01*
X179751610Y-50642287D01*
X179845834Y-50573830D01*
X179917213Y-50521971D01*
X179917215Y-50521968D01*
X179917219Y-50521966D01*
X180061966Y-50377219D01*
X180061968Y-50377215D01*
X180061971Y-50377213D01*
X180117505Y-50300776D01*
X180182287Y-50211610D01*
X180275220Y-50029219D01*
X180338477Y-49834534D01*
X180370500Y-49632352D01*
X180370500Y-49427648D01*
X180338477Y-49225466D01*
X180275220Y-49030781D01*
X180275218Y-49030778D01*
X180275218Y-49030776D01*
X180241503Y-48964607D01*
X180182287Y-48848390D01*
X180174556Y-48837749D01*
X180061971Y-48682786D01*
X179917213Y-48538028D01*
X179751614Y-48417715D01*
X179745006Y-48414348D01*
X179658917Y-48370483D01*
X179608123Y-48322511D01*
X179591328Y-48254690D01*
X179613865Y-48188555D01*
X179658917Y-48149516D01*
X179751610Y-48102287D01*
X179772770Y-48086913D01*
X179917213Y-47981971D01*
X179917215Y-47981968D01*
X179917219Y-47981966D01*
X180061966Y-47837219D01*
X180061968Y-47837215D01*
X180061971Y-47837213D01*
X180114732Y-47764590D01*
X180182287Y-47671610D01*
X180275220Y-47489219D01*
X180338477Y-47294534D01*
X180370500Y-47092352D01*
X180370500Y-46887648D01*
X180338477Y-46685466D01*
X180275220Y-46490781D01*
X180275218Y-46490778D01*
X180275218Y-46490776D01*
X180241503Y-46424607D01*
X180182287Y-46308390D01*
X180174556Y-46297749D01*
X180061971Y-46142786D01*
X179917213Y-45998028D01*
X179751614Y-45877715D01*
X179745006Y-45874348D01*
X179658917Y-45830483D01*
X179608123Y-45782511D01*
X179591328Y-45714690D01*
X179613865Y-45648555D01*
X179658917Y-45609516D01*
X179751610Y-45562287D01*
X179772770Y-45546913D01*
X179917213Y-45441971D01*
X179917215Y-45441968D01*
X179917219Y-45441966D01*
X180061966Y-45297219D01*
X180061968Y-45297215D01*
X180061971Y-45297213D01*
X180114732Y-45224590D01*
X180182287Y-45131610D01*
X180275220Y-44949219D01*
X180338477Y-44754534D01*
X180370500Y-44552352D01*
X180370500Y-44347648D01*
X180369253Y-44339778D01*
X195449500Y-44339778D01*
X195449500Y-44560221D01*
X195483985Y-44777952D01*
X195552103Y-44987603D01*
X195552104Y-44987606D01*
X195620122Y-45121096D01*
X195625479Y-45131610D01*
X195652187Y-45184025D01*
X195781752Y-45362358D01*
X195781756Y-45362363D01*
X195937636Y-45518243D01*
X195937641Y-45518247D01*
X196063262Y-45609515D01*
X196115978Y-45647815D01*
X196232501Y-45707187D01*
X196312393Y-45747895D01*
X196312396Y-45747896D01*
X196417221Y-45781955D01*
X196522049Y-45816015D01*
X196739778Y-45850500D01*
X196739779Y-45850500D01*
X196960221Y-45850500D01*
X196960222Y-45850500D01*
X197177951Y-45816015D01*
X197387606Y-45747895D01*
X197584022Y-45647815D01*
X197762365Y-45518242D01*
X197812924Y-45467682D01*
X197874245Y-45434198D01*
X197943936Y-45439182D01*
X197999870Y-45481053D01*
X198016786Y-45512030D01*
X198046646Y-45592087D01*
X198046649Y-45592093D01*
X198132809Y-45707187D01*
X198132812Y-45707190D01*
X198247906Y-45793350D01*
X198247913Y-45793354D01*
X198382620Y-45843596D01*
X198382627Y-45843598D01*
X198442155Y-45849999D01*
X198442172Y-45850000D01*
X199140000Y-45850000D01*
X199140000Y-44825277D01*
X199216306Y-44869333D01*
X199330756Y-44900000D01*
X199449244Y-44900000D01*
X199563694Y-44869333D01*
X199640000Y-44825277D01*
X199640000Y-45850000D01*
X200337828Y-45850000D01*
X200337844Y-45849999D01*
X200397372Y-45843598D01*
X200397379Y-45843596D01*
X200532086Y-45793354D01*
X200532093Y-45793350D01*
X200647187Y-45707190D01*
X200647190Y-45707187D01*
X200733350Y-45592093D01*
X200733354Y-45592086D01*
X200783596Y-45457379D01*
X200783598Y-45457372D01*
X200789999Y-45397844D01*
X200790000Y-45397827D01*
X200790000Y-44700000D01*
X199765278Y-44700000D01*
X199809333Y-44623694D01*
X199840000Y-44509244D01*
X199840000Y-44390756D01*
X199809333Y-44276306D01*
X199765278Y-44200000D01*
X200790000Y-44200000D01*
X200790000Y-43502172D01*
X200789999Y-43502155D01*
X200783598Y-43442627D01*
X200783596Y-43442620D01*
X200733354Y-43307913D01*
X200733350Y-43307906D01*
X200647190Y-43192812D01*
X200647187Y-43192809D01*
X200532093Y-43106649D01*
X200532086Y-43106645D01*
X200397379Y-43056403D01*
X200397372Y-43056401D01*
X200337844Y-43050000D01*
X199640000Y-43050000D01*
X199640000Y-44074722D01*
X199563694Y-44030667D01*
X199449244Y-44000000D01*
X199330756Y-44000000D01*
X199216306Y-44030667D01*
X199140000Y-44074722D01*
X199140000Y-43050000D01*
X198442155Y-43050000D01*
X198382627Y-43056401D01*
X198382620Y-43056403D01*
X198247913Y-43106645D01*
X198247906Y-43106649D01*
X198132812Y-43192809D01*
X198132809Y-43192812D01*
X198046649Y-43307906D01*
X198046643Y-43307918D01*
X198016785Y-43387969D01*
X197974914Y-43443903D01*
X197909449Y-43468319D01*
X197841176Y-43453467D01*
X197812923Y-43432316D01*
X197762363Y-43381756D01*
X197762358Y-43381752D01*
X197584025Y-43252187D01*
X197584024Y-43252186D01*
X197584022Y-43252185D01*
X197521096Y-43220122D01*
X197387606Y-43152104D01*
X197387603Y-43152103D01*
X197177952Y-43083985D01*
X197069086Y-43066742D01*
X196960222Y-43049500D01*
X196739778Y-43049500D01*
X196667201Y-43060995D01*
X196522047Y-43083985D01*
X196312396Y-43152103D01*
X196312393Y-43152104D01*
X196115974Y-43252187D01*
X195937641Y-43381752D01*
X195937636Y-43381756D01*
X195781756Y-43537636D01*
X195781752Y-43537641D01*
X195652187Y-43715974D01*
X195552104Y-43912393D01*
X195552103Y-43912396D01*
X195483985Y-44122047D01*
X195449500Y-44339778D01*
X180369253Y-44339778D01*
X180338477Y-44145466D01*
X180330868Y-44122049D01*
X180304371Y-44040500D01*
X180275220Y-43950781D01*
X180275218Y-43950778D01*
X180275218Y-43950776D01*
X180241503Y-43884607D01*
X180182287Y-43768390D01*
X180144205Y-43715974D01*
X180061971Y-43602786D01*
X179917213Y-43458028D01*
X179751613Y-43337715D01*
X179751612Y-43337714D01*
X179751610Y-43337713D01*
X179693111Y-43307906D01*
X179569223Y-43244781D01*
X179374534Y-43181522D01*
X179188799Y-43152105D01*
X179172352Y-43149500D01*
X178967648Y-43149500D01*
X178951201Y-43152105D01*
X178765465Y-43181522D01*
X178570776Y-43244781D01*
X178388386Y-43337715D01*
X178222786Y-43458028D01*
X178078028Y-43602786D01*
X177957715Y-43768386D01*
X177864781Y-43950776D01*
X177801522Y-44145465D01*
X177769500Y-44347648D01*
X165130500Y-44347648D01*
X165130499Y-44347644D01*
X165098477Y-44145465D01*
X165064371Y-44040500D01*
X165035220Y-43950781D01*
X165035218Y-43950778D01*
X165035218Y-43950776D01*
X165001503Y-43884607D01*
X164942287Y-43768390D01*
X164904205Y-43715974D01*
X164821971Y-43602786D01*
X164677213Y-43458028D01*
X164511613Y-43337715D01*
X164511612Y-43337714D01*
X164511610Y-43337713D01*
X164453111Y-43307906D01*
X164329223Y-43244781D01*
X164134534Y-43181522D01*
X163948799Y-43152105D01*
X163932352Y-43149500D01*
X163727648Y-43149500D01*
X163711201Y-43152105D01*
X163525465Y-43181522D01*
X163330776Y-43244781D01*
X163148386Y-43337715D01*
X162982786Y-43458028D01*
X162838028Y-43602786D01*
X162717715Y-43768386D01*
X162624781Y-43950776D01*
X162561522Y-44145465D01*
X162529500Y-44347648D01*
X162529500Y-44552351D01*
X162561522Y-44754534D01*
X162624781Y-44949223D01*
X162717715Y-45131613D01*
X162838028Y-45297213D01*
X162982786Y-45441971D01*
X163137749Y-45554556D01*
X163148390Y-45562287D01*
X163239840Y-45608883D01*
X163241080Y-45609515D01*
X163291876Y-45657490D01*
X163308671Y-45725311D01*
X163286134Y-45791446D01*
X163241080Y-45830485D01*
X163148386Y-45877715D01*
X162982786Y-45998028D01*
X162838028Y-46142786D01*
X162717715Y-46308386D01*
X162624781Y-46490776D01*
X162561522Y-46685465D01*
X162529500Y-46887648D01*
X162529500Y-47092351D01*
X162561522Y-47294534D01*
X162624781Y-47489223D01*
X162717715Y-47671613D01*
X162838028Y-47837213D01*
X162982786Y-47981971D01*
X163137749Y-48094556D01*
X163148390Y-48102287D01*
X163239840Y-48148883D01*
X163241080Y-48149515D01*
X163291876Y-48197490D01*
X163308671Y-48265311D01*
X163286134Y-48331446D01*
X163241080Y-48370485D01*
X163148386Y-48417715D01*
X162982786Y-48538028D01*
X162838028Y-48682786D01*
X162717715Y-48848386D01*
X162624781Y-49030776D01*
X162561522Y-49225465D01*
X162529500Y-49427648D01*
X162529500Y-49632351D01*
X162561522Y-49834534D01*
X162624781Y-50029223D01*
X162717715Y-50211613D01*
X162838028Y-50377213D01*
X162982786Y-50521971D01*
X163137749Y-50634556D01*
X163148390Y-50642287D01*
X163239840Y-50688883D01*
X163241080Y-50689515D01*
X163291876Y-50737490D01*
X163308671Y-50805311D01*
X163286134Y-50871446D01*
X163241080Y-50910485D01*
X163148386Y-50957715D01*
X162982786Y-51078028D01*
X162838028Y-51222786D01*
X162717715Y-51388386D01*
X162624781Y-51570776D01*
X162561522Y-51765465D01*
X162529500Y-51967648D01*
X162529500Y-52172351D01*
X162561522Y-52374534D01*
X162624781Y-52569223D01*
X162662548Y-52643343D01*
X162717182Y-52750568D01*
X162717715Y-52751613D01*
X162838028Y-52917213D01*
X162982786Y-53061971D01*
X163137749Y-53174556D01*
X163148390Y-53182287D01*
X163239840Y-53228883D01*
X163241080Y-53229515D01*
X163291876Y-53277490D01*
X163308671Y-53345311D01*
X163286134Y-53411446D01*
X163241080Y-53450485D01*
X163148386Y-53497715D01*
X162982786Y-53618028D01*
X162838028Y-53762786D01*
X162717715Y-53928386D01*
X162624781Y-54110776D01*
X162561522Y-54305465D01*
X162529500Y-54507648D01*
X162529500Y-54712351D01*
X162561522Y-54914534D01*
X162624781Y-55109223D01*
X162717715Y-55291613D01*
X162838028Y-55457213D01*
X162982786Y-55601971D01*
X163137749Y-55714556D01*
X163148390Y-55722287D01*
X163239840Y-55768883D01*
X163241080Y-55769515D01*
X163291876Y-55817490D01*
X163308671Y-55885311D01*
X163286134Y-55951446D01*
X163241080Y-55990485D01*
X163148386Y-56037715D01*
X162982786Y-56158028D01*
X162838028Y-56302786D01*
X162717715Y-56468386D01*
X162624781Y-56650776D01*
X162561522Y-56845465D01*
X162529500Y-57047648D01*
X162529500Y-57252351D01*
X162561522Y-57454534D01*
X162624781Y-57649223D01*
X162670213Y-57738386D01*
X162697199Y-57791350D01*
X162717715Y-57831613D01*
X162838028Y-57997213D01*
X162982786Y-58141971D01*
X163092745Y-58221859D01*
X163148390Y-58262287D01*
X163222622Y-58300110D01*
X163241080Y-58309515D01*
X163291876Y-58357490D01*
X163308671Y-58425311D01*
X163286134Y-58491446D01*
X163241080Y-58530485D01*
X163148386Y-58577715D01*
X162982786Y-58698028D01*
X162838028Y-58842786D01*
X162717715Y-59008386D01*
X162624781Y-59190776D01*
X162561522Y-59385465D01*
X162529500Y-59587648D01*
X162529500Y-59792351D01*
X162561522Y-59994534D01*
X162624781Y-60189223D01*
X162688691Y-60314653D01*
X162717709Y-60371603D01*
X162717715Y-60371613D01*
X162838028Y-60537213D01*
X162982786Y-60681971D01*
X163137749Y-60794556D01*
X163148390Y-60802287D01*
X163239840Y-60848883D01*
X163241080Y-60849515D01*
X163291876Y-60897490D01*
X163308671Y-60965311D01*
X163286134Y-61031446D01*
X163241080Y-61070485D01*
X163148386Y-61117715D01*
X162982786Y-61238028D01*
X162838028Y-61382786D01*
X162717715Y-61548386D01*
X162624781Y-61730776D01*
X162561522Y-61925465D01*
X162529500Y-62127648D01*
X162529500Y-62332351D01*
X162561522Y-62534531D01*
X162578831Y-62587804D01*
X162580825Y-62657646D01*
X162548580Y-62713802D01*
X152202703Y-73059681D01*
X152141380Y-73093166D01*
X152115022Y-73096000D01*
X149795552Y-73096000D01*
X149728513Y-73076315D01*
X149685067Y-73028295D01*
X149669786Y-72998305D01*
X149669085Y-72997340D01*
X149552981Y-72837536D01*
X149412464Y-72697019D01*
X149288310Y-72606816D01*
X149245646Y-72551487D01*
X149239667Y-72481874D01*
X149272273Y-72420079D01*
X149333112Y-72385721D01*
X149361196Y-72382499D01*
X149399872Y-72382499D01*
X149459483Y-72376091D01*
X149594331Y-72325796D01*
X149709546Y-72239546D01*
X149795796Y-72124331D01*
X149846091Y-71989483D01*
X149852500Y-71929873D01*
X149852499Y-70310128D01*
X149846091Y-70250517D01*
X149830159Y-70207802D01*
X149795797Y-70115671D01*
X149795793Y-70115664D01*
X149709547Y-70000455D01*
X149709544Y-70000452D01*
X149594335Y-69914206D01*
X149594328Y-69914202D01*
X149459482Y-69863908D01*
X149459483Y-69863908D01*
X149399883Y-69857501D01*
X149399881Y-69857500D01*
X149399873Y-69857500D01*
X149399864Y-69857500D01*
X147780129Y-69857500D01*
X147780123Y-69857501D01*
X147720516Y-69863908D01*
X147585671Y-69914202D01*
X147585664Y-69914206D01*
X147470455Y-70000452D01*
X147470452Y-70000455D01*
X147384206Y-70115664D01*
X147384202Y-70115671D01*
X147333908Y-70250517D01*
X147330731Y-70280071D01*
X147327501Y-70310123D01*
X147327500Y-70310135D01*
X131500500Y-70310135D01*
X131500500Y-42637648D01*
X182619500Y-42637648D01*
X182619500Y-42842351D01*
X182651522Y-43044534D01*
X182714781Y-43239223D01*
X182764965Y-43337713D01*
X182787407Y-43381758D01*
X182807715Y-43421613D01*
X182928028Y-43587213D01*
X183072786Y-43731971D01*
X183227749Y-43844556D01*
X183238390Y-43852287D01*
X183354607Y-43911503D01*
X183420776Y-43945218D01*
X183420778Y-43945218D01*
X183420781Y-43945220D01*
X183525137Y-43979127D01*
X183615465Y-44008477D01*
X183716557Y-44024488D01*
X183817648Y-44040500D01*
X183817649Y-44040500D01*
X184022351Y-44040500D01*
X184022352Y-44040500D01*
X184224534Y-44008477D01*
X184419219Y-43945220D01*
X184601610Y-43852287D01*
X184694590Y-43784732D01*
X184767213Y-43731971D01*
X184767215Y-43731968D01*
X184767219Y-43731966D01*
X184911966Y-43587219D01*
X184911968Y-43587215D01*
X184911971Y-43587213D01*
X184998351Y-43468319D01*
X185032287Y-43421610D01*
X185125220Y-43239219D01*
X185188477Y-43044534D01*
X185220500Y-42842352D01*
X185220500Y-42637648D01*
X190239500Y-42637648D01*
X190239500Y-42842351D01*
X190271522Y-43044534D01*
X190334781Y-43239223D01*
X190384965Y-43337713D01*
X190407407Y-43381758D01*
X190427715Y-43421613D01*
X190548028Y-43587213D01*
X190692786Y-43731971D01*
X190847749Y-43844556D01*
X190858390Y-43852287D01*
X190974607Y-43911503D01*
X191040776Y-43945218D01*
X191040778Y-43945218D01*
X191040781Y-43945220D01*
X191145137Y-43979127D01*
X191235465Y-44008477D01*
X191336557Y-44024488D01*
X191437648Y-44040500D01*
X191437649Y-44040500D01*
X191642351Y-44040500D01*
X191642352Y-44040500D01*
X191844534Y-44008477D01*
X192039219Y-43945220D01*
X192221610Y-43852287D01*
X192314590Y-43784732D01*
X192387213Y-43731971D01*
X192387215Y-43731968D01*
X192387219Y-43731966D01*
X192531966Y-43587219D01*
X192531968Y-43587215D01*
X192531971Y-43587213D01*
X192618351Y-43468319D01*
X192652287Y-43421610D01*
X192745220Y-43239219D01*
X192808477Y-43044534D01*
X192840500Y-42842352D01*
X192840500Y-42637648D01*
X192808477Y-42435466D01*
X192745220Y-42240781D01*
X192745218Y-42240778D01*
X192745218Y-42240776D01*
X192711503Y-42174607D01*
X192652287Y-42058390D01*
X192644556Y-42047749D01*
X192531971Y-41892786D01*
X192387213Y-41748028D01*
X192221613Y-41627715D01*
X192221612Y-41627714D01*
X192221610Y-41627713D01*
X192164653Y-41598691D01*
X192039223Y-41534781D01*
X191844534Y-41471522D01*
X191669995Y-41443878D01*
X191642352Y-41439500D01*
X191437648Y-41439500D01*
X191413329Y-41443351D01*
X191235465Y-41471522D01*
X191040776Y-41534781D01*
X190858386Y-41627715D01*
X190692786Y-41748028D01*
X190548028Y-41892786D01*
X190427715Y-42058386D01*
X190334781Y-42240776D01*
X190271522Y-42435465D01*
X190239500Y-42637648D01*
X185220500Y-42637648D01*
X185188477Y-42435466D01*
X185125220Y-42240781D01*
X185125218Y-42240778D01*
X185125218Y-42240776D01*
X185091503Y-42174607D01*
X185032287Y-42058390D01*
X185024556Y-42047749D01*
X184911971Y-41892786D01*
X184767213Y-41748028D01*
X184601613Y-41627715D01*
X184601612Y-41627714D01*
X184601610Y-41627713D01*
X184544653Y-41598691D01*
X184419223Y-41534781D01*
X184224534Y-41471522D01*
X184049995Y-41443878D01*
X184022352Y-41439500D01*
X183817648Y-41439500D01*
X183793329Y-41443351D01*
X183615465Y-41471522D01*
X183420776Y-41534781D01*
X183238386Y-41627715D01*
X183072786Y-41748028D01*
X182928028Y-41892786D01*
X182807715Y-42058386D01*
X182714781Y-42240776D01*
X182651522Y-42435465D01*
X182619500Y-42637648D01*
X131500500Y-42637648D01*
X131500500Y-39830155D01*
X142248000Y-39830155D01*
X142248000Y-40390000D01*
X143221184Y-40390000D01*
X143205124Y-40406060D01*
X143154964Y-40492939D01*
X143129000Y-40589840D01*
X143129000Y-40690160D01*
X143154964Y-40787061D01*
X143205124Y-40873940D01*
X143221184Y-40890000D01*
X142248000Y-40890000D01*
X142248000Y-41449844D01*
X142254401Y-41509372D01*
X142254403Y-41509379D01*
X142304645Y-41644086D01*
X142304649Y-41644093D01*
X142390809Y-41759187D01*
X142390812Y-41759190D01*
X142505906Y-41845350D01*
X142505913Y-41845354D01*
X142640620Y-41895596D01*
X142640627Y-41895598D01*
X142700155Y-41901999D01*
X142700172Y-41902000D01*
X143260000Y-41902000D01*
X143260000Y-40928816D01*
X143276060Y-40944876D01*
X143362939Y-40995036D01*
X143459840Y-41021000D01*
X143560160Y-41021000D01*
X143657061Y-40995036D01*
X143743940Y-40944876D01*
X143760000Y-40928816D01*
X143760000Y-41902000D01*
X144319828Y-41902000D01*
X144319844Y-41901999D01*
X144379372Y-41895598D01*
X144379379Y-41895596D01*
X144514086Y-41845354D01*
X144514093Y-41845350D01*
X144629187Y-41759190D01*
X144629190Y-41759187D01*
X144715350Y-41644093D01*
X144715354Y-41644086D01*
X144765596Y-41509379D01*
X144765598Y-41509372D01*
X144771999Y-41449844D01*
X144772000Y-41449827D01*
X144772000Y-41410510D01*
X144791685Y-41343471D01*
X144844489Y-41297716D01*
X144913647Y-41287772D01*
X144977203Y-41316797D01*
X144996318Y-41337625D01*
X145049272Y-41410510D01*
X145087019Y-41462464D01*
X145227536Y-41602981D01*
X145388306Y-41719787D01*
X145475149Y-41764035D01*
X145565367Y-41810005D01*
X145565370Y-41810006D01*
X145659866Y-41840709D01*
X145754364Y-41871413D01*
X145950639Y-41902500D01*
X145950640Y-41902500D01*
X146149360Y-41902500D01*
X146149361Y-41902500D01*
X146345636Y-41871413D01*
X146534632Y-41810005D01*
X146711694Y-41719787D01*
X146872464Y-41602981D01*
X147012981Y-41462464D01*
X147129787Y-41301694D01*
X147209515Y-41145218D01*
X147257490Y-41094423D01*
X147325311Y-41077628D01*
X147391446Y-41100165D01*
X147430484Y-41145218D01*
X147510213Y-41301694D01*
X147627019Y-41462464D01*
X147767536Y-41602981D01*
X147928306Y-41719787D01*
X148015149Y-41764035D01*
X148105367Y-41810005D01*
X148105370Y-41810006D01*
X148199866Y-41840709D01*
X148294364Y-41871413D01*
X148490639Y-41902500D01*
X148490640Y-41902500D01*
X148689360Y-41902500D01*
X148689361Y-41902500D01*
X148885636Y-41871413D01*
X149074632Y-41810005D01*
X149251694Y-41719787D01*
X149412464Y-41602981D01*
X149552981Y-41462464D01*
X149669787Y-41301694D01*
X149749515Y-41145218D01*
X149797490Y-41094423D01*
X149865311Y-41077628D01*
X149931446Y-41100165D01*
X149970484Y-41145218D01*
X150050213Y-41301694D01*
X150167019Y-41462464D01*
X150307536Y-41602981D01*
X150468306Y-41719787D01*
X150555149Y-41764035D01*
X150645367Y-41810005D01*
X150645370Y-41810006D01*
X150739866Y-41840709D01*
X150834364Y-41871413D01*
X151030639Y-41902500D01*
X151030640Y-41902500D01*
X151229360Y-41902500D01*
X151229361Y-41902500D01*
X151425636Y-41871413D01*
X151614632Y-41810005D01*
X151791694Y-41719787D01*
X151952464Y-41602981D01*
X152092981Y-41462464D01*
X152209787Y-41301694D01*
X152300005Y-41124632D01*
X152361413Y-40935636D01*
X152392500Y-40739361D01*
X152392500Y-40540639D01*
X152361413Y-40344364D01*
X152300005Y-40155368D01*
X152300005Y-40155367D01*
X152254035Y-40065149D01*
X152209787Y-39978306D01*
X152092981Y-39817536D01*
X151952464Y-39677019D01*
X151791694Y-39560213D01*
X151714360Y-39520809D01*
X151614632Y-39469994D01*
X151614629Y-39469993D01*
X151425637Y-39408587D01*
X151327498Y-39393043D01*
X151229361Y-39377500D01*
X151030639Y-39377500D01*
X150965214Y-39387862D01*
X150834362Y-39408587D01*
X150645370Y-39469993D01*
X150645367Y-39469994D01*
X150468305Y-39560213D01*
X150307533Y-39677021D01*
X150167021Y-39817533D01*
X150050213Y-39978305D01*
X149970485Y-40134780D01*
X149922510Y-40185576D01*
X149854689Y-40202371D01*
X149788554Y-40179833D01*
X149749515Y-40134780D01*
X149730179Y-40096832D01*
X149669787Y-39978306D01*
X149552981Y-39817536D01*
X149412464Y-39677019D01*
X149251694Y-39560213D01*
X149174360Y-39520809D01*
X149074632Y-39469994D01*
X149074629Y-39469993D01*
X148885637Y-39408587D01*
X148787498Y-39393043D01*
X148689361Y-39377500D01*
X148490639Y-39377500D01*
X148425214Y-39387862D01*
X148294362Y-39408587D01*
X148105370Y-39469993D01*
X148105367Y-39469994D01*
X147928305Y-39560213D01*
X147767533Y-39677021D01*
X147627021Y-39817533D01*
X147510213Y-39978305D01*
X147430485Y-40134780D01*
X147382510Y-40185576D01*
X147314689Y-40202371D01*
X147248554Y-40179833D01*
X147209515Y-40134780D01*
X147190179Y-40096832D01*
X147129787Y-39978306D01*
X147012981Y-39817536D01*
X146872464Y-39677019D01*
X146711694Y-39560213D01*
X146634360Y-39520809D01*
X146534632Y-39469994D01*
X146534629Y-39469993D01*
X146345637Y-39408587D01*
X146247498Y-39393043D01*
X146149361Y-39377500D01*
X145950639Y-39377500D01*
X145885214Y-39387862D01*
X145754362Y-39408587D01*
X145565370Y-39469993D01*
X145565367Y-39469994D01*
X145388305Y-39560213D01*
X145227533Y-39677021D01*
X145087021Y-39817533D01*
X145087021Y-39817534D01*
X145087019Y-39817536D01*
X145049273Y-39869489D01*
X144996318Y-39942375D01*
X144940988Y-39985040D01*
X144871374Y-39991019D01*
X144809579Y-39958413D01*
X144775222Y-39897574D01*
X144772000Y-39869489D01*
X144772000Y-39830172D01*
X144771999Y-39830155D01*
X144765598Y-39770627D01*
X144765596Y-39770620D01*
X144715354Y-39635913D01*
X144715350Y-39635906D01*
X144629190Y-39520812D01*
X144629187Y-39520809D01*
X144514093Y-39434649D01*
X144514086Y-39434645D01*
X144379379Y-39384403D01*
X144379372Y-39384401D01*
X144319844Y-39378000D01*
X143760000Y-39378000D01*
X143760000Y-40351184D01*
X143743940Y-40335124D01*
X143657061Y-40284964D01*
X143560160Y-40259000D01*
X143459840Y-40259000D01*
X143362939Y-40284964D01*
X143276060Y-40335124D01*
X143260000Y-40351184D01*
X143260000Y-39378000D01*
X142700155Y-39378000D01*
X142640627Y-39384401D01*
X142640620Y-39384403D01*
X142505913Y-39434645D01*
X142505906Y-39434649D01*
X142390812Y-39520809D01*
X142390809Y-39520812D01*
X142304649Y-39635906D01*
X142304645Y-39635913D01*
X142254403Y-39770620D01*
X142254401Y-39770627D01*
X142248000Y-39830155D01*
X131500500Y-39830155D01*
X131500500Y-36624500D01*
X131520185Y-36557461D01*
X131572989Y-36511706D01*
X131624500Y-36500500D01*
X203375500Y-36500500D01*
X203442539Y-36520185D01*
G37*
%TD.AperFunction*%
%TD*%
M02*
