M48
; DRILL file KiCad 10.0.0 date 2026-04-02T11:01:58
; FORMAT={-:-/ absolute / metric / decimal}
; #@! TF.CreationDate,2026-04-02T11:01:58-07:00
; #@! TF.GenerationSoftware,Kicad,Pcbnew,10.0.0
; #@! TF.FileFunction,Plated,1,2,PTH
FMAT,2
METRIC
; #@! TA.AperFunction,Plated,PTH,ComponentDrill
T1C0.762
; #@! TA.AperFunction,Plated,PTH,ComponentDrill
T2C0.800
; #@! TA.AperFunction,Plated,PTH,ComponentDrill
T3C0.900
; #@! TA.AperFunction,Plated,PTH,ComponentDrill
T4C1.000
; #@! TA.AperFunction,Plated,PTH,ComponentDrill
T5C1.100
%
G90
G05
T1
X143.51Y-40.64
X146.05Y-40.64
X148.59Y-40.64
X148.59Y-71.12
X148.59Y-73.66
X148.59Y-76.2
X148.59Y-78.74
X148.59Y-81.28
X151.13Y-40.64
T2
X183.92Y-42.74
X184.048Y-74.066
X184.048Y-79.066
X184.15Y-52.11
X184.15Y-57.11
X184.15Y-63.5
X184.15Y-68.5
X189.23Y-50.8
X189.23Y-58.42
X189.23Y-62.23
X189.23Y-69.85
X189.23Y-73.66
X189.23Y-81.28
X191.54Y-42.74
T3
X196.85Y-44.45
X199.39Y-44.45
T4
X163.83Y-44.45
X163.83Y-46.99
X163.83Y-49.53
X163.83Y-52.07
X163.83Y-54.61
X163.83Y-57.15
X163.83Y-59.69
X163.83Y-62.23
X163.83Y-64.77
X163.83Y-67.31
X163.83Y-69.85
X163.83Y-72.39
X163.83Y-74.93
X163.83Y-77.47
X163.83Y-80.01
X179.07Y-44.45
X179.07Y-46.99
X179.07Y-49.53
X179.07Y-52.07
X179.07Y-54.61
X179.07Y-57.15
X179.07Y-59.69
X179.07Y-62.23
X179.07Y-64.77
X179.07Y-67.31
X179.07Y-69.85
X179.07Y-72.39
X179.07Y-74.93
X179.07Y-77.47
X179.07Y-80.01
T5
X195.87Y-51.36
X195.87Y-57.86
X195.87Y-62.79
X195.87Y-69.29
X195.87Y-74.22
X195.87Y-80.72
X200.37Y-51.36
X200.37Y-57.86
X200.37Y-62.79
X200.37Y-69.29
X200.37Y-74.22
X200.37Y-80.72
M30
