%TF.GenerationSoftware,KiCad,Pcbnew,10.0.0*%
%TF.CreationDate,2026-04-02T11:02:04-07:00*%
%TF.ProjectId,SPO2_Sensor,53504f32-5f53-4656-9e73-6f722e6b6963,rev?*%
%TF.SameCoordinates,Original*%
%TF.FileFunction,Legend,Top*%
%TF.FilePolarity,Positive*%
%FSLAX46Y46*%
G04 Gerber Fmt 4.6, Leading zero omitted, Abs format (unit mm)*
G04 Created by KiCad (PCBNEW 10.0.0) date 2026-04-02 11:02:04*
%MOMM*%
%LPD*%
G01*
G04 APERTURE LIST*
%ADD10C,0.150000*%
%ADD11C,0.200000*%
%ADD12C,0.400000*%
%ADD13C,0.100000*%
%ADD14C,0.120000*%
G04 APERTURE END LIST*
D10*
X136512493Y-48704619D02*
X136512493Y-49418904D01*
X136512493Y-49418904D02*
X136464874Y-49561761D01*
X136464874Y-49561761D02*
X136369636Y-49657000D01*
X136369636Y-49657000D02*
X136226779Y-49704619D01*
X136226779Y-49704619D02*
X136131541Y-49704619D01*
X137464874Y-49704619D02*
X136988684Y-49704619D01*
X136988684Y-49704619D02*
X136988684Y-48704619D01*
X138369636Y-49609380D02*
X138322017Y-49657000D01*
X138322017Y-49657000D02*
X138179160Y-49704619D01*
X138179160Y-49704619D02*
X138083922Y-49704619D01*
X138083922Y-49704619D02*
X137941065Y-49657000D01*
X137941065Y-49657000D02*
X137845827Y-49561761D01*
X137845827Y-49561761D02*
X137798208Y-49466523D01*
X137798208Y-49466523D02*
X137750589Y-49276047D01*
X137750589Y-49276047D02*
X137750589Y-49133190D01*
X137750589Y-49133190D02*
X137798208Y-48942714D01*
X137798208Y-48942714D02*
X137845827Y-48847476D01*
X137845827Y-48847476D02*
X137941065Y-48752238D01*
X137941065Y-48752238D02*
X138083922Y-48704619D01*
X138083922Y-48704619D02*
X138179160Y-48704619D01*
X138179160Y-48704619D02*
X138322017Y-48752238D01*
X138322017Y-48752238D02*
X138369636Y-48799857D01*
X139083922Y-48704619D02*
X139083922Y-49418904D01*
X139083922Y-49418904D02*
X139036303Y-49561761D01*
X139036303Y-49561761D02*
X138941065Y-49657000D01*
X138941065Y-49657000D02*
X138798208Y-49704619D01*
X138798208Y-49704619D02*
X138702970Y-49704619D01*
X140036303Y-49704619D02*
X139560113Y-49704619D01*
X139560113Y-49704619D02*
X139560113Y-48704619D01*
X140941065Y-49609380D02*
X140893446Y-49657000D01*
X140893446Y-49657000D02*
X140750589Y-49704619D01*
X140750589Y-49704619D02*
X140655351Y-49704619D01*
X140655351Y-49704619D02*
X140512494Y-49657000D01*
X140512494Y-49657000D02*
X140417256Y-49561761D01*
X140417256Y-49561761D02*
X140369637Y-49466523D01*
X140369637Y-49466523D02*
X140322018Y-49276047D01*
X140322018Y-49276047D02*
X140322018Y-49133190D01*
X140322018Y-49133190D02*
X140369637Y-48942714D01*
X140369637Y-48942714D02*
X140417256Y-48847476D01*
X140417256Y-48847476D02*
X140512494Y-48752238D01*
X140512494Y-48752238D02*
X140655351Y-48704619D01*
X140655351Y-48704619D02*
X140750589Y-48704619D01*
X140750589Y-48704619D02*
X140893446Y-48752238D01*
X140893446Y-48752238D02*
X140941065Y-48799857D01*
X141655351Y-48704619D02*
X141655351Y-49418904D01*
X141655351Y-49418904D02*
X141607732Y-49561761D01*
X141607732Y-49561761D02*
X141512494Y-49657000D01*
X141512494Y-49657000D02*
X141369637Y-49704619D01*
X141369637Y-49704619D02*
X141274399Y-49704619D01*
X142607732Y-49704619D02*
X142131542Y-49704619D01*
X142131542Y-49704619D02*
X142131542Y-48704619D01*
X143512494Y-49609380D02*
X143464875Y-49657000D01*
X143464875Y-49657000D02*
X143322018Y-49704619D01*
X143322018Y-49704619D02*
X143226780Y-49704619D01*
X143226780Y-49704619D02*
X143083923Y-49657000D01*
X143083923Y-49657000D02*
X142988685Y-49561761D01*
X142988685Y-49561761D02*
X142941066Y-49466523D01*
X142941066Y-49466523D02*
X142893447Y-49276047D01*
X142893447Y-49276047D02*
X142893447Y-49133190D01*
X142893447Y-49133190D02*
X142941066Y-48942714D01*
X142941066Y-48942714D02*
X142988685Y-48847476D01*
X142988685Y-48847476D02*
X143083923Y-48752238D01*
X143083923Y-48752238D02*
X143226780Y-48704619D01*
X143226780Y-48704619D02*
X143322018Y-48704619D01*
X143322018Y-48704619D02*
X143464875Y-48752238D01*
X143464875Y-48752238D02*
X143512494Y-48799857D01*
X144226780Y-48704619D02*
X144226780Y-49418904D01*
X144226780Y-49418904D02*
X144179161Y-49561761D01*
X144179161Y-49561761D02*
X144083923Y-49657000D01*
X144083923Y-49657000D02*
X143941066Y-49704619D01*
X143941066Y-49704619D02*
X143845828Y-49704619D01*
X145179161Y-49704619D02*
X144702971Y-49704619D01*
X144702971Y-49704619D02*
X144702971Y-48704619D01*
X146083923Y-49609380D02*
X146036304Y-49657000D01*
X146036304Y-49657000D02*
X145893447Y-49704619D01*
X145893447Y-49704619D02*
X145798209Y-49704619D01*
X145798209Y-49704619D02*
X145655352Y-49657000D01*
X145655352Y-49657000D02*
X145560114Y-49561761D01*
X145560114Y-49561761D02*
X145512495Y-49466523D01*
X145512495Y-49466523D02*
X145464876Y-49276047D01*
X145464876Y-49276047D02*
X145464876Y-49133190D01*
X145464876Y-49133190D02*
X145512495Y-48942714D01*
X145512495Y-48942714D02*
X145560114Y-48847476D01*
X145560114Y-48847476D02*
X145655352Y-48752238D01*
X145655352Y-48752238D02*
X145798209Y-48704619D01*
X145798209Y-48704619D02*
X145893447Y-48704619D01*
X145893447Y-48704619D02*
X146036304Y-48752238D01*
X146036304Y-48752238D02*
X146083923Y-48799857D01*
D11*
X155970073Y-82610722D02*
X156731978Y-82610722D01*
X158303406Y-82467865D02*
X158446263Y-82515484D01*
X158446263Y-82515484D02*
X158493882Y-82563103D01*
X158493882Y-82563103D02*
X158541501Y-82658341D01*
X158541501Y-82658341D02*
X158541501Y-82801198D01*
X158541501Y-82801198D02*
X158493882Y-82896436D01*
X158493882Y-82896436D02*
X158446263Y-82944056D01*
X158446263Y-82944056D02*
X158351025Y-82991675D01*
X158351025Y-82991675D02*
X157970073Y-82991675D01*
X157970073Y-82991675D02*
X157970073Y-81991675D01*
X157970073Y-81991675D02*
X158303406Y-81991675D01*
X158303406Y-81991675D02*
X158398644Y-82039294D01*
X158398644Y-82039294D02*
X158446263Y-82086913D01*
X158446263Y-82086913D02*
X158493882Y-82182151D01*
X158493882Y-82182151D02*
X158493882Y-82277389D01*
X158493882Y-82277389D02*
X158446263Y-82372627D01*
X158446263Y-82372627D02*
X158398644Y-82420246D01*
X158398644Y-82420246D02*
X158303406Y-82467865D01*
X158303406Y-82467865D02*
X157970073Y-82467865D01*
X159160549Y-82515484D02*
X159160549Y-82991675D01*
X158827216Y-81991675D02*
X159160549Y-82515484D01*
X159160549Y-82515484D02*
X159493882Y-81991675D01*
X155970073Y-84601619D02*
X155970073Y-83601619D01*
X155970073Y-83601619D02*
X156303406Y-84315904D01*
X156303406Y-84315904D02*
X156636739Y-83601619D01*
X156636739Y-83601619D02*
X156636739Y-84601619D01*
X157112930Y-84601619D02*
X157112930Y-83934952D01*
X157112930Y-83601619D02*
X157065311Y-83649238D01*
X157065311Y-83649238D02*
X157112930Y-83696857D01*
X157112930Y-83696857D02*
X157160549Y-83649238D01*
X157160549Y-83649238D02*
X157112930Y-83601619D01*
X157112930Y-83601619D02*
X157112930Y-83696857D01*
X157589120Y-84601619D02*
X157589120Y-83601619D01*
X157684358Y-84220666D02*
X157970072Y-84601619D01*
X157970072Y-83934952D02*
X157589120Y-84315904D01*
X158398644Y-84601619D02*
X158398644Y-83934952D01*
X158398644Y-83601619D02*
X158351025Y-83649238D01*
X158351025Y-83649238D02*
X158398644Y-83696857D01*
X158398644Y-83696857D02*
X158446263Y-83649238D01*
X158446263Y-83649238D02*
X158398644Y-83601619D01*
X158398644Y-83601619D02*
X158398644Y-83696857D01*
X158874834Y-83934952D02*
X158874834Y-84601619D01*
X158874834Y-84030190D02*
X158922453Y-83982571D01*
X158922453Y-83982571D02*
X159017691Y-83934952D01*
X159017691Y-83934952D02*
X159160548Y-83934952D01*
X159160548Y-83934952D02*
X159255786Y-83982571D01*
X159255786Y-83982571D02*
X159303405Y-84077809D01*
X159303405Y-84077809D02*
X159303405Y-84601619D01*
X159779596Y-84506380D02*
X159827215Y-84554000D01*
X159827215Y-84554000D02*
X159779596Y-84601619D01*
X159779596Y-84601619D02*
X159731977Y-84554000D01*
X159731977Y-84554000D02*
X159779596Y-84506380D01*
X159779596Y-84506380D02*
X159779596Y-84601619D01*
X160255786Y-84601619D02*
X160255786Y-83601619D01*
X160255786Y-83601619D02*
X160636738Y-83601619D01*
X160636738Y-83601619D02*
X160731976Y-83649238D01*
X160731976Y-83649238D02*
X160779595Y-83696857D01*
X160779595Y-83696857D02*
X160827214Y-83792095D01*
X160827214Y-83792095D02*
X160827214Y-83934952D01*
X160827214Y-83934952D02*
X160779595Y-84030190D01*
X160779595Y-84030190D02*
X160731976Y-84077809D01*
X160731976Y-84077809D02*
X160636738Y-84125428D01*
X160636738Y-84125428D02*
X160255786Y-84125428D01*
D12*
X153487828Y-73430202D02*
X153744971Y-73515916D01*
X153744971Y-73515916D02*
X154173542Y-73515916D01*
X154173542Y-73515916D02*
X154344971Y-73430202D01*
X154344971Y-73430202D02*
X154430685Y-73344487D01*
X154430685Y-73344487D02*
X154516399Y-73173059D01*
X154516399Y-73173059D02*
X154516399Y-73001630D01*
X154516399Y-73001630D02*
X154430685Y-72830202D01*
X154430685Y-72830202D02*
X154344971Y-72744487D01*
X154344971Y-72744487D02*
X154173542Y-72658773D01*
X154173542Y-72658773D02*
X153830685Y-72573059D01*
X153830685Y-72573059D02*
X153659256Y-72487344D01*
X153659256Y-72487344D02*
X153573542Y-72401630D01*
X153573542Y-72401630D02*
X153487828Y-72230202D01*
X153487828Y-72230202D02*
X153487828Y-72058773D01*
X153487828Y-72058773D02*
X153573542Y-71887344D01*
X153573542Y-71887344D02*
X153659256Y-71801630D01*
X153659256Y-71801630D02*
X153830685Y-71715916D01*
X153830685Y-71715916D02*
X154259256Y-71715916D01*
X154259256Y-71715916D02*
X154516399Y-71801630D01*
X155287828Y-73515916D02*
X155287828Y-71715916D01*
X155287828Y-71715916D02*
X155973542Y-71715916D01*
X155973542Y-71715916D02*
X156144971Y-71801630D01*
X156144971Y-71801630D02*
X156230685Y-71887344D01*
X156230685Y-71887344D02*
X156316399Y-72058773D01*
X156316399Y-72058773D02*
X156316399Y-72315916D01*
X156316399Y-72315916D02*
X156230685Y-72487344D01*
X156230685Y-72487344D02*
X156144971Y-72573059D01*
X156144971Y-72573059D02*
X155973542Y-72658773D01*
X155973542Y-72658773D02*
X155287828Y-72658773D01*
X157430685Y-71715916D02*
X157602114Y-71715916D01*
X157602114Y-71715916D02*
X157773542Y-71801630D01*
X157773542Y-71801630D02*
X157859257Y-71887344D01*
X157859257Y-71887344D02*
X157944971Y-72058773D01*
X157944971Y-72058773D02*
X158030685Y-72401630D01*
X158030685Y-72401630D02*
X158030685Y-72830202D01*
X158030685Y-72830202D02*
X157944971Y-73173059D01*
X157944971Y-73173059D02*
X157859257Y-73344487D01*
X157859257Y-73344487D02*
X157773542Y-73430202D01*
X157773542Y-73430202D02*
X157602114Y-73515916D01*
X157602114Y-73515916D02*
X157430685Y-73515916D01*
X157430685Y-73515916D02*
X157259257Y-73430202D01*
X157259257Y-73430202D02*
X157173542Y-73344487D01*
X157173542Y-73344487D02*
X157087828Y-73173059D01*
X157087828Y-73173059D02*
X157002114Y-72830202D01*
X157002114Y-72830202D02*
X157002114Y-72401630D01*
X157002114Y-72401630D02*
X157087828Y-72058773D01*
X157087828Y-72058773D02*
X157173542Y-71887344D01*
X157173542Y-71887344D02*
X157259257Y-71801630D01*
X157259257Y-71801630D02*
X157430685Y-71715916D01*
X158716400Y-71887344D02*
X158802114Y-71801630D01*
X158802114Y-71801630D02*
X158973543Y-71715916D01*
X158973543Y-71715916D02*
X159402114Y-71715916D01*
X159402114Y-71715916D02*
X159573543Y-71801630D01*
X159573543Y-71801630D02*
X159659257Y-71887344D01*
X159659257Y-71887344D02*
X159744971Y-72058773D01*
X159744971Y-72058773D02*
X159744971Y-72230202D01*
X159744971Y-72230202D02*
X159659257Y-72487344D01*
X159659257Y-72487344D02*
X158630685Y-73515916D01*
X158630685Y-73515916D02*
X159744971Y-73515916D01*
X152673542Y-74613815D02*
X153102114Y-76413815D01*
X153102114Y-76413815D02*
X153444971Y-75128101D01*
X153444971Y-75128101D02*
X153787828Y-76413815D01*
X153787828Y-76413815D02*
X154216400Y-74613815D01*
X154816400Y-75899529D02*
X155673543Y-75899529D01*
X154644971Y-76413815D02*
X155244971Y-74613815D01*
X155244971Y-74613815D02*
X155844971Y-76413815D01*
X156187828Y-74613815D02*
X157216400Y-74613815D01*
X156702114Y-76413815D02*
X156702114Y-74613815D01*
X157816400Y-75470958D02*
X158416400Y-75470958D01*
X158673543Y-76413815D02*
X157816400Y-76413815D01*
X157816400Y-76413815D02*
X157816400Y-74613815D01*
X157816400Y-74613815D02*
X158673543Y-74613815D01*
X160473542Y-76413815D02*
X159873542Y-75556672D01*
X159444971Y-76413815D02*
X159444971Y-74613815D01*
X159444971Y-74613815D02*
X160130685Y-74613815D01*
X160130685Y-74613815D02*
X160302114Y-74699529D01*
X160302114Y-74699529D02*
X160387828Y-74785243D01*
X160387828Y-74785243D02*
X160473542Y-74956672D01*
X160473542Y-74956672D02*
X160473542Y-75213815D01*
X160473542Y-75213815D02*
X160387828Y-75385243D01*
X160387828Y-75385243D02*
X160302114Y-75470958D01*
X160302114Y-75470958D02*
X160130685Y-75556672D01*
X160130685Y-75556672D02*
X159444971Y-75556672D01*
X151644972Y-79226000D02*
X151902115Y-79311714D01*
X151902115Y-79311714D02*
X152330686Y-79311714D01*
X152330686Y-79311714D02*
X152502115Y-79226000D01*
X152502115Y-79226000D02*
X152587829Y-79140285D01*
X152587829Y-79140285D02*
X152673543Y-78968857D01*
X152673543Y-78968857D02*
X152673543Y-78797428D01*
X152673543Y-78797428D02*
X152587829Y-78626000D01*
X152587829Y-78626000D02*
X152502115Y-78540285D01*
X152502115Y-78540285D02*
X152330686Y-78454571D01*
X152330686Y-78454571D02*
X151987829Y-78368857D01*
X151987829Y-78368857D02*
X151816400Y-78283142D01*
X151816400Y-78283142D02*
X151730686Y-78197428D01*
X151730686Y-78197428D02*
X151644972Y-78026000D01*
X151644972Y-78026000D02*
X151644972Y-77854571D01*
X151644972Y-77854571D02*
X151730686Y-77683142D01*
X151730686Y-77683142D02*
X151816400Y-77597428D01*
X151816400Y-77597428D02*
X151987829Y-77511714D01*
X151987829Y-77511714D02*
X152416400Y-77511714D01*
X152416400Y-77511714D02*
X152673543Y-77597428D01*
X153444972Y-78368857D02*
X154044972Y-78368857D01*
X154302115Y-79311714D02*
X153444972Y-79311714D01*
X153444972Y-79311714D02*
X153444972Y-77511714D01*
X153444972Y-77511714D02*
X154302115Y-77511714D01*
X155073543Y-79311714D02*
X155073543Y-77511714D01*
X155073543Y-77511714D02*
X156102114Y-79311714D01*
X156102114Y-79311714D02*
X156102114Y-77511714D01*
X156873543Y-79226000D02*
X157130686Y-79311714D01*
X157130686Y-79311714D02*
X157559257Y-79311714D01*
X157559257Y-79311714D02*
X157730686Y-79226000D01*
X157730686Y-79226000D02*
X157816400Y-79140285D01*
X157816400Y-79140285D02*
X157902114Y-78968857D01*
X157902114Y-78968857D02*
X157902114Y-78797428D01*
X157902114Y-78797428D02*
X157816400Y-78626000D01*
X157816400Y-78626000D02*
X157730686Y-78540285D01*
X157730686Y-78540285D02*
X157559257Y-78454571D01*
X157559257Y-78454571D02*
X157216400Y-78368857D01*
X157216400Y-78368857D02*
X157044971Y-78283142D01*
X157044971Y-78283142D02*
X156959257Y-78197428D01*
X156959257Y-78197428D02*
X156873543Y-78026000D01*
X156873543Y-78026000D02*
X156873543Y-77854571D01*
X156873543Y-77854571D02*
X156959257Y-77683142D01*
X156959257Y-77683142D02*
X157044971Y-77597428D01*
X157044971Y-77597428D02*
X157216400Y-77511714D01*
X157216400Y-77511714D02*
X157644971Y-77511714D01*
X157644971Y-77511714D02*
X157902114Y-77597428D01*
X159016400Y-77511714D02*
X159359257Y-77511714D01*
X159359257Y-77511714D02*
X159530686Y-77597428D01*
X159530686Y-77597428D02*
X159702114Y-77768857D01*
X159702114Y-77768857D02*
X159787829Y-78111714D01*
X159787829Y-78111714D02*
X159787829Y-78711714D01*
X159787829Y-78711714D02*
X159702114Y-79054571D01*
X159702114Y-79054571D02*
X159530686Y-79226000D01*
X159530686Y-79226000D02*
X159359257Y-79311714D01*
X159359257Y-79311714D02*
X159016400Y-79311714D01*
X159016400Y-79311714D02*
X158844972Y-79226000D01*
X158844972Y-79226000D02*
X158673543Y-79054571D01*
X158673543Y-79054571D02*
X158587829Y-78711714D01*
X158587829Y-78711714D02*
X158587829Y-78111714D01*
X158587829Y-78111714D02*
X158673543Y-77768857D01*
X158673543Y-77768857D02*
X158844972Y-77597428D01*
X158844972Y-77597428D02*
X159016400Y-77511714D01*
X161587828Y-79311714D02*
X160987828Y-78454571D01*
X160559257Y-79311714D02*
X160559257Y-77511714D01*
X160559257Y-77511714D02*
X161244971Y-77511714D01*
X161244971Y-77511714D02*
X161416400Y-77597428D01*
X161416400Y-77597428D02*
X161502114Y-77683142D01*
X161502114Y-77683142D02*
X161587828Y-77854571D01*
X161587828Y-77854571D02*
X161587828Y-78111714D01*
X161587828Y-78111714D02*
X161502114Y-78283142D01*
X161502114Y-78283142D02*
X161416400Y-78368857D01*
X161416400Y-78368857D02*
X161244971Y-78454571D01*
X161244971Y-78454571D02*
X160559257Y-78454571D01*
D10*
X184399895Y-77422192D02*
X184399895Y-77879335D01*
X184399895Y-77650763D02*
X183599895Y-77650763D01*
X183599895Y-77650763D02*
X183714180Y-77726954D01*
X183714180Y-77726954D02*
X183790371Y-77803144D01*
X183790371Y-77803144D02*
X183828466Y-77879335D01*
X183599895Y-76926953D02*
X183599895Y-76850763D01*
X183599895Y-76850763D02*
X183637990Y-76774572D01*
X183637990Y-76774572D02*
X183676085Y-76736477D01*
X183676085Y-76736477D02*
X183752276Y-76698382D01*
X183752276Y-76698382D02*
X183904657Y-76660287D01*
X183904657Y-76660287D02*
X184095133Y-76660287D01*
X184095133Y-76660287D02*
X184247514Y-76698382D01*
X184247514Y-76698382D02*
X184323704Y-76736477D01*
X184323704Y-76736477D02*
X184361800Y-76774572D01*
X184361800Y-76774572D02*
X184399895Y-76850763D01*
X184399895Y-76850763D02*
X184399895Y-76926953D01*
X184399895Y-76926953D02*
X184361800Y-77003144D01*
X184361800Y-77003144D02*
X184323704Y-77041239D01*
X184323704Y-77041239D02*
X184247514Y-77079334D01*
X184247514Y-77079334D02*
X184095133Y-77117430D01*
X184095133Y-77117430D02*
X183904657Y-77117430D01*
X183904657Y-77117430D02*
X183752276Y-77079334D01*
X183752276Y-77079334D02*
X183676085Y-77041239D01*
X183676085Y-77041239D02*
X183637990Y-77003144D01*
X183637990Y-77003144D02*
X183599895Y-76926953D01*
X183599895Y-76165048D02*
X183599895Y-76088858D01*
X183599895Y-76088858D02*
X183637990Y-76012667D01*
X183637990Y-76012667D02*
X183676085Y-75974572D01*
X183676085Y-75974572D02*
X183752276Y-75936477D01*
X183752276Y-75936477D02*
X183904657Y-75898382D01*
X183904657Y-75898382D02*
X184095133Y-75898382D01*
X184095133Y-75898382D02*
X184247514Y-75936477D01*
X184247514Y-75936477D02*
X184323704Y-75974572D01*
X184323704Y-75974572D02*
X184361800Y-76012667D01*
X184361800Y-76012667D02*
X184399895Y-76088858D01*
X184399895Y-76088858D02*
X184399895Y-76165048D01*
X184399895Y-76165048D02*
X184361800Y-76241239D01*
X184361800Y-76241239D02*
X184323704Y-76279334D01*
X184323704Y-76279334D02*
X184247514Y-76317429D01*
X184247514Y-76317429D02*
X184095133Y-76355525D01*
X184095133Y-76355525D02*
X183904657Y-76355525D01*
X183904657Y-76355525D02*
X183752276Y-76317429D01*
X183752276Y-76317429D02*
X183676085Y-76279334D01*
X183676085Y-76279334D02*
X183637990Y-76241239D01*
X183637990Y-76241239D02*
X183599895Y-76165048D01*
X183866561Y-75555524D02*
X184399895Y-75555524D01*
X183942752Y-75555524D02*
X183904657Y-75517429D01*
X183904657Y-75517429D02*
X183866561Y-75441239D01*
X183866561Y-75441239D02*
X183866561Y-75326953D01*
X183866561Y-75326953D02*
X183904657Y-75250762D01*
X183904657Y-75250762D02*
X183980847Y-75212667D01*
X183980847Y-75212667D02*
X184399895Y-75212667D01*
X184450695Y-66855792D02*
X184450695Y-67312935D01*
X184450695Y-67084363D02*
X183650695Y-67084363D01*
X183650695Y-67084363D02*
X183764980Y-67160554D01*
X183764980Y-67160554D02*
X183841171Y-67236744D01*
X183841171Y-67236744D02*
X183879266Y-67312935D01*
X183650695Y-66360553D02*
X183650695Y-66284363D01*
X183650695Y-66284363D02*
X183688790Y-66208172D01*
X183688790Y-66208172D02*
X183726885Y-66170077D01*
X183726885Y-66170077D02*
X183803076Y-66131982D01*
X183803076Y-66131982D02*
X183955457Y-66093887D01*
X183955457Y-66093887D02*
X184145933Y-66093887D01*
X184145933Y-66093887D02*
X184298314Y-66131982D01*
X184298314Y-66131982D02*
X184374504Y-66170077D01*
X184374504Y-66170077D02*
X184412600Y-66208172D01*
X184412600Y-66208172D02*
X184450695Y-66284363D01*
X184450695Y-66284363D02*
X184450695Y-66360553D01*
X184450695Y-66360553D02*
X184412600Y-66436744D01*
X184412600Y-66436744D02*
X184374504Y-66474839D01*
X184374504Y-66474839D02*
X184298314Y-66512934D01*
X184298314Y-66512934D02*
X184145933Y-66551030D01*
X184145933Y-66551030D02*
X183955457Y-66551030D01*
X183955457Y-66551030D02*
X183803076Y-66512934D01*
X183803076Y-66512934D02*
X183726885Y-66474839D01*
X183726885Y-66474839D02*
X183688790Y-66436744D01*
X183688790Y-66436744D02*
X183650695Y-66360553D01*
X183650695Y-65598648D02*
X183650695Y-65522458D01*
X183650695Y-65522458D02*
X183688790Y-65446267D01*
X183688790Y-65446267D02*
X183726885Y-65408172D01*
X183726885Y-65408172D02*
X183803076Y-65370077D01*
X183803076Y-65370077D02*
X183955457Y-65331982D01*
X183955457Y-65331982D02*
X184145933Y-65331982D01*
X184145933Y-65331982D02*
X184298314Y-65370077D01*
X184298314Y-65370077D02*
X184374504Y-65408172D01*
X184374504Y-65408172D02*
X184412600Y-65446267D01*
X184412600Y-65446267D02*
X184450695Y-65522458D01*
X184450695Y-65522458D02*
X184450695Y-65598648D01*
X184450695Y-65598648D02*
X184412600Y-65674839D01*
X184412600Y-65674839D02*
X184374504Y-65712934D01*
X184374504Y-65712934D02*
X184298314Y-65751029D01*
X184298314Y-65751029D02*
X184145933Y-65789125D01*
X184145933Y-65789125D02*
X183955457Y-65789125D01*
X183955457Y-65789125D02*
X183803076Y-65751029D01*
X183803076Y-65751029D02*
X183726885Y-65712934D01*
X183726885Y-65712934D02*
X183688790Y-65674839D01*
X183688790Y-65674839D02*
X183650695Y-65598648D01*
X183917361Y-64989124D02*
X184450695Y-64989124D01*
X183993552Y-64989124D02*
X183955457Y-64951029D01*
X183955457Y-64951029D02*
X183917361Y-64874839D01*
X183917361Y-64874839D02*
X183917361Y-64760553D01*
X183917361Y-64760553D02*
X183955457Y-64684362D01*
X183955457Y-64684362D02*
X184031647Y-64646267D01*
X184031647Y-64646267D02*
X184450695Y-64646267D01*
X202968219Y-79419220D02*
X201968219Y-79419220D01*
X201968219Y-79419220D02*
X201968219Y-79181125D01*
X201968219Y-79181125D02*
X202015838Y-79038268D01*
X202015838Y-79038268D02*
X202111076Y-78943030D01*
X202111076Y-78943030D02*
X202206314Y-78895411D01*
X202206314Y-78895411D02*
X202396790Y-78847792D01*
X202396790Y-78847792D02*
X202539647Y-78847792D01*
X202539647Y-78847792D02*
X202730123Y-78895411D01*
X202730123Y-78895411D02*
X202825361Y-78943030D01*
X202825361Y-78943030D02*
X202920600Y-79038268D01*
X202920600Y-79038268D02*
X202968219Y-79181125D01*
X202968219Y-79181125D02*
X202968219Y-79419220D01*
X201968219Y-78228744D02*
X201968219Y-78038268D01*
X201968219Y-78038268D02*
X202015838Y-77943030D01*
X202015838Y-77943030D02*
X202111076Y-77847792D01*
X202111076Y-77847792D02*
X202301552Y-77800173D01*
X202301552Y-77800173D02*
X202634885Y-77800173D01*
X202634885Y-77800173D02*
X202825361Y-77847792D01*
X202825361Y-77847792D02*
X202920600Y-77943030D01*
X202920600Y-77943030D02*
X202968219Y-78038268D01*
X202968219Y-78038268D02*
X202968219Y-78228744D01*
X202968219Y-78228744D02*
X202920600Y-78323982D01*
X202920600Y-78323982D02*
X202825361Y-78419220D01*
X202825361Y-78419220D02*
X202634885Y-78466839D01*
X202634885Y-78466839D02*
X202301552Y-78466839D01*
X202301552Y-78466839D02*
X202111076Y-78419220D01*
X202111076Y-78419220D02*
X202015838Y-78323982D01*
X202015838Y-78323982D02*
X201968219Y-78228744D01*
X201968219Y-77466839D02*
X202968219Y-77228744D01*
X202968219Y-77228744D02*
X202253933Y-77038268D01*
X202253933Y-77038268D02*
X202968219Y-76847792D01*
X202968219Y-76847792D02*
X201968219Y-76609697D01*
X202968219Y-76228744D02*
X201968219Y-76228744D01*
X201968219Y-76228744D02*
X202968219Y-75657316D01*
X202968219Y-75657316D02*
X201968219Y-75657316D01*
X202120619Y-66668420D02*
X202930142Y-66668420D01*
X202930142Y-66668420D02*
X203025380Y-66620801D01*
X203025380Y-66620801D02*
X203073000Y-66573182D01*
X203073000Y-66573182D02*
X203120619Y-66477944D01*
X203120619Y-66477944D02*
X203120619Y-66287468D01*
X203120619Y-66287468D02*
X203073000Y-66192230D01*
X203073000Y-66192230D02*
X203025380Y-66144611D01*
X203025380Y-66144611D02*
X202930142Y-66096992D01*
X202930142Y-66096992D02*
X202120619Y-66096992D01*
X203120619Y-65620801D02*
X202120619Y-65620801D01*
X202120619Y-65620801D02*
X202120619Y-65239849D01*
X202120619Y-65239849D02*
X202168238Y-65144611D01*
X202168238Y-65144611D02*
X202215857Y-65096992D01*
X202215857Y-65096992D02*
X202311095Y-65049373D01*
X202311095Y-65049373D02*
X202453952Y-65049373D01*
X202453952Y-65049373D02*
X202549190Y-65096992D01*
X202549190Y-65096992D02*
X202596809Y-65144611D01*
X202596809Y-65144611D02*
X202644428Y-65239849D01*
X202644428Y-65239849D02*
X202644428Y-65620801D01*
X203171419Y-56610020D02*
X202171419Y-56610020D01*
X202171419Y-56610020D02*
X202885704Y-56276687D01*
X202885704Y-56276687D02*
X202171419Y-55943354D01*
X202171419Y-55943354D02*
X203171419Y-55943354D01*
X202647609Y-55467163D02*
X202647609Y-55133830D01*
X203171419Y-54990973D02*
X203171419Y-55467163D01*
X203171419Y-55467163D02*
X202171419Y-55467163D01*
X202171419Y-55467163D02*
X202171419Y-54990973D01*
X203171419Y-54562401D02*
X202171419Y-54562401D01*
X202171419Y-54562401D02*
X203171419Y-53990973D01*
X203171419Y-53990973D02*
X202171419Y-53990973D01*
X202171419Y-53514782D02*
X202980942Y-53514782D01*
X202980942Y-53514782D02*
X203076180Y-53467163D01*
X203076180Y-53467163D02*
X203123800Y-53419544D01*
X203123800Y-53419544D02*
X203171419Y-53324306D01*
X203171419Y-53324306D02*
X203171419Y-53133830D01*
X203171419Y-53133830D02*
X203123800Y-53038592D01*
X203123800Y-53038592D02*
X203076180Y-52990973D01*
X203076180Y-52990973D02*
X202980942Y-52943354D01*
X202980942Y-52943354D02*
X202171419Y-52943354D01*
X189709419Y-77625411D02*
X189709419Y-78196839D01*
X189709419Y-77911125D02*
X188709419Y-77911125D01*
X188709419Y-77911125D02*
X188852276Y-78006363D01*
X188852276Y-78006363D02*
X188947514Y-78101601D01*
X188947514Y-78101601D02*
X188995133Y-78196839D01*
X189709419Y-77196839D02*
X188709419Y-77196839D01*
X189709419Y-76625411D02*
X189137990Y-77053982D01*
X188709419Y-76625411D02*
X189280847Y-77196839D01*
X189760219Y-66144611D02*
X189760219Y-66716039D01*
X189760219Y-66430325D02*
X188760219Y-66430325D01*
X188760219Y-66430325D02*
X188903076Y-66525563D01*
X188903076Y-66525563D02*
X188998314Y-66620801D01*
X188998314Y-66620801D02*
X189045933Y-66716039D01*
X189760219Y-65716039D02*
X188760219Y-65716039D01*
X189760219Y-65144611D02*
X189188790Y-65573182D01*
X188760219Y-65144611D02*
X189331647Y-65716039D01*
X189760219Y-54613011D02*
X189760219Y-55184439D01*
X189760219Y-54898725D02*
X188760219Y-54898725D01*
X188760219Y-54898725D02*
X188903076Y-54993963D01*
X188903076Y-54993963D02*
X188998314Y-55089201D01*
X188998314Y-55089201D02*
X189045933Y-55184439D01*
X189760219Y-54184439D02*
X188760219Y-54184439D01*
X189760219Y-53613011D02*
X189188790Y-54041582D01*
X188760219Y-53613011D02*
X189331647Y-54184439D01*
X138807819Y-77793620D02*
X137807819Y-77793620D01*
X137807819Y-77793620D02*
X138522104Y-77460287D01*
X138522104Y-77460287D02*
X137807819Y-77126954D01*
X137807819Y-77126954D02*
X138807819Y-77126954D01*
X138522104Y-76698382D02*
X138522104Y-76222192D01*
X138807819Y-76793620D02*
X137807819Y-76460287D01*
X137807819Y-76460287D02*
X138807819Y-76126954D01*
X137807819Y-75888858D02*
X138807819Y-75222192D01*
X137807819Y-75222192D02*
X138807819Y-75888858D01*
X137807819Y-74936477D02*
X137807819Y-74317430D01*
X137807819Y-74317430D02*
X138188771Y-74650763D01*
X138188771Y-74650763D02*
X138188771Y-74507906D01*
X138188771Y-74507906D02*
X138236390Y-74412668D01*
X138236390Y-74412668D02*
X138284009Y-74365049D01*
X138284009Y-74365049D02*
X138379247Y-74317430D01*
X138379247Y-74317430D02*
X138617342Y-74317430D01*
X138617342Y-74317430D02*
X138712580Y-74365049D01*
X138712580Y-74365049D02*
X138760200Y-74412668D01*
X138760200Y-74412668D02*
X138807819Y-74507906D01*
X138807819Y-74507906D02*
X138807819Y-74793620D01*
X138807819Y-74793620D02*
X138760200Y-74888858D01*
X138760200Y-74888858D02*
X138712580Y-74936477D01*
X137807819Y-73698382D02*
X137807819Y-73603144D01*
X137807819Y-73603144D02*
X137855438Y-73507906D01*
X137855438Y-73507906D02*
X137903057Y-73460287D01*
X137903057Y-73460287D02*
X137998295Y-73412668D01*
X137998295Y-73412668D02*
X138188771Y-73365049D01*
X138188771Y-73365049D02*
X138426866Y-73365049D01*
X138426866Y-73365049D02*
X138617342Y-73412668D01*
X138617342Y-73412668D02*
X138712580Y-73460287D01*
X138712580Y-73460287D02*
X138760200Y-73507906D01*
X138760200Y-73507906D02*
X138807819Y-73603144D01*
X138807819Y-73603144D02*
X138807819Y-73698382D01*
X138807819Y-73698382D02*
X138760200Y-73793620D01*
X138760200Y-73793620D02*
X138712580Y-73841239D01*
X138712580Y-73841239D02*
X138617342Y-73888858D01*
X138617342Y-73888858D02*
X138426866Y-73936477D01*
X138426866Y-73936477D02*
X138188771Y-73936477D01*
X138188771Y-73936477D02*
X137998295Y-73888858D01*
X137998295Y-73888858D02*
X137903057Y-73841239D01*
X137903057Y-73841239D02*
X137855438Y-73793620D01*
X137855438Y-73793620D02*
X137807819Y-73698382D01*
X138807819Y-72412668D02*
X138807819Y-72984096D01*
X138807819Y-72698382D02*
X137807819Y-72698382D01*
X137807819Y-72698382D02*
X137950676Y-72793620D01*
X137950676Y-72793620D02*
X138045914Y-72888858D01*
X138045914Y-72888858D02*
X138093533Y-72984096D01*
X137807819Y-71793620D02*
X137807819Y-71698382D01*
X137807819Y-71698382D02*
X137855438Y-71603144D01*
X137855438Y-71603144D02*
X137903057Y-71555525D01*
X137903057Y-71555525D02*
X137998295Y-71507906D01*
X137998295Y-71507906D02*
X138188771Y-71460287D01*
X138188771Y-71460287D02*
X138426866Y-71460287D01*
X138426866Y-71460287D02*
X138617342Y-71507906D01*
X138617342Y-71507906D02*
X138712580Y-71555525D01*
X138712580Y-71555525D02*
X138760200Y-71603144D01*
X138760200Y-71603144D02*
X138807819Y-71698382D01*
X138807819Y-71698382D02*
X138807819Y-71793620D01*
X138807819Y-71793620D02*
X138760200Y-71888858D01*
X138760200Y-71888858D02*
X138712580Y-71936477D01*
X138712580Y-71936477D02*
X138617342Y-71984096D01*
X138617342Y-71984096D02*
X138426866Y-72031715D01*
X138426866Y-72031715D02*
X138188771Y-72031715D01*
X138188771Y-72031715D02*
X137998295Y-71984096D01*
X137998295Y-71984096D02*
X137903057Y-71936477D01*
X137903057Y-71936477D02*
X137855438Y-71888858D01*
X137855438Y-71888858D02*
X137807819Y-71793620D01*
X137903057Y-71079334D02*
X137855438Y-71031715D01*
X137855438Y-71031715D02*
X137807819Y-70936477D01*
X137807819Y-70936477D02*
X137807819Y-70698382D01*
X137807819Y-70698382D02*
X137855438Y-70603144D01*
X137855438Y-70603144D02*
X137903057Y-70555525D01*
X137903057Y-70555525D02*
X137998295Y-70507906D01*
X137998295Y-70507906D02*
X138093533Y-70507906D01*
X138093533Y-70507906D02*
X138236390Y-70555525D01*
X138236390Y-70555525D02*
X138807819Y-71126953D01*
X138807819Y-71126953D02*
X138807819Y-70507906D01*
X154009960Y-64846200D02*
X154152817Y-64893819D01*
X154152817Y-64893819D02*
X154390912Y-64893819D01*
X154390912Y-64893819D02*
X154486150Y-64846200D01*
X154486150Y-64846200D02*
X154533769Y-64798580D01*
X154533769Y-64798580D02*
X154581388Y-64703342D01*
X154581388Y-64703342D02*
X154581388Y-64608104D01*
X154581388Y-64608104D02*
X154533769Y-64512866D01*
X154533769Y-64512866D02*
X154486150Y-64465247D01*
X154486150Y-64465247D02*
X154390912Y-64417628D01*
X154390912Y-64417628D02*
X154200436Y-64370009D01*
X154200436Y-64370009D02*
X154105198Y-64322390D01*
X154105198Y-64322390D02*
X154057579Y-64274771D01*
X154057579Y-64274771D02*
X154009960Y-64179533D01*
X154009960Y-64179533D02*
X154009960Y-64084295D01*
X154009960Y-64084295D02*
X154057579Y-63989057D01*
X154057579Y-63989057D02*
X154105198Y-63941438D01*
X154105198Y-63941438D02*
X154200436Y-63893819D01*
X154200436Y-63893819D02*
X154438531Y-63893819D01*
X154438531Y-63893819D02*
X154581388Y-63941438D01*
X154962341Y-64846200D02*
X155105198Y-64893819D01*
X155105198Y-64893819D02*
X155343293Y-64893819D01*
X155343293Y-64893819D02*
X155438531Y-64846200D01*
X155438531Y-64846200D02*
X155486150Y-64798580D01*
X155486150Y-64798580D02*
X155533769Y-64703342D01*
X155533769Y-64703342D02*
X155533769Y-64608104D01*
X155533769Y-64608104D02*
X155486150Y-64512866D01*
X155486150Y-64512866D02*
X155438531Y-64465247D01*
X155438531Y-64465247D02*
X155343293Y-64417628D01*
X155343293Y-64417628D02*
X155152817Y-64370009D01*
X155152817Y-64370009D02*
X155057579Y-64322390D01*
X155057579Y-64322390D02*
X155009960Y-64274771D01*
X155009960Y-64274771D02*
X154962341Y-64179533D01*
X154962341Y-64179533D02*
X154962341Y-64084295D01*
X154962341Y-64084295D02*
X155009960Y-63989057D01*
X155009960Y-63989057D02*
X155057579Y-63941438D01*
X155057579Y-63941438D02*
X155152817Y-63893819D01*
X155152817Y-63893819D02*
X155390912Y-63893819D01*
X155390912Y-63893819D02*
X155533769Y-63941438D01*
X155962341Y-64893819D02*
X155962341Y-63893819D01*
X155962341Y-63893819D02*
X156200436Y-63893819D01*
X156200436Y-63893819D02*
X156343293Y-63941438D01*
X156343293Y-63941438D02*
X156438531Y-64036676D01*
X156438531Y-64036676D02*
X156486150Y-64131914D01*
X156486150Y-64131914D02*
X156533769Y-64322390D01*
X156533769Y-64322390D02*
X156533769Y-64465247D01*
X156533769Y-64465247D02*
X156486150Y-64655723D01*
X156486150Y-64655723D02*
X156438531Y-64750961D01*
X156438531Y-64750961D02*
X156343293Y-64846200D01*
X156343293Y-64846200D02*
X156200436Y-64893819D01*
X156200436Y-64893819D02*
X155962341Y-64893819D01*
X157486150Y-64893819D02*
X156914722Y-64893819D01*
X157200436Y-64893819D02*
X157200436Y-63893819D01*
X157200436Y-63893819D02*
X157105198Y-64036676D01*
X157105198Y-64036676D02*
X157009960Y-64131914D01*
X157009960Y-64131914D02*
X156914722Y-64179533D01*
X157819484Y-63893819D02*
X158438531Y-63893819D01*
X158438531Y-63893819D02*
X158105198Y-64274771D01*
X158105198Y-64274771D02*
X158248055Y-64274771D01*
X158248055Y-64274771D02*
X158343293Y-64322390D01*
X158343293Y-64322390D02*
X158390912Y-64370009D01*
X158390912Y-64370009D02*
X158438531Y-64465247D01*
X158438531Y-64465247D02*
X158438531Y-64703342D01*
X158438531Y-64703342D02*
X158390912Y-64798580D01*
X158390912Y-64798580D02*
X158343293Y-64846200D01*
X158343293Y-64846200D02*
X158248055Y-64893819D01*
X158248055Y-64893819D02*
X157962341Y-64893819D01*
X157962341Y-64893819D02*
X157867103Y-64846200D01*
X157867103Y-64846200D02*
X157819484Y-64798580D01*
X159057579Y-63893819D02*
X159152817Y-63893819D01*
X159152817Y-63893819D02*
X159248055Y-63941438D01*
X159248055Y-63941438D02*
X159295674Y-63989057D01*
X159295674Y-63989057D02*
X159343293Y-64084295D01*
X159343293Y-64084295D02*
X159390912Y-64274771D01*
X159390912Y-64274771D02*
X159390912Y-64512866D01*
X159390912Y-64512866D02*
X159343293Y-64703342D01*
X159343293Y-64703342D02*
X159295674Y-64798580D01*
X159295674Y-64798580D02*
X159248055Y-64846200D01*
X159248055Y-64846200D02*
X159152817Y-64893819D01*
X159152817Y-64893819D02*
X159057579Y-64893819D01*
X159057579Y-64893819D02*
X158962341Y-64846200D01*
X158962341Y-64846200D02*
X158914722Y-64798580D01*
X158914722Y-64798580D02*
X158867103Y-64703342D01*
X158867103Y-64703342D02*
X158819484Y-64512866D01*
X158819484Y-64512866D02*
X158819484Y-64274771D01*
X158819484Y-64274771D02*
X158867103Y-64084295D01*
X158867103Y-64084295D02*
X158914722Y-63989057D01*
X158914722Y-63989057D02*
X158962341Y-63941438D01*
X158962341Y-63941438D02*
X159057579Y-63893819D01*
X160248055Y-63893819D02*
X160057579Y-63893819D01*
X160057579Y-63893819D02*
X159962341Y-63941438D01*
X159962341Y-63941438D02*
X159914722Y-63989057D01*
X159914722Y-63989057D02*
X159819484Y-64131914D01*
X159819484Y-64131914D02*
X159771865Y-64322390D01*
X159771865Y-64322390D02*
X159771865Y-64703342D01*
X159771865Y-64703342D02*
X159819484Y-64798580D01*
X159819484Y-64798580D02*
X159867103Y-64846200D01*
X159867103Y-64846200D02*
X159962341Y-64893819D01*
X159962341Y-64893819D02*
X160152817Y-64893819D01*
X160152817Y-64893819D02*
X160248055Y-64846200D01*
X160248055Y-64846200D02*
X160295674Y-64798580D01*
X160295674Y-64798580D02*
X160343293Y-64703342D01*
X160343293Y-64703342D02*
X160343293Y-64465247D01*
X160343293Y-64465247D02*
X160295674Y-64370009D01*
X160295674Y-64370009D02*
X160248055Y-64322390D01*
X160248055Y-64322390D02*
X160152817Y-64274771D01*
X160152817Y-64274771D02*
X159962341Y-64274771D01*
X159962341Y-64274771D02*
X159867103Y-64322390D01*
X159867103Y-64322390D02*
X159819484Y-64370009D01*
X159819484Y-64370009D02*
X159771865Y-64465247D01*
X166100360Y-82743704D02*
X166576550Y-82743704D01*
X166005122Y-83029419D02*
X166338455Y-82029419D01*
X166338455Y-82029419D02*
X166671788Y-83029419D01*
X167005122Y-83029419D02*
X167005122Y-82362752D01*
X167005122Y-82553228D02*
X167052741Y-82457990D01*
X167052741Y-82457990D02*
X167100360Y-82410371D01*
X167100360Y-82410371D02*
X167195598Y-82362752D01*
X167195598Y-82362752D02*
X167290836Y-82362752D01*
X168052741Y-83029419D02*
X168052741Y-82029419D01*
X168052741Y-82981800D02*
X167957503Y-83029419D01*
X167957503Y-83029419D02*
X167767027Y-83029419D01*
X167767027Y-83029419D02*
X167671789Y-82981800D01*
X167671789Y-82981800D02*
X167624170Y-82934180D01*
X167624170Y-82934180D02*
X167576551Y-82838942D01*
X167576551Y-82838942D02*
X167576551Y-82553228D01*
X167576551Y-82553228D02*
X167624170Y-82457990D01*
X167624170Y-82457990D02*
X167671789Y-82410371D01*
X167671789Y-82410371D02*
X167767027Y-82362752D01*
X167767027Y-82362752D02*
X167957503Y-82362752D01*
X167957503Y-82362752D02*
X168052741Y-82410371D01*
X168957503Y-82362752D02*
X168957503Y-83029419D01*
X168528932Y-82362752D02*
X168528932Y-82886561D01*
X168528932Y-82886561D02*
X168576551Y-82981800D01*
X168576551Y-82981800D02*
X168671789Y-83029419D01*
X168671789Y-83029419D02*
X168814646Y-83029419D01*
X168814646Y-83029419D02*
X168909884Y-82981800D01*
X168909884Y-82981800D02*
X168957503Y-82934180D01*
X169433694Y-83029419D02*
X169433694Y-82362752D01*
X169433694Y-82029419D02*
X169386075Y-82077038D01*
X169386075Y-82077038D02*
X169433694Y-82124657D01*
X169433694Y-82124657D02*
X169481313Y-82077038D01*
X169481313Y-82077038D02*
X169433694Y-82029419D01*
X169433694Y-82029419D02*
X169433694Y-82124657D01*
X169909884Y-82362752D02*
X169909884Y-83029419D01*
X169909884Y-82457990D02*
X169957503Y-82410371D01*
X169957503Y-82410371D02*
X170052741Y-82362752D01*
X170052741Y-82362752D02*
X170195598Y-82362752D01*
X170195598Y-82362752D02*
X170290836Y-82410371D01*
X170290836Y-82410371D02*
X170338455Y-82505609D01*
X170338455Y-82505609D02*
X170338455Y-83029419D01*
X170957503Y-83029419D02*
X170862265Y-82981800D01*
X170862265Y-82981800D02*
X170814646Y-82934180D01*
X170814646Y-82934180D02*
X170767027Y-82838942D01*
X170767027Y-82838942D02*
X170767027Y-82553228D01*
X170767027Y-82553228D02*
X170814646Y-82457990D01*
X170814646Y-82457990D02*
X170862265Y-82410371D01*
X170862265Y-82410371D02*
X170957503Y-82362752D01*
X170957503Y-82362752D02*
X171100360Y-82362752D01*
X171100360Y-82362752D02*
X171195598Y-82410371D01*
X171195598Y-82410371D02*
X171243217Y-82457990D01*
X171243217Y-82457990D02*
X171290836Y-82553228D01*
X171290836Y-82553228D02*
X171290836Y-82838942D01*
X171290836Y-82838942D02*
X171243217Y-82934180D01*
X171243217Y-82934180D02*
X171195598Y-82981800D01*
X171195598Y-82981800D02*
X171100360Y-83029419D01*
X171100360Y-83029419D02*
X170957503Y-83029419D01*
X171481313Y-83124657D02*
X172243217Y-83124657D01*
X172481313Y-83029419D02*
X172481313Y-82029419D01*
X172481313Y-82029419D02*
X173052741Y-83029419D01*
X173052741Y-83029419D02*
X173052741Y-82029419D01*
X173957503Y-83029419D02*
X173957503Y-82505609D01*
X173957503Y-82505609D02*
X173909884Y-82410371D01*
X173909884Y-82410371D02*
X173814646Y-82362752D01*
X173814646Y-82362752D02*
X173624170Y-82362752D01*
X173624170Y-82362752D02*
X173528932Y-82410371D01*
X173957503Y-82981800D02*
X173862265Y-83029419D01*
X173862265Y-83029419D02*
X173624170Y-83029419D01*
X173624170Y-83029419D02*
X173528932Y-82981800D01*
X173528932Y-82981800D02*
X173481313Y-82886561D01*
X173481313Y-82886561D02*
X173481313Y-82791323D01*
X173481313Y-82791323D02*
X173528932Y-82696085D01*
X173528932Y-82696085D02*
X173624170Y-82648466D01*
X173624170Y-82648466D02*
X173862265Y-82648466D01*
X173862265Y-82648466D02*
X173957503Y-82600847D01*
X174433694Y-82362752D02*
X174433694Y-83029419D01*
X174433694Y-82457990D02*
X174481313Y-82410371D01*
X174481313Y-82410371D02*
X174576551Y-82362752D01*
X174576551Y-82362752D02*
X174719408Y-82362752D01*
X174719408Y-82362752D02*
X174814646Y-82410371D01*
X174814646Y-82410371D02*
X174862265Y-82505609D01*
X174862265Y-82505609D02*
X174862265Y-83029419D01*
X175481313Y-83029419D02*
X175386075Y-82981800D01*
X175386075Y-82981800D02*
X175338456Y-82934180D01*
X175338456Y-82934180D02*
X175290837Y-82838942D01*
X175290837Y-82838942D02*
X175290837Y-82553228D01*
X175290837Y-82553228D02*
X175338456Y-82457990D01*
X175338456Y-82457990D02*
X175386075Y-82410371D01*
X175386075Y-82410371D02*
X175481313Y-82362752D01*
X175481313Y-82362752D02*
X175624170Y-82362752D01*
X175624170Y-82362752D02*
X175719408Y-82410371D01*
X175719408Y-82410371D02*
X175767027Y-82457990D01*
X175767027Y-82457990D02*
X175814646Y-82553228D01*
X175814646Y-82553228D02*
X175814646Y-82838942D01*
X175814646Y-82838942D02*
X175767027Y-82934180D01*
X175767027Y-82934180D02*
X175719408Y-82981800D01*
X175719408Y-82981800D02*
X175624170Y-83029419D01*
X175624170Y-83029419D02*
X175481313Y-83029419D01*
X176005123Y-83124657D02*
X176767027Y-83124657D01*
X176909885Y-82362752D02*
X177147980Y-83029419D01*
X177147980Y-83029419D02*
X177386075Y-82362752D01*
X177671790Y-82029419D02*
X178290837Y-82029419D01*
X178290837Y-82029419D02*
X177957504Y-82410371D01*
X177957504Y-82410371D02*
X178100361Y-82410371D01*
X178100361Y-82410371D02*
X178195599Y-82457990D01*
X178195599Y-82457990D02*
X178243218Y-82505609D01*
X178243218Y-82505609D02*
X178290837Y-82600847D01*
X178290837Y-82600847D02*
X178290837Y-82838942D01*
X178290837Y-82838942D02*
X178243218Y-82934180D01*
X178243218Y-82934180D02*
X178195599Y-82981800D01*
X178195599Y-82981800D02*
X178100361Y-83029419D01*
X178100361Y-83029419D02*
X177814647Y-83029419D01*
X177814647Y-83029419D02*
X177719409Y-82981800D01*
X177719409Y-82981800D02*
X177671790Y-82934180D01*
X178719409Y-82934180D02*
X178767028Y-82981800D01*
X178767028Y-82981800D02*
X178719409Y-83029419D01*
X178719409Y-83029419D02*
X178671790Y-82981800D01*
X178671790Y-82981800D02*
X178719409Y-82934180D01*
X178719409Y-82934180D02*
X178719409Y-83029419D01*
X179100361Y-83029419D02*
X179624170Y-82362752D01*
X179100361Y-82362752D02*
X179624170Y-83029419D01*
X187702988Y-43253019D02*
X187131560Y-43253019D01*
X187417274Y-43253019D02*
X187417274Y-42253019D01*
X187417274Y-42253019D02*
X187322036Y-42395876D01*
X187322036Y-42395876D02*
X187226798Y-42491114D01*
X187226798Y-42491114D02*
X187131560Y-42538733D01*
X188131560Y-43253019D02*
X188131560Y-42253019D01*
X188702988Y-43253019D02*
X188274417Y-42681590D01*
X188702988Y-42253019D02*
X188131560Y-42824447D01*
X196224760Y-40325704D02*
X196700950Y-40325704D01*
X196129522Y-40611419D02*
X196462855Y-39611419D01*
X196462855Y-39611419D02*
X196796188Y-40611419D01*
X197605712Y-40611419D02*
X197129522Y-40611419D01*
X197129522Y-40611419D02*
X197129522Y-39611419D01*
X197891427Y-40325704D02*
X198367617Y-40325704D01*
X197796189Y-40611419D02*
X198129522Y-39611419D01*
X198129522Y-39611419D02*
X198462855Y-40611419D01*
X199367617Y-40611419D02*
X199034284Y-40135228D01*
X198796189Y-40611419D02*
X198796189Y-39611419D01*
X198796189Y-39611419D02*
X199177141Y-39611419D01*
X199177141Y-39611419D02*
X199272379Y-39659038D01*
X199272379Y-39659038D02*
X199319998Y-39706657D01*
X199319998Y-39706657D02*
X199367617Y-39801895D01*
X199367617Y-39801895D02*
X199367617Y-39944752D01*
X199367617Y-39944752D02*
X199319998Y-40039990D01*
X199319998Y-40039990D02*
X199272379Y-40087609D01*
X199272379Y-40087609D02*
X199177141Y-40135228D01*
X199177141Y-40135228D02*
X198796189Y-40135228D01*
X199796189Y-40611419D02*
X199796189Y-39611419D01*
X199796189Y-39611419D02*
X200129522Y-40325704D01*
X200129522Y-40325704D02*
X200462855Y-39611419D01*
X200462855Y-39611419D02*
X200462855Y-40611419D01*
X184450695Y-55425792D02*
X184450695Y-55882935D01*
X184450695Y-55654363D02*
X183650695Y-55654363D01*
X183650695Y-55654363D02*
X183764980Y-55730554D01*
X183764980Y-55730554D02*
X183841171Y-55806744D01*
X183841171Y-55806744D02*
X183879266Y-55882935D01*
X183650695Y-54930553D02*
X183650695Y-54854363D01*
X183650695Y-54854363D02*
X183688790Y-54778172D01*
X183688790Y-54778172D02*
X183726885Y-54740077D01*
X183726885Y-54740077D02*
X183803076Y-54701982D01*
X183803076Y-54701982D02*
X183955457Y-54663887D01*
X183955457Y-54663887D02*
X184145933Y-54663887D01*
X184145933Y-54663887D02*
X184298314Y-54701982D01*
X184298314Y-54701982D02*
X184374504Y-54740077D01*
X184374504Y-54740077D02*
X184412600Y-54778172D01*
X184412600Y-54778172D02*
X184450695Y-54854363D01*
X184450695Y-54854363D02*
X184450695Y-54930553D01*
X184450695Y-54930553D02*
X184412600Y-55006744D01*
X184412600Y-55006744D02*
X184374504Y-55044839D01*
X184374504Y-55044839D02*
X184298314Y-55082934D01*
X184298314Y-55082934D02*
X184145933Y-55121030D01*
X184145933Y-55121030D02*
X183955457Y-55121030D01*
X183955457Y-55121030D02*
X183803076Y-55082934D01*
X183803076Y-55082934D02*
X183726885Y-55044839D01*
X183726885Y-55044839D02*
X183688790Y-55006744D01*
X183688790Y-55006744D02*
X183650695Y-54930553D01*
X183650695Y-54168648D02*
X183650695Y-54092458D01*
X183650695Y-54092458D02*
X183688790Y-54016267D01*
X183688790Y-54016267D02*
X183726885Y-53978172D01*
X183726885Y-53978172D02*
X183803076Y-53940077D01*
X183803076Y-53940077D02*
X183955457Y-53901982D01*
X183955457Y-53901982D02*
X184145933Y-53901982D01*
X184145933Y-53901982D02*
X184298314Y-53940077D01*
X184298314Y-53940077D02*
X184374504Y-53978172D01*
X184374504Y-53978172D02*
X184412600Y-54016267D01*
X184412600Y-54016267D02*
X184450695Y-54092458D01*
X184450695Y-54092458D02*
X184450695Y-54168648D01*
X184450695Y-54168648D02*
X184412600Y-54244839D01*
X184412600Y-54244839D02*
X184374504Y-54282934D01*
X184374504Y-54282934D02*
X184298314Y-54321029D01*
X184298314Y-54321029D02*
X184145933Y-54359125D01*
X184145933Y-54359125D02*
X183955457Y-54359125D01*
X183955457Y-54359125D02*
X183803076Y-54321029D01*
X183803076Y-54321029D02*
X183726885Y-54282934D01*
X183726885Y-54282934D02*
X183688790Y-54244839D01*
X183688790Y-54244839D02*
X183650695Y-54168648D01*
X183917361Y-53559124D02*
X184450695Y-53559124D01*
X183993552Y-53559124D02*
X183955457Y-53521029D01*
X183955457Y-53521029D02*
X183917361Y-53444839D01*
X183917361Y-53444839D02*
X183917361Y-53330553D01*
X183917361Y-53330553D02*
X183955457Y-53254362D01*
X183955457Y-53254362D02*
X184031647Y-53216267D01*
X184031647Y-53216267D02*
X184450695Y-53216267D01*
D13*
X148691695Y-83683819D02*
X148691695Y-84493342D01*
X148691695Y-84493342D02*
X148739314Y-84588580D01*
X148739314Y-84588580D02*
X148786933Y-84636200D01*
X148786933Y-84636200D02*
X148882171Y-84683819D01*
X148882171Y-84683819D02*
X149072647Y-84683819D01*
X149072647Y-84683819D02*
X149167885Y-84636200D01*
X149167885Y-84636200D02*
X149215504Y-84588580D01*
X149215504Y-84588580D02*
X149263123Y-84493342D01*
X149263123Y-84493342D02*
X149263123Y-83683819D01*
X150263123Y-84683819D02*
X149691695Y-84683819D01*
X149977409Y-84683819D02*
X149977409Y-83683819D01*
X149977409Y-83683819D02*
X149882171Y-83826676D01*
X149882171Y-83826676D02*
X149786933Y-83921914D01*
X149786933Y-83921914D02*
X149691695Y-83969533D01*
D10*
X144557979Y-71639419D02*
X144557979Y-70639419D01*
X145034169Y-71639419D02*
X145034169Y-70639419D01*
X145034169Y-70639419D02*
X145605597Y-71639419D01*
X145605597Y-71639419D02*
X145605597Y-70639419D01*
X145938931Y-70639419D02*
X146510359Y-70639419D01*
X146224645Y-71639419D02*
X146224645Y-70639419D01*
X144510360Y-74091800D02*
X144653217Y-74139419D01*
X144653217Y-74139419D02*
X144891312Y-74139419D01*
X144891312Y-74139419D02*
X144986550Y-74091800D01*
X144986550Y-74091800D02*
X145034169Y-74044180D01*
X145034169Y-74044180D02*
X145081788Y-73948942D01*
X145081788Y-73948942D02*
X145081788Y-73853704D01*
X145081788Y-73853704D02*
X145034169Y-73758466D01*
X145034169Y-73758466D02*
X144986550Y-73710847D01*
X144986550Y-73710847D02*
X144891312Y-73663228D01*
X144891312Y-73663228D02*
X144700836Y-73615609D01*
X144700836Y-73615609D02*
X144605598Y-73567990D01*
X144605598Y-73567990D02*
X144557979Y-73520371D01*
X144557979Y-73520371D02*
X144510360Y-73425133D01*
X144510360Y-73425133D02*
X144510360Y-73329895D01*
X144510360Y-73329895D02*
X144557979Y-73234657D01*
X144557979Y-73234657D02*
X144605598Y-73187038D01*
X144605598Y-73187038D02*
X144700836Y-73139419D01*
X144700836Y-73139419D02*
X144938931Y-73139419D01*
X144938931Y-73139419D02*
X145081788Y-73187038D01*
X145510360Y-74139419D02*
X145510360Y-73139419D01*
X145510360Y-73139419D02*
X145748455Y-73139419D01*
X145748455Y-73139419D02*
X145891312Y-73187038D01*
X145891312Y-73187038D02*
X145986550Y-73282276D01*
X145986550Y-73282276D02*
X146034169Y-73377514D01*
X146034169Y-73377514D02*
X146081788Y-73567990D01*
X146081788Y-73567990D02*
X146081788Y-73710847D01*
X146081788Y-73710847D02*
X146034169Y-73901323D01*
X146034169Y-73901323D02*
X145986550Y-73996561D01*
X145986550Y-73996561D02*
X145891312Y-74091800D01*
X145891312Y-74091800D02*
X145748455Y-74139419D01*
X145748455Y-74139419D02*
X145510360Y-74139419D01*
X146462741Y-73853704D02*
X146938931Y-73853704D01*
X146367503Y-74139419D02*
X146700836Y-73139419D01*
X146700836Y-73139419D02*
X147034169Y-74139419D01*
X144510360Y-76591800D02*
X144653217Y-76639419D01*
X144653217Y-76639419D02*
X144891312Y-76639419D01*
X144891312Y-76639419D02*
X144986550Y-76591800D01*
X144986550Y-76591800D02*
X145034169Y-76544180D01*
X145034169Y-76544180D02*
X145081788Y-76448942D01*
X145081788Y-76448942D02*
X145081788Y-76353704D01*
X145081788Y-76353704D02*
X145034169Y-76258466D01*
X145034169Y-76258466D02*
X144986550Y-76210847D01*
X144986550Y-76210847D02*
X144891312Y-76163228D01*
X144891312Y-76163228D02*
X144700836Y-76115609D01*
X144700836Y-76115609D02*
X144605598Y-76067990D01*
X144605598Y-76067990D02*
X144557979Y-76020371D01*
X144557979Y-76020371D02*
X144510360Y-75925133D01*
X144510360Y-75925133D02*
X144510360Y-75829895D01*
X144510360Y-75829895D02*
X144557979Y-75734657D01*
X144557979Y-75734657D02*
X144605598Y-75687038D01*
X144605598Y-75687038D02*
X144700836Y-75639419D01*
X144700836Y-75639419D02*
X144938931Y-75639419D01*
X144938931Y-75639419D02*
X145081788Y-75687038D01*
X146081788Y-76544180D02*
X146034169Y-76591800D01*
X146034169Y-76591800D02*
X145891312Y-76639419D01*
X145891312Y-76639419D02*
X145796074Y-76639419D01*
X145796074Y-76639419D02*
X145653217Y-76591800D01*
X145653217Y-76591800D02*
X145557979Y-76496561D01*
X145557979Y-76496561D02*
X145510360Y-76401323D01*
X145510360Y-76401323D02*
X145462741Y-76210847D01*
X145462741Y-76210847D02*
X145462741Y-76067990D01*
X145462741Y-76067990D02*
X145510360Y-75877514D01*
X145510360Y-75877514D02*
X145557979Y-75782276D01*
X145557979Y-75782276D02*
X145653217Y-75687038D01*
X145653217Y-75687038D02*
X145796074Y-75639419D01*
X145796074Y-75639419D02*
X145891312Y-75639419D01*
X145891312Y-75639419D02*
X146034169Y-75687038D01*
X146034169Y-75687038D02*
X146081788Y-75734657D01*
X146986550Y-76639419D02*
X146510360Y-76639419D01*
X146510360Y-76639419D02*
X146510360Y-75639419D01*
X145081788Y-78187038D02*
X144986550Y-78139419D01*
X144986550Y-78139419D02*
X144843693Y-78139419D01*
X144843693Y-78139419D02*
X144700836Y-78187038D01*
X144700836Y-78187038D02*
X144605598Y-78282276D01*
X144605598Y-78282276D02*
X144557979Y-78377514D01*
X144557979Y-78377514D02*
X144510360Y-78567990D01*
X144510360Y-78567990D02*
X144510360Y-78710847D01*
X144510360Y-78710847D02*
X144557979Y-78901323D01*
X144557979Y-78901323D02*
X144605598Y-78996561D01*
X144605598Y-78996561D02*
X144700836Y-79091800D01*
X144700836Y-79091800D02*
X144843693Y-79139419D01*
X144843693Y-79139419D02*
X144938931Y-79139419D01*
X144938931Y-79139419D02*
X145081788Y-79091800D01*
X145081788Y-79091800D02*
X145129407Y-79044180D01*
X145129407Y-79044180D02*
X145129407Y-78710847D01*
X145129407Y-78710847D02*
X144938931Y-78710847D01*
X145557979Y-79139419D02*
X145557979Y-78139419D01*
X145557979Y-78139419D02*
X146129407Y-79139419D01*
X146129407Y-79139419D02*
X146129407Y-78139419D01*
X146605598Y-79139419D02*
X146605598Y-78139419D01*
X146605598Y-78139419D02*
X146843693Y-78139419D01*
X146843693Y-78139419D02*
X146986550Y-78187038D01*
X146986550Y-78187038D02*
X147081788Y-78282276D01*
X147081788Y-78282276D02*
X147129407Y-78377514D01*
X147129407Y-78377514D02*
X147177026Y-78567990D01*
X147177026Y-78567990D02*
X147177026Y-78710847D01*
X147177026Y-78710847D02*
X147129407Y-78901323D01*
X147129407Y-78901323D02*
X147081788Y-78996561D01*
X147081788Y-78996561D02*
X146986550Y-79091800D01*
X146986550Y-79091800D02*
X146843693Y-79139419D01*
X146843693Y-79139419D02*
X146605598Y-79139419D01*
X144415122Y-80639419D02*
X144748455Y-81639419D01*
X144748455Y-81639419D02*
X145081788Y-80639419D01*
X145986550Y-81544180D02*
X145938931Y-81591800D01*
X145938931Y-81591800D02*
X145796074Y-81639419D01*
X145796074Y-81639419D02*
X145700836Y-81639419D01*
X145700836Y-81639419D02*
X145557979Y-81591800D01*
X145557979Y-81591800D02*
X145462741Y-81496561D01*
X145462741Y-81496561D02*
X145415122Y-81401323D01*
X145415122Y-81401323D02*
X145367503Y-81210847D01*
X145367503Y-81210847D02*
X145367503Y-81067990D01*
X145367503Y-81067990D02*
X145415122Y-80877514D01*
X145415122Y-80877514D02*
X145462741Y-80782276D01*
X145462741Y-80782276D02*
X145557979Y-80687038D01*
X145557979Y-80687038D02*
X145700836Y-80639419D01*
X145700836Y-80639419D02*
X145796074Y-80639419D01*
X145796074Y-80639419D02*
X145938931Y-80687038D01*
X145938931Y-80687038D02*
X145986550Y-80734657D01*
X146986550Y-81544180D02*
X146938931Y-81591800D01*
X146938931Y-81591800D02*
X146796074Y-81639419D01*
X146796074Y-81639419D02*
X146700836Y-81639419D01*
X146700836Y-81639419D02*
X146557979Y-81591800D01*
X146557979Y-81591800D02*
X146462741Y-81496561D01*
X146462741Y-81496561D02*
X146415122Y-81401323D01*
X146415122Y-81401323D02*
X146367503Y-81210847D01*
X146367503Y-81210847D02*
X146367503Y-81067990D01*
X146367503Y-81067990D02*
X146415122Y-80877514D01*
X146415122Y-80877514D02*
X146462741Y-80782276D01*
X146462741Y-80782276D02*
X146557979Y-80687038D01*
X146557979Y-80687038D02*
X146700836Y-80639419D01*
X146700836Y-80639419D02*
X146796074Y-80639419D01*
X146796074Y-80639419D02*
X146938931Y-80687038D01*
X146938931Y-80687038D02*
X146986550Y-80734657D01*
X191970819Y-66308266D02*
X191494628Y-66641599D01*
X191970819Y-66879694D02*
X190970819Y-66879694D01*
X190970819Y-66879694D02*
X190970819Y-66498742D01*
X190970819Y-66498742D02*
X191018438Y-66403504D01*
X191018438Y-66403504D02*
X191066057Y-66355885D01*
X191066057Y-66355885D02*
X191161295Y-66308266D01*
X191161295Y-66308266D02*
X191304152Y-66308266D01*
X191304152Y-66308266D02*
X191399390Y-66355885D01*
X191399390Y-66355885D02*
X191447009Y-66403504D01*
X191447009Y-66403504D02*
X191494628Y-66498742D01*
X191494628Y-66498742D02*
X191494628Y-66879694D01*
X191066057Y-65927313D02*
X191018438Y-65879694D01*
X191018438Y-65879694D02*
X190970819Y-65784456D01*
X190970819Y-65784456D02*
X190970819Y-65546361D01*
X190970819Y-65546361D02*
X191018438Y-65451123D01*
X191018438Y-65451123D02*
X191066057Y-65403504D01*
X191066057Y-65403504D02*
X191161295Y-65355885D01*
X191161295Y-65355885D02*
X191256533Y-65355885D01*
X191256533Y-65355885D02*
X191399390Y-65403504D01*
X191399390Y-65403504D02*
X191970819Y-65974932D01*
X191970819Y-65974932D02*
X191970819Y-65355885D01*
X196786667Y-66447200D02*
X196929524Y-66494819D01*
X196929524Y-66494819D02*
X197167619Y-66494819D01*
X197167619Y-66494819D02*
X197262857Y-66447200D01*
X197262857Y-66447200D02*
X197310476Y-66399580D01*
X197310476Y-66399580D02*
X197358095Y-66304342D01*
X197358095Y-66304342D02*
X197358095Y-66209104D01*
X197358095Y-66209104D02*
X197310476Y-66113866D01*
X197310476Y-66113866D02*
X197262857Y-66066247D01*
X197262857Y-66066247D02*
X197167619Y-66018628D01*
X197167619Y-66018628D02*
X196977143Y-65971009D01*
X196977143Y-65971009D02*
X196881905Y-65923390D01*
X196881905Y-65923390D02*
X196834286Y-65875771D01*
X196834286Y-65875771D02*
X196786667Y-65780533D01*
X196786667Y-65780533D02*
X196786667Y-65685295D01*
X196786667Y-65685295D02*
X196834286Y-65590057D01*
X196834286Y-65590057D02*
X196881905Y-65542438D01*
X196881905Y-65542438D02*
X196977143Y-65494819D01*
X196977143Y-65494819D02*
X197215238Y-65494819D01*
X197215238Y-65494819D02*
X197358095Y-65542438D01*
X197691429Y-65494819D02*
X197929524Y-66494819D01*
X197929524Y-66494819D02*
X198120000Y-65780533D01*
X198120000Y-65780533D02*
X198310476Y-66494819D01*
X198310476Y-66494819D02*
X198548572Y-65494819D01*
X198881905Y-65590057D02*
X198929524Y-65542438D01*
X198929524Y-65542438D02*
X199024762Y-65494819D01*
X199024762Y-65494819D02*
X199262857Y-65494819D01*
X199262857Y-65494819D02*
X199358095Y-65542438D01*
X199358095Y-65542438D02*
X199405714Y-65590057D01*
X199405714Y-65590057D02*
X199453333Y-65685295D01*
X199453333Y-65685295D02*
X199453333Y-65780533D01*
X199453333Y-65780533D02*
X199405714Y-65923390D01*
X199405714Y-65923390D02*
X198834286Y-66494819D01*
X198834286Y-66494819D02*
X199453333Y-66494819D01*
X184509580Y-71134266D02*
X184557200Y-71181885D01*
X184557200Y-71181885D02*
X184604819Y-71324742D01*
X184604819Y-71324742D02*
X184604819Y-71419980D01*
X184604819Y-71419980D02*
X184557200Y-71562837D01*
X184557200Y-71562837D02*
X184461961Y-71658075D01*
X184461961Y-71658075D02*
X184366723Y-71705694D01*
X184366723Y-71705694D02*
X184176247Y-71753313D01*
X184176247Y-71753313D02*
X184033390Y-71753313D01*
X184033390Y-71753313D02*
X183842914Y-71705694D01*
X183842914Y-71705694D02*
X183747676Y-71658075D01*
X183747676Y-71658075D02*
X183652438Y-71562837D01*
X183652438Y-71562837D02*
X183604819Y-71419980D01*
X183604819Y-71419980D02*
X183604819Y-71324742D01*
X183604819Y-71324742D02*
X183652438Y-71181885D01*
X183652438Y-71181885D02*
X183700057Y-71134266D01*
X183700057Y-70753313D02*
X183652438Y-70705694D01*
X183652438Y-70705694D02*
X183604819Y-70610456D01*
X183604819Y-70610456D02*
X183604819Y-70372361D01*
X183604819Y-70372361D02*
X183652438Y-70277123D01*
X183652438Y-70277123D02*
X183700057Y-70229504D01*
X183700057Y-70229504D02*
X183795295Y-70181885D01*
X183795295Y-70181885D02*
X183890533Y-70181885D01*
X183890533Y-70181885D02*
X184033390Y-70229504D01*
X184033390Y-70229504D02*
X184604819Y-70800932D01*
X184604819Y-70800932D02*
X184604819Y-70181885D01*
X196786667Y-77877200D02*
X196929524Y-77924819D01*
X196929524Y-77924819D02*
X197167619Y-77924819D01*
X197167619Y-77924819D02*
X197262857Y-77877200D01*
X197262857Y-77877200D02*
X197310476Y-77829580D01*
X197310476Y-77829580D02*
X197358095Y-77734342D01*
X197358095Y-77734342D02*
X197358095Y-77639104D01*
X197358095Y-77639104D02*
X197310476Y-77543866D01*
X197310476Y-77543866D02*
X197262857Y-77496247D01*
X197262857Y-77496247D02*
X197167619Y-77448628D01*
X197167619Y-77448628D02*
X196977143Y-77401009D01*
X196977143Y-77401009D02*
X196881905Y-77353390D01*
X196881905Y-77353390D02*
X196834286Y-77305771D01*
X196834286Y-77305771D02*
X196786667Y-77210533D01*
X196786667Y-77210533D02*
X196786667Y-77115295D01*
X196786667Y-77115295D02*
X196834286Y-77020057D01*
X196834286Y-77020057D02*
X196881905Y-76972438D01*
X196881905Y-76972438D02*
X196977143Y-76924819D01*
X196977143Y-76924819D02*
X197215238Y-76924819D01*
X197215238Y-76924819D02*
X197358095Y-76972438D01*
X197691429Y-76924819D02*
X197929524Y-77924819D01*
X197929524Y-77924819D02*
X198120000Y-77210533D01*
X198120000Y-77210533D02*
X198310476Y-77924819D01*
X198310476Y-77924819D02*
X198548572Y-76924819D01*
X198834286Y-76924819D02*
X199453333Y-76924819D01*
X199453333Y-76924819D02*
X199120000Y-77305771D01*
X199120000Y-77305771D02*
X199262857Y-77305771D01*
X199262857Y-77305771D02*
X199358095Y-77353390D01*
X199358095Y-77353390D02*
X199405714Y-77401009D01*
X199405714Y-77401009D02*
X199453333Y-77496247D01*
X199453333Y-77496247D02*
X199453333Y-77734342D01*
X199453333Y-77734342D02*
X199405714Y-77829580D01*
X199405714Y-77829580D02*
X199358095Y-77877200D01*
X199358095Y-77877200D02*
X199262857Y-77924819D01*
X199262857Y-77924819D02*
X198977143Y-77924819D01*
X198977143Y-77924819D02*
X198881905Y-77877200D01*
X198881905Y-77877200D02*
X198834286Y-77829580D01*
X184407980Y-81649866D02*
X184455600Y-81697485D01*
X184455600Y-81697485D02*
X184503219Y-81840342D01*
X184503219Y-81840342D02*
X184503219Y-81935580D01*
X184503219Y-81935580D02*
X184455600Y-82078437D01*
X184455600Y-82078437D02*
X184360361Y-82173675D01*
X184360361Y-82173675D02*
X184265123Y-82221294D01*
X184265123Y-82221294D02*
X184074647Y-82268913D01*
X184074647Y-82268913D02*
X183931790Y-82268913D01*
X183931790Y-82268913D02*
X183741314Y-82221294D01*
X183741314Y-82221294D02*
X183646076Y-82173675D01*
X183646076Y-82173675D02*
X183550838Y-82078437D01*
X183550838Y-82078437D02*
X183503219Y-81935580D01*
X183503219Y-81935580D02*
X183503219Y-81840342D01*
X183503219Y-81840342D02*
X183550838Y-81697485D01*
X183550838Y-81697485D02*
X183598457Y-81649866D01*
X183503219Y-81316532D02*
X183503219Y-80697485D01*
X183503219Y-80697485D02*
X183884171Y-81030818D01*
X183884171Y-81030818D02*
X183884171Y-80887961D01*
X183884171Y-80887961D02*
X183931790Y-80792723D01*
X183931790Y-80792723D02*
X183979409Y-80745104D01*
X183979409Y-80745104D02*
X184074647Y-80697485D01*
X184074647Y-80697485D02*
X184312742Y-80697485D01*
X184312742Y-80697485D02*
X184407980Y-80745104D01*
X184407980Y-80745104D02*
X184455600Y-80792723D01*
X184455600Y-80792723D02*
X184503219Y-80887961D01*
X184503219Y-80887961D02*
X184503219Y-81173675D01*
X184503219Y-81173675D02*
X184455600Y-81268913D01*
X184455600Y-81268913D02*
X184407980Y-81316532D01*
D13*
X157988095Y-66767419D02*
X157988095Y-67576942D01*
X157988095Y-67576942D02*
X158035714Y-67672180D01*
X158035714Y-67672180D02*
X158083333Y-67719800D01*
X158083333Y-67719800D02*
X158178571Y-67767419D01*
X158178571Y-67767419D02*
X158369047Y-67767419D01*
X158369047Y-67767419D02*
X158464285Y-67719800D01*
X158464285Y-67719800D02*
X158511904Y-67672180D01*
X158511904Y-67672180D02*
X158559523Y-67576942D01*
X158559523Y-67576942D02*
X158559523Y-66767419D01*
X158988095Y-66862657D02*
X159035714Y-66815038D01*
X159035714Y-66815038D02*
X159130952Y-66767419D01*
X159130952Y-66767419D02*
X159369047Y-66767419D01*
X159369047Y-66767419D02*
X159464285Y-66815038D01*
X159464285Y-66815038D02*
X159511904Y-66862657D01*
X159511904Y-66862657D02*
X159559523Y-66957895D01*
X159559523Y-66957895D02*
X159559523Y-67053133D01*
X159559523Y-67053133D02*
X159511904Y-67195990D01*
X159511904Y-67195990D02*
X158940476Y-67767419D01*
X158940476Y-67767419D02*
X159559523Y-67767419D01*
D10*
X142884638Y-44605411D02*
X142837019Y-44700649D01*
X142837019Y-44700649D02*
X142837019Y-44843506D01*
X142837019Y-44843506D02*
X142884638Y-44986363D01*
X142884638Y-44986363D02*
X142979876Y-45081601D01*
X142979876Y-45081601D02*
X143075114Y-45129220D01*
X143075114Y-45129220D02*
X143265590Y-45176839D01*
X143265590Y-45176839D02*
X143408447Y-45176839D01*
X143408447Y-45176839D02*
X143598923Y-45129220D01*
X143598923Y-45129220D02*
X143694161Y-45081601D01*
X143694161Y-45081601D02*
X143789400Y-44986363D01*
X143789400Y-44986363D02*
X143837019Y-44843506D01*
X143837019Y-44843506D02*
X143837019Y-44748268D01*
X143837019Y-44748268D02*
X143789400Y-44605411D01*
X143789400Y-44605411D02*
X143741780Y-44557792D01*
X143741780Y-44557792D02*
X143408447Y-44557792D01*
X143408447Y-44557792D02*
X143408447Y-44748268D01*
X143837019Y-44129220D02*
X142837019Y-44129220D01*
X142837019Y-44129220D02*
X143837019Y-43557792D01*
X143837019Y-43557792D02*
X142837019Y-43557792D01*
X143837019Y-43081601D02*
X142837019Y-43081601D01*
X142837019Y-43081601D02*
X142837019Y-42843506D01*
X142837019Y-42843506D02*
X142884638Y-42700649D01*
X142884638Y-42700649D02*
X142979876Y-42605411D01*
X142979876Y-42605411D02*
X143075114Y-42557792D01*
X143075114Y-42557792D02*
X143265590Y-42510173D01*
X143265590Y-42510173D02*
X143408447Y-42510173D01*
X143408447Y-42510173D02*
X143598923Y-42557792D01*
X143598923Y-42557792D02*
X143694161Y-42605411D01*
X143694161Y-42605411D02*
X143789400Y-42700649D01*
X143789400Y-42700649D02*
X143837019Y-42843506D01*
X143837019Y-42843506D02*
X143837019Y-43081601D01*
X145250019Y-45272077D02*
X146250019Y-44938744D01*
X146250019Y-44938744D02*
X145250019Y-44605411D01*
X146154780Y-43700649D02*
X146202400Y-43748268D01*
X146202400Y-43748268D02*
X146250019Y-43891125D01*
X146250019Y-43891125D02*
X146250019Y-43986363D01*
X146250019Y-43986363D02*
X146202400Y-44129220D01*
X146202400Y-44129220D02*
X146107161Y-44224458D01*
X146107161Y-44224458D02*
X146011923Y-44272077D01*
X146011923Y-44272077D02*
X145821447Y-44319696D01*
X145821447Y-44319696D02*
X145678590Y-44319696D01*
X145678590Y-44319696D02*
X145488114Y-44272077D01*
X145488114Y-44272077D02*
X145392876Y-44224458D01*
X145392876Y-44224458D02*
X145297638Y-44129220D01*
X145297638Y-44129220D02*
X145250019Y-43986363D01*
X145250019Y-43986363D02*
X145250019Y-43891125D01*
X145250019Y-43891125D02*
X145297638Y-43748268D01*
X145297638Y-43748268D02*
X145345257Y-43700649D01*
X146154780Y-42700649D02*
X146202400Y-42748268D01*
X146202400Y-42748268D02*
X146250019Y-42891125D01*
X146250019Y-42891125D02*
X146250019Y-42986363D01*
X146250019Y-42986363D02*
X146202400Y-43129220D01*
X146202400Y-43129220D02*
X146107161Y-43224458D01*
X146107161Y-43224458D02*
X146011923Y-43272077D01*
X146011923Y-43272077D02*
X145821447Y-43319696D01*
X145821447Y-43319696D02*
X145678590Y-43319696D01*
X145678590Y-43319696D02*
X145488114Y-43272077D01*
X145488114Y-43272077D02*
X145392876Y-43224458D01*
X145392876Y-43224458D02*
X145297638Y-43129220D01*
X145297638Y-43129220D02*
X145250019Y-42986363D01*
X145250019Y-42986363D02*
X145250019Y-42891125D01*
X145250019Y-42891125D02*
X145297638Y-42748268D01*
X145297638Y-42748268D02*
X145345257Y-42700649D01*
X148742400Y-45176839D02*
X148790019Y-45033982D01*
X148790019Y-45033982D02*
X148790019Y-44795887D01*
X148790019Y-44795887D02*
X148742400Y-44700649D01*
X148742400Y-44700649D02*
X148694780Y-44653030D01*
X148694780Y-44653030D02*
X148599542Y-44605411D01*
X148599542Y-44605411D02*
X148504304Y-44605411D01*
X148504304Y-44605411D02*
X148409066Y-44653030D01*
X148409066Y-44653030D02*
X148361447Y-44700649D01*
X148361447Y-44700649D02*
X148313828Y-44795887D01*
X148313828Y-44795887D02*
X148266209Y-44986363D01*
X148266209Y-44986363D02*
X148218590Y-45081601D01*
X148218590Y-45081601D02*
X148170971Y-45129220D01*
X148170971Y-45129220D02*
X148075733Y-45176839D01*
X148075733Y-45176839D02*
X147980495Y-45176839D01*
X147980495Y-45176839D02*
X147885257Y-45129220D01*
X147885257Y-45129220D02*
X147837638Y-45081601D01*
X147837638Y-45081601D02*
X147790019Y-44986363D01*
X147790019Y-44986363D02*
X147790019Y-44748268D01*
X147790019Y-44748268D02*
X147837638Y-44605411D01*
X148694780Y-43605411D02*
X148742400Y-43653030D01*
X148742400Y-43653030D02*
X148790019Y-43795887D01*
X148790019Y-43795887D02*
X148790019Y-43891125D01*
X148790019Y-43891125D02*
X148742400Y-44033982D01*
X148742400Y-44033982D02*
X148647161Y-44129220D01*
X148647161Y-44129220D02*
X148551923Y-44176839D01*
X148551923Y-44176839D02*
X148361447Y-44224458D01*
X148361447Y-44224458D02*
X148218590Y-44224458D01*
X148218590Y-44224458D02*
X148028114Y-44176839D01*
X148028114Y-44176839D02*
X147932876Y-44129220D01*
X147932876Y-44129220D02*
X147837638Y-44033982D01*
X147837638Y-44033982D02*
X147790019Y-43891125D01*
X147790019Y-43891125D02*
X147790019Y-43795887D01*
X147790019Y-43795887D02*
X147837638Y-43653030D01*
X147837638Y-43653030D02*
X147885257Y-43605411D01*
X148790019Y-42700649D02*
X148790019Y-43176839D01*
X148790019Y-43176839D02*
X147790019Y-43176839D01*
X151409400Y-45176839D02*
X151457019Y-45033982D01*
X151457019Y-45033982D02*
X151457019Y-44795887D01*
X151457019Y-44795887D02*
X151409400Y-44700649D01*
X151409400Y-44700649D02*
X151361780Y-44653030D01*
X151361780Y-44653030D02*
X151266542Y-44605411D01*
X151266542Y-44605411D02*
X151171304Y-44605411D01*
X151171304Y-44605411D02*
X151076066Y-44653030D01*
X151076066Y-44653030D02*
X151028447Y-44700649D01*
X151028447Y-44700649D02*
X150980828Y-44795887D01*
X150980828Y-44795887D02*
X150933209Y-44986363D01*
X150933209Y-44986363D02*
X150885590Y-45081601D01*
X150885590Y-45081601D02*
X150837971Y-45129220D01*
X150837971Y-45129220D02*
X150742733Y-45176839D01*
X150742733Y-45176839D02*
X150647495Y-45176839D01*
X150647495Y-45176839D02*
X150552257Y-45129220D01*
X150552257Y-45129220D02*
X150504638Y-45081601D01*
X150504638Y-45081601D02*
X150457019Y-44986363D01*
X150457019Y-44986363D02*
X150457019Y-44748268D01*
X150457019Y-44748268D02*
X150504638Y-44605411D01*
X151457019Y-44176839D02*
X150457019Y-44176839D01*
X150457019Y-44176839D02*
X150457019Y-43938744D01*
X150457019Y-43938744D02*
X150504638Y-43795887D01*
X150504638Y-43795887D02*
X150599876Y-43700649D01*
X150599876Y-43700649D02*
X150695114Y-43653030D01*
X150695114Y-43653030D02*
X150885590Y-43605411D01*
X150885590Y-43605411D02*
X151028447Y-43605411D01*
X151028447Y-43605411D02*
X151218923Y-43653030D01*
X151218923Y-43653030D02*
X151314161Y-43700649D01*
X151314161Y-43700649D02*
X151409400Y-43795887D01*
X151409400Y-43795887D02*
X151457019Y-43938744D01*
X151457019Y-43938744D02*
X151457019Y-44176839D01*
X151171304Y-43224458D02*
X151171304Y-42748268D01*
X151457019Y-43319696D02*
X150457019Y-42986363D01*
X150457019Y-42986363D02*
X151457019Y-42653030D01*
X184509580Y-59856666D02*
X184557200Y-59904285D01*
X184557200Y-59904285D02*
X184604819Y-60047142D01*
X184604819Y-60047142D02*
X184604819Y-60142380D01*
X184604819Y-60142380D02*
X184557200Y-60285237D01*
X184557200Y-60285237D02*
X184461961Y-60380475D01*
X184461961Y-60380475D02*
X184366723Y-60428094D01*
X184366723Y-60428094D02*
X184176247Y-60475713D01*
X184176247Y-60475713D02*
X184033390Y-60475713D01*
X184033390Y-60475713D02*
X183842914Y-60428094D01*
X183842914Y-60428094D02*
X183747676Y-60380475D01*
X183747676Y-60380475D02*
X183652438Y-60285237D01*
X183652438Y-60285237D02*
X183604819Y-60142380D01*
X183604819Y-60142380D02*
X183604819Y-60047142D01*
X183604819Y-60047142D02*
X183652438Y-59904285D01*
X183652438Y-59904285D02*
X183700057Y-59856666D01*
X184604819Y-58904285D02*
X184604819Y-59475713D01*
X184604819Y-59189999D02*
X183604819Y-59189999D01*
X183604819Y-59189999D02*
X183747676Y-59285237D01*
X183747676Y-59285237D02*
X183842914Y-59380475D01*
X183842914Y-59380475D02*
X183890533Y-59475713D01*
X197381905Y-48864819D02*
X197381905Y-47864819D01*
X197381905Y-47864819D02*
X197620000Y-47864819D01*
X197620000Y-47864819D02*
X197762857Y-47912438D01*
X197762857Y-47912438D02*
X197858095Y-48007676D01*
X197858095Y-48007676D02*
X197905714Y-48102914D01*
X197905714Y-48102914D02*
X197953333Y-48293390D01*
X197953333Y-48293390D02*
X197953333Y-48436247D01*
X197953333Y-48436247D02*
X197905714Y-48626723D01*
X197905714Y-48626723D02*
X197858095Y-48721961D01*
X197858095Y-48721961D02*
X197762857Y-48817200D01*
X197762857Y-48817200D02*
X197620000Y-48864819D01*
X197620000Y-48864819D02*
X197381905Y-48864819D01*
X198905714Y-48864819D02*
X198334286Y-48864819D01*
X198620000Y-48864819D02*
X198620000Y-47864819D01*
X198620000Y-47864819D02*
X198524762Y-48007676D01*
X198524762Y-48007676D02*
X198429524Y-48102914D01*
X198429524Y-48102914D02*
X198334286Y-48150533D01*
X192072419Y-55081466D02*
X191596228Y-55414799D01*
X192072419Y-55652894D02*
X191072419Y-55652894D01*
X191072419Y-55652894D02*
X191072419Y-55271942D01*
X191072419Y-55271942D02*
X191120038Y-55176704D01*
X191120038Y-55176704D02*
X191167657Y-55129085D01*
X191167657Y-55129085D02*
X191262895Y-55081466D01*
X191262895Y-55081466D02*
X191405752Y-55081466D01*
X191405752Y-55081466D02*
X191500990Y-55129085D01*
X191500990Y-55129085D02*
X191548609Y-55176704D01*
X191548609Y-55176704D02*
X191596228Y-55271942D01*
X191596228Y-55271942D02*
X191596228Y-55652894D01*
X192072419Y-54129085D02*
X192072419Y-54700513D01*
X192072419Y-54414799D02*
X191072419Y-54414799D01*
X191072419Y-54414799D02*
X191215276Y-54510037D01*
X191215276Y-54510037D02*
X191310514Y-54605275D01*
X191310514Y-54605275D02*
X191358133Y-54700513D01*
X192123219Y-77687466D02*
X191647028Y-78020799D01*
X192123219Y-78258894D02*
X191123219Y-78258894D01*
X191123219Y-78258894D02*
X191123219Y-77877942D01*
X191123219Y-77877942D02*
X191170838Y-77782704D01*
X191170838Y-77782704D02*
X191218457Y-77735085D01*
X191218457Y-77735085D02*
X191313695Y-77687466D01*
X191313695Y-77687466D02*
X191456552Y-77687466D01*
X191456552Y-77687466D02*
X191551790Y-77735085D01*
X191551790Y-77735085D02*
X191599409Y-77782704D01*
X191599409Y-77782704D02*
X191647028Y-77877942D01*
X191647028Y-77877942D02*
X191647028Y-78258894D01*
X191123219Y-77354132D02*
X191123219Y-76735085D01*
X191123219Y-76735085D02*
X191504171Y-77068418D01*
X191504171Y-77068418D02*
X191504171Y-76925561D01*
X191504171Y-76925561D02*
X191551790Y-76830323D01*
X191551790Y-76830323D02*
X191599409Y-76782704D01*
X191599409Y-76782704D02*
X191694647Y-76735085D01*
X191694647Y-76735085D02*
X191932742Y-76735085D01*
X191932742Y-76735085D02*
X192027980Y-76782704D01*
X192027980Y-76782704D02*
X192075600Y-76830323D01*
X192075600Y-76830323D02*
X192123219Y-76925561D01*
X192123219Y-76925561D02*
X192123219Y-77211275D01*
X192123219Y-77211275D02*
X192075600Y-77306513D01*
X192075600Y-77306513D02*
X192027980Y-77354132D01*
X170735714Y-85259104D02*
X171211904Y-85259104D01*
X170640476Y-85544819D02*
X170973809Y-84544819D01*
X170973809Y-84544819D02*
X171307142Y-85544819D01*
X172164285Y-85544819D02*
X171592857Y-85544819D01*
X171878571Y-85544819D02*
X171878571Y-84544819D01*
X171878571Y-84544819D02*
X171783333Y-84687676D01*
X171783333Y-84687676D02*
X171688095Y-84782914D01*
X171688095Y-84782914D02*
X171592857Y-84830533D01*
X170188095Y-43904819D02*
X170188095Y-44714342D01*
X170188095Y-44714342D02*
X170235714Y-44809580D01*
X170235714Y-44809580D02*
X170283333Y-44857200D01*
X170283333Y-44857200D02*
X170378571Y-44904819D01*
X170378571Y-44904819D02*
X170569047Y-44904819D01*
X170569047Y-44904819D02*
X170664285Y-44857200D01*
X170664285Y-44857200D02*
X170711904Y-44809580D01*
X170711904Y-44809580D02*
X170759523Y-44714342D01*
X170759523Y-44714342D02*
X170759523Y-43904819D01*
X171188095Y-44857200D02*
X171330952Y-44904819D01*
X171330952Y-44904819D02*
X171569047Y-44904819D01*
X171569047Y-44904819D02*
X171664285Y-44857200D01*
X171664285Y-44857200D02*
X171711904Y-44809580D01*
X171711904Y-44809580D02*
X171759523Y-44714342D01*
X171759523Y-44714342D02*
X171759523Y-44619104D01*
X171759523Y-44619104D02*
X171711904Y-44523866D01*
X171711904Y-44523866D02*
X171664285Y-44476247D01*
X171664285Y-44476247D02*
X171569047Y-44428628D01*
X171569047Y-44428628D02*
X171378571Y-44381009D01*
X171378571Y-44381009D02*
X171283333Y-44333390D01*
X171283333Y-44333390D02*
X171235714Y-44285771D01*
X171235714Y-44285771D02*
X171188095Y-44190533D01*
X171188095Y-44190533D02*
X171188095Y-44095295D01*
X171188095Y-44095295D02*
X171235714Y-44000057D01*
X171235714Y-44000057D02*
X171283333Y-43952438D01*
X171283333Y-43952438D02*
X171378571Y-43904819D01*
X171378571Y-43904819D02*
X171616666Y-43904819D01*
X171616666Y-43904819D02*
X171759523Y-43952438D01*
X172521428Y-44381009D02*
X172664285Y-44428628D01*
X172664285Y-44428628D02*
X172711904Y-44476247D01*
X172711904Y-44476247D02*
X172759523Y-44571485D01*
X172759523Y-44571485D02*
X172759523Y-44714342D01*
X172759523Y-44714342D02*
X172711904Y-44809580D01*
X172711904Y-44809580D02*
X172664285Y-44857200D01*
X172664285Y-44857200D02*
X172569047Y-44904819D01*
X172569047Y-44904819D02*
X172188095Y-44904819D01*
X172188095Y-44904819D02*
X172188095Y-43904819D01*
X172188095Y-43904819D02*
X172521428Y-43904819D01*
X172521428Y-43904819D02*
X172616666Y-43952438D01*
X172616666Y-43952438D02*
X172664285Y-44000057D01*
X172664285Y-44000057D02*
X172711904Y-44095295D01*
X172711904Y-44095295D02*
X172711904Y-44190533D01*
X172711904Y-44190533D02*
X172664285Y-44285771D01*
X172664285Y-44285771D02*
X172616666Y-44333390D01*
X172616666Y-44333390D02*
X172521428Y-44381009D01*
X172521428Y-44381009D02*
X172188095Y-44381009D01*
X187563333Y-40824819D02*
X187230000Y-40348628D01*
X186991905Y-40824819D02*
X186991905Y-39824819D01*
X186991905Y-39824819D02*
X187372857Y-39824819D01*
X187372857Y-39824819D02*
X187468095Y-39872438D01*
X187468095Y-39872438D02*
X187515714Y-39920057D01*
X187515714Y-39920057D02*
X187563333Y-40015295D01*
X187563333Y-40015295D02*
X187563333Y-40158152D01*
X187563333Y-40158152D02*
X187515714Y-40253390D01*
X187515714Y-40253390D02*
X187468095Y-40301009D01*
X187468095Y-40301009D02*
X187372857Y-40348628D01*
X187372857Y-40348628D02*
X186991905Y-40348628D01*
X188420476Y-40158152D02*
X188420476Y-40824819D01*
X188182381Y-39777200D02*
X187944286Y-40491485D01*
X187944286Y-40491485D02*
X188563333Y-40491485D01*
X196786667Y-55017200D02*
X196929524Y-55064819D01*
X196929524Y-55064819D02*
X197167619Y-55064819D01*
X197167619Y-55064819D02*
X197262857Y-55017200D01*
X197262857Y-55017200D02*
X197310476Y-54969580D01*
X197310476Y-54969580D02*
X197358095Y-54874342D01*
X197358095Y-54874342D02*
X197358095Y-54779104D01*
X197358095Y-54779104D02*
X197310476Y-54683866D01*
X197310476Y-54683866D02*
X197262857Y-54636247D01*
X197262857Y-54636247D02*
X197167619Y-54588628D01*
X197167619Y-54588628D02*
X196977143Y-54541009D01*
X196977143Y-54541009D02*
X196881905Y-54493390D01*
X196881905Y-54493390D02*
X196834286Y-54445771D01*
X196834286Y-54445771D02*
X196786667Y-54350533D01*
X196786667Y-54350533D02*
X196786667Y-54255295D01*
X196786667Y-54255295D02*
X196834286Y-54160057D01*
X196834286Y-54160057D02*
X196881905Y-54112438D01*
X196881905Y-54112438D02*
X196977143Y-54064819D01*
X196977143Y-54064819D02*
X197215238Y-54064819D01*
X197215238Y-54064819D02*
X197358095Y-54112438D01*
X197691429Y-54064819D02*
X197929524Y-55064819D01*
X197929524Y-55064819D02*
X198120000Y-54350533D01*
X198120000Y-54350533D02*
X198310476Y-55064819D01*
X198310476Y-55064819D02*
X198548572Y-54064819D01*
X199453333Y-55064819D02*
X198881905Y-55064819D01*
X199167619Y-55064819D02*
X199167619Y-54064819D01*
X199167619Y-54064819D02*
X199072381Y-54207676D01*
X199072381Y-54207676D02*
X198977143Y-54302914D01*
X198977143Y-54302914D02*
X198881905Y-54350533D01*
%TO.C,U1*%
D13*
X136510000Y-69200000D02*
X150510000Y-69200000D01*
X136510000Y-69200000D02*
X150510000Y-69200000D01*
X136510000Y-83200000D02*
X136510000Y-69200000D01*
X136510000Y-83200000D02*
X136510000Y-69200000D01*
X150510000Y-69200000D02*
X150510000Y-83200000D01*
X150510000Y-69200000D02*
X150510000Y-83200000D01*
X150510000Y-83200000D02*
X136510000Y-83200000D01*
X150510000Y-83200000D02*
X136510000Y-83200000D01*
%TO.C,R2*%
D14*
X187860000Y-62770000D02*
X188190000Y-62770000D01*
X187860000Y-69310000D02*
X187860000Y-62770000D01*
X188190000Y-69310000D02*
X187860000Y-69310000D01*
X190270000Y-69310000D02*
X190600000Y-69310000D01*
X190600000Y-62770000D02*
X190270000Y-62770000D01*
X190600000Y-69310000D02*
X190600000Y-62770000D01*
%TO.C,SW2*%
X194870000Y-63790000D02*
X194870000Y-68290000D01*
X197370000Y-69540000D02*
X198870000Y-69540000D01*
X198870000Y-62540000D02*
X197370000Y-62540000D01*
X201370000Y-68290000D02*
X201370000Y-63790000D01*
%TO.C,C2*%
X182780000Y-63530000D02*
X183110000Y-63530000D01*
X182780000Y-68470000D02*
X182780000Y-63530000D01*
X183110000Y-68470000D02*
X182780000Y-68470000D01*
X185190000Y-63530000D02*
X185520000Y-63530000D01*
X185520000Y-63530000D02*
X185520000Y-68470000D01*
X185520000Y-68470000D02*
X185190000Y-68470000D01*
%TO.C,SW3*%
X194870000Y-75220000D02*
X194870000Y-79720000D01*
X197370000Y-80970000D02*
X198870000Y-80970000D01*
X198870000Y-73970000D02*
X197370000Y-73970000D01*
X201370000Y-79720000D02*
X201370000Y-75220000D01*
%TO.C,C3*%
X182678400Y-74096400D02*
X183008400Y-74096400D01*
X182678400Y-79036400D02*
X182678400Y-74096400D01*
X183008400Y-79036400D02*
X182678400Y-79036400D01*
X185088400Y-74096400D02*
X185418400Y-74096400D01*
X185418400Y-74096400D02*
X185418400Y-79036400D01*
X185418400Y-79036400D02*
X185088400Y-79036400D01*
%TO.C,U2*%
D13*
X133320000Y-38070000D02*
X161320000Y-38070000D01*
X133320000Y-66070000D02*
X133320000Y-38070000D01*
X161320000Y-38070000D02*
X161320000Y-66070000D01*
X161320000Y-66070000D02*
X133320000Y-66070000D01*
X133320000Y-38070000D02*
X161320000Y-38070000D01*
X161320000Y-66070000D01*
X133320000Y-66070000D01*
X133320000Y-38070000D01*
%TO.C,C1*%
D14*
X182780000Y-52140000D02*
X183110000Y-52140000D01*
X182780000Y-57080000D02*
X182780000Y-52140000D01*
X183110000Y-57080000D02*
X182780000Y-57080000D01*
X185190000Y-52140000D02*
X185520000Y-52140000D01*
X185520000Y-52140000D02*
X185520000Y-57080000D01*
X185520000Y-57080000D02*
X185190000Y-57080000D01*
%TO.C,D1*%
X200680000Y-45995000D02*
X200680000Y-42905000D01*
X195130000Y-44450000D02*
G75*
G02*
X200680000Y-42905170I2990000J0D01*
G01*
X200680000Y-45994830D02*
G75*
G02*
X195130000Y-44450000I-2560000J1544830D01*
G01*
X200620000Y-44450000D02*
G75*
G02*
X195620000Y-44450000I-2500000J0D01*
G01*
X195620000Y-44450000D02*
G75*
G02*
X200620000Y-44450000I2500000J0D01*
G01*
%TO.C,R1*%
X187860000Y-51340000D02*
X188190000Y-51340000D01*
X187860000Y-57880000D02*
X187860000Y-51340000D01*
X188190000Y-57880000D02*
X187860000Y-57880000D01*
X190270000Y-57880000D02*
X190600000Y-57880000D01*
X190600000Y-51340000D02*
X190270000Y-51340000D01*
X190600000Y-57880000D02*
X190600000Y-51340000D01*
%TO.C,R3*%
X187860000Y-74200000D02*
X188190000Y-74200000D01*
X187860000Y-80740000D02*
X187860000Y-74200000D01*
X188190000Y-80740000D02*
X187860000Y-80740000D01*
X190270000Y-80740000D02*
X190600000Y-80740000D01*
X190600000Y-74200000D02*
X190270000Y-74200000D01*
X190600000Y-80740000D02*
X190600000Y-74200000D01*
%TO.C,A1*%
X162430000Y-40510000D02*
X162430000Y-83950000D01*
X162430000Y-40510000D02*
X167510000Y-40510000D01*
X162430000Y-83950000D02*
X180470000Y-83950000D01*
X165100000Y-43180000D02*
X162430000Y-43180000D01*
X165100000Y-81280000D02*
X162430000Y-81280000D01*
X165100000Y-81280000D02*
X165100000Y-43180000D01*
X167510000Y-37970000D02*
X175390000Y-37970000D01*
X167510000Y-48390000D02*
X167510000Y-37970000D01*
X175390000Y-37970000D02*
X175390000Y-48390000D01*
X175390000Y-48390000D02*
X167510000Y-48390000D01*
X177800000Y-43180000D02*
X180470000Y-43180000D01*
X177800000Y-78740000D02*
X177800000Y-43180000D01*
X177800000Y-78740000D02*
X177800000Y-81280000D01*
X177800000Y-78740000D02*
X180470000Y-78740000D01*
X177800000Y-81280000D02*
X180470000Y-81280000D01*
X180470000Y-40510000D02*
X175390000Y-40510000D01*
X180470000Y-78740000D02*
X180470000Y-40510000D01*
X180470000Y-83950000D02*
X180470000Y-81280000D01*
%TO.C,R4*%
X184460000Y-41370000D02*
X191000000Y-41370000D01*
X184460000Y-41700000D02*
X184460000Y-41370000D01*
X184460000Y-43780000D02*
X184460000Y-44110000D01*
X184460000Y-44110000D02*
X191000000Y-44110000D01*
X191000000Y-41370000D02*
X191000000Y-41700000D01*
X191000000Y-44110000D02*
X191000000Y-43780000D01*
%TO.C,SW1*%
X194870000Y-52360000D02*
X194870000Y-56860000D01*
X197370000Y-58110000D02*
X198870000Y-58110000D01*
X198870000Y-51110000D02*
X197370000Y-51110000D01*
X201370000Y-56860000D02*
X201370000Y-52360000D01*
%TD*%
M02*
