%TF.GenerationSoftware,KiCad,Pcbnew,10.0.0*%
%TF.CreationDate,2026-04-02T11:02:04-07:00*%
%TF.ProjectId,SPO2_Sensor,53504f32-5f53-4656-9e73-6f722e6b6963,rev?*%
%TF.SameCoordinates,Original*%
%TF.FileFunction,Soldermask,Top*%
%TF.FilePolarity,Negative*%
%FSLAX46Y46*%
G04 Gerber Fmt 4.6, Leading zero omitted, Abs format (unit mm)*
G04 Created by KiCad (PCBNEW 10.0.0) date 2026-04-02 11:02:04*
%MOMM*%
%LPD*%
G01*
G04 APERTURE LIST*
G04 APERTURE END LIST*
G36*
X189462228Y-80514448D02*
G01*
X189607117Y-80574463D01*
X189737515Y-80661592D01*
X189848408Y-80772485D01*
X189935537Y-80902883D01*
X189995552Y-81047772D01*
X190026148Y-81201586D01*
X190026148Y-81358414D01*
X189995552Y-81512228D01*
X189935537Y-81657117D01*
X189848408Y-81787515D01*
X189737515Y-81898408D01*
X189607117Y-81985537D01*
X189462228Y-82045552D01*
X189308414Y-82076148D01*
X189151586Y-82076148D01*
X188997772Y-82045552D01*
X188852883Y-81985537D01*
X188722485Y-81898408D01*
X188611592Y-81787515D01*
X188524463Y-81657117D01*
X188464448Y-81512228D01*
X188433852Y-81358414D01*
X188433852Y-81201586D01*
X188464448Y-81047772D01*
X188524463Y-80902883D01*
X188611592Y-80772485D01*
X188722485Y-80661592D01*
X188852883Y-80574463D01*
X188997772Y-80514448D01*
X189151586Y-80483852D01*
X189308414Y-80483852D01*
X189462228Y-80514448D01*
G37*
G36*
X148811197Y-80550811D02*
G01*
X148949204Y-80607976D01*
X149073408Y-80690966D01*
X149179034Y-80796592D01*
X149262024Y-80920796D01*
X149319189Y-81058803D01*
X149348331Y-81205311D01*
X149348331Y-81354689D01*
X149319189Y-81501197D01*
X149262024Y-81639204D01*
X149179034Y-81763408D01*
X149073408Y-81869034D01*
X148949204Y-81952024D01*
X148811197Y-82009189D01*
X148664689Y-82038331D01*
X148515311Y-82038331D01*
X148368803Y-82009189D01*
X148230796Y-81952024D01*
X148106592Y-81869034D01*
X148000966Y-81763408D01*
X147917976Y-81639204D01*
X147860811Y-81501197D01*
X147831669Y-81354689D01*
X147831669Y-81205311D01*
X147860811Y-81058803D01*
X147917976Y-80920796D01*
X148000966Y-80796592D01*
X148106592Y-80690966D01*
X148230796Y-80607976D01*
X148368803Y-80550811D01*
X148515311Y-80521669D01*
X148664689Y-80521669D01*
X148811197Y-80550811D01*
G37*
G36*
X196160285Y-79763060D02*
G01*
X196341397Y-79838079D01*
X196504393Y-79946990D01*
X196643010Y-80085607D01*
X196751921Y-80248603D01*
X196826940Y-80429715D01*
X196865185Y-80621983D01*
X196865185Y-80818017D01*
X196826940Y-81010285D01*
X196751921Y-81191397D01*
X196643010Y-81354393D01*
X196504393Y-81493010D01*
X196341397Y-81601921D01*
X196160285Y-81676940D01*
X195968017Y-81715185D01*
X195771983Y-81715185D01*
X195579715Y-81676940D01*
X195398603Y-81601921D01*
X195235607Y-81493010D01*
X195096990Y-81354393D01*
X194988079Y-81191397D01*
X194913060Y-81010285D01*
X194874815Y-80818017D01*
X194874815Y-80621983D01*
X194913060Y-80429715D01*
X194988079Y-80248603D01*
X195096990Y-80085607D01*
X195235607Y-79946990D01*
X195398603Y-79838079D01*
X195579715Y-79763060D01*
X195771983Y-79724815D01*
X195968017Y-79724815D01*
X196160285Y-79763060D01*
G37*
G36*
X200660285Y-79763060D02*
G01*
X200841397Y-79838079D01*
X201004393Y-79946990D01*
X201143010Y-80085607D01*
X201251921Y-80248603D01*
X201326940Y-80429715D01*
X201365185Y-80621983D01*
X201365185Y-80818017D01*
X201326940Y-81010285D01*
X201251921Y-81191397D01*
X201143010Y-81354393D01*
X201004393Y-81493010D01*
X200841397Y-81601921D01*
X200660285Y-81676940D01*
X200468017Y-81715185D01*
X200271983Y-81715185D01*
X200079715Y-81676940D01*
X199898603Y-81601921D01*
X199735607Y-81493010D01*
X199596990Y-81354393D01*
X199488079Y-81191397D01*
X199413060Y-81010285D01*
X199374815Y-80818017D01*
X199374815Y-80621983D01*
X199413060Y-80429715D01*
X199488079Y-80248603D01*
X199596990Y-80085607D01*
X199735607Y-79946990D01*
X199898603Y-79838079D01*
X200079715Y-79763060D01*
X200271983Y-79724815D01*
X200468017Y-79724815D01*
X200660285Y-79763060D01*
G37*
G36*
X179870000Y-80810000D02*
G01*
X178270000Y-80810000D01*
X178270000Y-79210000D01*
X179870000Y-79210000D01*
X179870000Y-80810000D01*
G37*
G36*
X164062228Y-79244448D02*
G01*
X164207117Y-79304463D01*
X164337515Y-79391592D01*
X164448408Y-79502485D01*
X164535537Y-79632883D01*
X164595552Y-79777772D01*
X164626148Y-79931586D01*
X164626148Y-80088414D01*
X164595552Y-80242228D01*
X164535537Y-80387117D01*
X164448408Y-80517515D01*
X164337515Y-80628408D01*
X164207117Y-80715537D01*
X164062228Y-80775552D01*
X163908414Y-80806148D01*
X163751586Y-80806148D01*
X163597772Y-80775552D01*
X163452883Y-80715537D01*
X163322485Y-80628408D01*
X163211592Y-80517515D01*
X163124463Y-80387117D01*
X163064448Y-80242228D01*
X163033852Y-80088414D01*
X163033852Y-79931586D01*
X163064448Y-79777772D01*
X163124463Y-79632883D01*
X163211592Y-79502485D01*
X163322485Y-79391592D01*
X163452883Y-79304463D01*
X163597772Y-79244448D01*
X163751586Y-79213852D01*
X163908414Y-79213852D01*
X164062228Y-79244448D01*
G37*
G36*
X184280628Y-78300848D02*
G01*
X184425517Y-78360863D01*
X184555915Y-78447992D01*
X184666808Y-78558885D01*
X184753937Y-78689283D01*
X184813952Y-78834172D01*
X184844548Y-78987986D01*
X184844548Y-79144814D01*
X184813952Y-79298628D01*
X184753937Y-79443517D01*
X184666808Y-79573915D01*
X184555915Y-79684808D01*
X184425517Y-79771937D01*
X184280628Y-79831952D01*
X184126814Y-79862548D01*
X183969986Y-79862548D01*
X183816172Y-79831952D01*
X183671283Y-79771937D01*
X183540885Y-79684808D01*
X183429992Y-79573915D01*
X183342863Y-79443517D01*
X183282848Y-79298628D01*
X183252252Y-79144814D01*
X183252252Y-78987986D01*
X183282848Y-78834172D01*
X183342863Y-78689283D01*
X183429992Y-78558885D01*
X183540885Y-78447992D01*
X183671283Y-78360863D01*
X183816172Y-78300848D01*
X183969986Y-78270252D01*
X184126814Y-78270252D01*
X184280628Y-78300848D01*
G37*
G36*
X148811197Y-78010811D02*
G01*
X148949204Y-78067976D01*
X149073408Y-78150966D01*
X149179034Y-78256592D01*
X149262024Y-78380796D01*
X149319189Y-78518803D01*
X149348331Y-78665311D01*
X149348331Y-78814689D01*
X149319189Y-78961197D01*
X149262024Y-79099204D01*
X149179034Y-79223408D01*
X149073408Y-79329034D01*
X148949204Y-79412024D01*
X148811197Y-79469189D01*
X148664689Y-79498331D01*
X148515311Y-79498331D01*
X148368803Y-79469189D01*
X148230796Y-79412024D01*
X148106592Y-79329034D01*
X148000966Y-79223408D01*
X147917976Y-79099204D01*
X147860811Y-78961197D01*
X147831669Y-78814689D01*
X147831669Y-78665311D01*
X147860811Y-78518803D01*
X147917976Y-78380796D01*
X148000966Y-78256592D01*
X148106592Y-78150966D01*
X148230796Y-78067976D01*
X148368803Y-78010811D01*
X148515311Y-77981669D01*
X148664689Y-77981669D01*
X148811197Y-78010811D01*
G37*
G36*
X164062228Y-76704448D02*
G01*
X164207117Y-76764463D01*
X164337515Y-76851592D01*
X164448408Y-76962485D01*
X164535537Y-77092883D01*
X164595552Y-77237772D01*
X164626148Y-77391586D01*
X164626148Y-77548414D01*
X164595552Y-77702228D01*
X164535537Y-77847117D01*
X164448408Y-77977515D01*
X164337515Y-78088408D01*
X164207117Y-78175537D01*
X164062228Y-78235552D01*
X163908414Y-78266148D01*
X163751586Y-78266148D01*
X163597772Y-78235552D01*
X163452883Y-78175537D01*
X163322485Y-78088408D01*
X163211592Y-77977515D01*
X163124463Y-77847117D01*
X163064448Y-77702228D01*
X163033852Y-77548414D01*
X163033852Y-77391586D01*
X163064448Y-77237772D01*
X163124463Y-77092883D01*
X163211592Y-76962485D01*
X163322485Y-76851592D01*
X163452883Y-76764463D01*
X163597772Y-76704448D01*
X163751586Y-76673852D01*
X163908414Y-76673852D01*
X164062228Y-76704448D01*
G37*
G36*
X179302228Y-76704448D02*
G01*
X179447117Y-76764463D01*
X179577515Y-76851592D01*
X179688408Y-76962485D01*
X179775537Y-77092883D01*
X179835552Y-77237772D01*
X179866148Y-77391586D01*
X179866148Y-77548414D01*
X179835552Y-77702228D01*
X179775537Y-77847117D01*
X179688408Y-77977515D01*
X179577515Y-78088408D01*
X179447117Y-78175537D01*
X179302228Y-78235552D01*
X179148414Y-78266148D01*
X178991586Y-78266148D01*
X178837772Y-78235552D01*
X178692883Y-78175537D01*
X178562485Y-78088408D01*
X178451592Y-77977515D01*
X178364463Y-77847117D01*
X178304448Y-77702228D01*
X178273852Y-77548414D01*
X178273852Y-77391586D01*
X178304448Y-77237772D01*
X178364463Y-77092883D01*
X178451592Y-76962485D01*
X178562485Y-76851592D01*
X178692883Y-76764463D01*
X178837772Y-76704448D01*
X178991586Y-76673852D01*
X179148414Y-76673852D01*
X179302228Y-76704448D01*
G37*
G36*
X148811197Y-75470811D02*
G01*
X148949204Y-75527976D01*
X149073408Y-75610966D01*
X149179034Y-75716592D01*
X149262024Y-75840796D01*
X149319189Y-75978803D01*
X149348331Y-76125311D01*
X149348331Y-76274689D01*
X149319189Y-76421197D01*
X149262024Y-76559204D01*
X149179034Y-76683408D01*
X149073408Y-76789034D01*
X148949204Y-76872024D01*
X148811197Y-76929189D01*
X148664689Y-76958331D01*
X148515311Y-76958331D01*
X148368803Y-76929189D01*
X148230796Y-76872024D01*
X148106592Y-76789034D01*
X148000966Y-76683408D01*
X147917976Y-76559204D01*
X147860811Y-76421197D01*
X147831669Y-76274689D01*
X147831669Y-76125311D01*
X147860811Y-75978803D01*
X147917976Y-75840796D01*
X148000966Y-75716592D01*
X148106592Y-75610966D01*
X148230796Y-75527976D01*
X148368803Y-75470811D01*
X148515311Y-75441669D01*
X148664689Y-75441669D01*
X148811197Y-75470811D01*
G37*
G36*
X164062228Y-74164448D02*
G01*
X164207117Y-74224463D01*
X164337515Y-74311592D01*
X164448408Y-74422485D01*
X164535537Y-74552883D01*
X164595552Y-74697772D01*
X164626148Y-74851586D01*
X164626148Y-75008414D01*
X164595552Y-75162228D01*
X164535537Y-75307117D01*
X164448408Y-75437515D01*
X164337515Y-75548408D01*
X164207117Y-75635537D01*
X164062228Y-75695552D01*
X163908414Y-75726148D01*
X163751586Y-75726148D01*
X163597772Y-75695552D01*
X163452883Y-75635537D01*
X163322485Y-75548408D01*
X163211592Y-75437515D01*
X163124463Y-75307117D01*
X163064448Y-75162228D01*
X163033852Y-75008414D01*
X163033852Y-74851586D01*
X163064448Y-74697772D01*
X163124463Y-74552883D01*
X163211592Y-74422485D01*
X163322485Y-74311592D01*
X163452883Y-74224463D01*
X163597772Y-74164448D01*
X163751586Y-74133852D01*
X163908414Y-74133852D01*
X164062228Y-74164448D01*
G37*
G36*
X179302228Y-74164448D02*
G01*
X179447117Y-74224463D01*
X179577515Y-74311592D01*
X179688408Y-74422485D01*
X179775537Y-74552883D01*
X179835552Y-74697772D01*
X179866148Y-74851586D01*
X179866148Y-75008414D01*
X179835552Y-75162228D01*
X179775537Y-75307117D01*
X179688408Y-75437515D01*
X179577515Y-75548408D01*
X179447117Y-75635537D01*
X179302228Y-75695552D01*
X179148414Y-75726148D01*
X178991586Y-75726148D01*
X178837772Y-75695552D01*
X178692883Y-75635537D01*
X178562485Y-75548408D01*
X178451592Y-75437515D01*
X178364463Y-75307117D01*
X178304448Y-75162228D01*
X178273852Y-75008414D01*
X178273852Y-74851586D01*
X178304448Y-74697772D01*
X178364463Y-74552883D01*
X178451592Y-74422485D01*
X178562485Y-74311592D01*
X178692883Y-74224463D01*
X178837772Y-74164448D01*
X178991586Y-74133852D01*
X179148414Y-74133852D01*
X179302228Y-74164448D01*
G37*
G36*
X196160285Y-73263060D02*
G01*
X196341397Y-73338079D01*
X196504393Y-73446990D01*
X196643010Y-73585607D01*
X196751921Y-73748603D01*
X196826940Y-73929715D01*
X196865185Y-74121983D01*
X196865185Y-74318017D01*
X196826940Y-74510285D01*
X196751921Y-74691397D01*
X196643010Y-74854393D01*
X196504393Y-74993010D01*
X196341397Y-75101921D01*
X196160285Y-75176940D01*
X195968017Y-75215185D01*
X195771983Y-75215185D01*
X195579715Y-75176940D01*
X195398603Y-75101921D01*
X195235607Y-74993010D01*
X195096990Y-74854393D01*
X194988079Y-74691397D01*
X194913060Y-74510285D01*
X194874815Y-74318017D01*
X194874815Y-74121983D01*
X194913060Y-73929715D01*
X194988079Y-73748603D01*
X195096990Y-73585607D01*
X195235607Y-73446990D01*
X195398603Y-73338079D01*
X195579715Y-73263060D01*
X195771983Y-73224815D01*
X195968017Y-73224815D01*
X196160285Y-73263060D01*
G37*
G36*
X200660285Y-73263060D02*
G01*
X200841397Y-73338079D01*
X201004393Y-73446990D01*
X201143010Y-73585607D01*
X201251921Y-73748603D01*
X201326940Y-73929715D01*
X201365185Y-74121983D01*
X201365185Y-74318017D01*
X201326940Y-74510285D01*
X201251921Y-74691397D01*
X201143010Y-74854393D01*
X201004393Y-74993010D01*
X200841397Y-75101921D01*
X200660285Y-75176940D01*
X200468017Y-75215185D01*
X200271983Y-75215185D01*
X200079715Y-75176940D01*
X199898603Y-75101921D01*
X199735607Y-74993010D01*
X199596990Y-74854393D01*
X199488079Y-74691397D01*
X199413060Y-74510285D01*
X199374815Y-74318017D01*
X199374815Y-74121983D01*
X199413060Y-73929715D01*
X199488079Y-73748603D01*
X199596990Y-73585607D01*
X199735607Y-73446990D01*
X199898603Y-73338079D01*
X200079715Y-73263060D01*
X200271983Y-73224815D01*
X200468017Y-73224815D01*
X200660285Y-73263060D01*
G37*
G36*
X184280628Y-73300848D02*
G01*
X184425517Y-73360863D01*
X184555915Y-73447992D01*
X184666808Y-73558885D01*
X184753937Y-73689283D01*
X184813952Y-73834172D01*
X184844548Y-73987986D01*
X184844548Y-74144814D01*
X184813952Y-74298628D01*
X184753937Y-74443517D01*
X184666808Y-74573915D01*
X184555915Y-74684808D01*
X184425517Y-74771937D01*
X184280628Y-74831952D01*
X184126814Y-74862548D01*
X183969986Y-74862548D01*
X183816172Y-74831952D01*
X183671283Y-74771937D01*
X183540885Y-74684808D01*
X183429992Y-74573915D01*
X183342863Y-74443517D01*
X183282848Y-74298628D01*
X183252252Y-74144814D01*
X183252252Y-73987986D01*
X183282848Y-73834172D01*
X183342863Y-73689283D01*
X183429992Y-73558885D01*
X183540885Y-73447992D01*
X183671283Y-73360863D01*
X183816172Y-73300848D01*
X183969986Y-73270252D01*
X184126814Y-73270252D01*
X184280628Y-73300848D01*
G37*
G36*
X189462228Y-72894448D02*
G01*
X189607117Y-72954463D01*
X189737515Y-73041592D01*
X189848408Y-73152485D01*
X189935537Y-73282883D01*
X189995552Y-73427772D01*
X190026148Y-73581586D01*
X190026148Y-73738414D01*
X189995552Y-73892228D01*
X189935537Y-74037117D01*
X189848408Y-74167515D01*
X189737515Y-74278408D01*
X189607117Y-74365537D01*
X189462228Y-74425552D01*
X189308414Y-74456148D01*
X189151586Y-74456148D01*
X188997772Y-74425552D01*
X188852883Y-74365537D01*
X188722485Y-74278408D01*
X188611592Y-74167515D01*
X188524463Y-74037117D01*
X188464448Y-73892228D01*
X188433852Y-73738414D01*
X188433852Y-73581586D01*
X188464448Y-73427772D01*
X188524463Y-73282883D01*
X188611592Y-73152485D01*
X188722485Y-73041592D01*
X188852883Y-72954463D01*
X188997772Y-72894448D01*
X189151586Y-72863852D01*
X189308414Y-72863852D01*
X189462228Y-72894448D01*
G37*
G36*
X148811197Y-72930811D02*
G01*
X148949204Y-72987976D01*
X149073408Y-73070966D01*
X149179034Y-73176592D01*
X149262024Y-73300796D01*
X149319189Y-73438803D01*
X149348331Y-73585311D01*
X149348331Y-73734689D01*
X149319189Y-73881197D01*
X149262024Y-74019204D01*
X149179034Y-74143408D01*
X149073408Y-74249034D01*
X148949204Y-74332024D01*
X148811197Y-74389189D01*
X148664689Y-74418331D01*
X148515311Y-74418331D01*
X148368803Y-74389189D01*
X148230796Y-74332024D01*
X148106592Y-74249034D01*
X148000966Y-74143408D01*
X147917976Y-74019204D01*
X147860811Y-73881197D01*
X147831669Y-73734689D01*
X147831669Y-73585311D01*
X147860811Y-73438803D01*
X147917976Y-73300796D01*
X148000966Y-73176592D01*
X148106592Y-73070966D01*
X148230796Y-72987976D01*
X148368803Y-72930811D01*
X148515311Y-72901669D01*
X148664689Y-72901669D01*
X148811197Y-72930811D01*
G37*
G36*
X164062228Y-71624448D02*
G01*
X164207117Y-71684463D01*
X164337515Y-71771592D01*
X164448408Y-71882485D01*
X164535537Y-72012883D01*
X164595552Y-72157772D01*
X164626148Y-72311586D01*
X164626148Y-72468414D01*
X164595552Y-72622228D01*
X164535537Y-72767117D01*
X164448408Y-72897515D01*
X164337515Y-73008408D01*
X164207117Y-73095537D01*
X164062228Y-73155552D01*
X163908414Y-73186148D01*
X163751586Y-73186148D01*
X163597772Y-73155552D01*
X163452883Y-73095537D01*
X163322485Y-73008408D01*
X163211592Y-72897515D01*
X163124463Y-72767117D01*
X163064448Y-72622228D01*
X163033852Y-72468414D01*
X163033852Y-72311586D01*
X163064448Y-72157772D01*
X163124463Y-72012883D01*
X163211592Y-71882485D01*
X163322485Y-71771592D01*
X163452883Y-71684463D01*
X163597772Y-71624448D01*
X163751586Y-71593852D01*
X163908414Y-71593852D01*
X164062228Y-71624448D01*
G37*
G36*
X179302228Y-71624448D02*
G01*
X179447117Y-71684463D01*
X179577515Y-71771592D01*
X179688408Y-71882485D01*
X179775537Y-72012883D01*
X179835552Y-72157772D01*
X179866148Y-72311586D01*
X179866148Y-72468414D01*
X179835552Y-72622228D01*
X179775537Y-72767117D01*
X179688408Y-72897515D01*
X179577515Y-73008408D01*
X179447117Y-73095537D01*
X179302228Y-73155552D01*
X179148414Y-73186148D01*
X178991586Y-73186148D01*
X178837772Y-73155552D01*
X178692883Y-73095537D01*
X178562485Y-73008408D01*
X178451592Y-72897515D01*
X178364463Y-72767117D01*
X178304448Y-72622228D01*
X178273852Y-72468414D01*
X178273852Y-72311586D01*
X178304448Y-72157772D01*
X178364463Y-72012883D01*
X178451592Y-71882485D01*
X178562485Y-71771592D01*
X178692883Y-71684463D01*
X178837772Y-71624448D01*
X178991586Y-71593852D01*
X179148414Y-71593852D01*
X179302228Y-71624448D01*
G37*
G36*
X149352000Y-71882000D02*
G01*
X147828000Y-71882000D01*
X147828000Y-70358000D01*
X149352000Y-70358000D01*
X149352000Y-71882000D01*
G37*
G36*
X164062228Y-69084448D02*
G01*
X164207117Y-69144463D01*
X164337515Y-69231592D01*
X164448408Y-69342485D01*
X164535537Y-69472883D01*
X164595552Y-69617772D01*
X164626148Y-69771586D01*
X164626148Y-69928414D01*
X164595552Y-70082228D01*
X164535537Y-70227117D01*
X164448408Y-70357515D01*
X164337515Y-70468408D01*
X164207117Y-70555537D01*
X164062228Y-70615552D01*
X163908414Y-70646148D01*
X163751586Y-70646148D01*
X163597772Y-70615552D01*
X163452883Y-70555537D01*
X163322485Y-70468408D01*
X163211592Y-70357515D01*
X163124463Y-70227117D01*
X163064448Y-70082228D01*
X163033852Y-69928414D01*
X163033852Y-69771586D01*
X163064448Y-69617772D01*
X163124463Y-69472883D01*
X163211592Y-69342485D01*
X163322485Y-69231592D01*
X163452883Y-69144463D01*
X163597772Y-69084448D01*
X163751586Y-69053852D01*
X163908414Y-69053852D01*
X164062228Y-69084448D01*
G37*
G36*
X179302228Y-69084448D02*
G01*
X179447117Y-69144463D01*
X179577515Y-69231592D01*
X179688408Y-69342485D01*
X179775537Y-69472883D01*
X179835552Y-69617772D01*
X179866148Y-69771586D01*
X179866148Y-69928414D01*
X179835552Y-70082228D01*
X179775537Y-70227117D01*
X179688408Y-70357515D01*
X179577515Y-70468408D01*
X179447117Y-70555537D01*
X179302228Y-70615552D01*
X179148414Y-70646148D01*
X178991586Y-70646148D01*
X178837772Y-70615552D01*
X178692883Y-70555537D01*
X178562485Y-70468408D01*
X178451592Y-70357515D01*
X178364463Y-70227117D01*
X178304448Y-70082228D01*
X178273852Y-69928414D01*
X178273852Y-69771586D01*
X178304448Y-69617772D01*
X178364463Y-69472883D01*
X178451592Y-69342485D01*
X178562485Y-69231592D01*
X178692883Y-69144463D01*
X178837772Y-69084448D01*
X178991586Y-69053852D01*
X179148414Y-69053852D01*
X179302228Y-69084448D01*
G37*
G36*
X189462228Y-69084448D02*
G01*
X189607117Y-69144463D01*
X189737515Y-69231592D01*
X189848408Y-69342485D01*
X189935537Y-69472883D01*
X189995552Y-69617772D01*
X190026148Y-69771586D01*
X190026148Y-69928414D01*
X189995552Y-70082228D01*
X189935537Y-70227117D01*
X189848408Y-70357515D01*
X189737515Y-70468408D01*
X189607117Y-70555537D01*
X189462228Y-70615552D01*
X189308414Y-70646148D01*
X189151586Y-70646148D01*
X188997772Y-70615552D01*
X188852883Y-70555537D01*
X188722485Y-70468408D01*
X188611592Y-70357515D01*
X188524463Y-70227117D01*
X188464448Y-70082228D01*
X188433852Y-69928414D01*
X188433852Y-69771586D01*
X188464448Y-69617772D01*
X188524463Y-69472883D01*
X188611592Y-69342485D01*
X188722485Y-69231592D01*
X188852883Y-69144463D01*
X188997772Y-69084448D01*
X189151586Y-69053852D01*
X189308414Y-69053852D01*
X189462228Y-69084448D01*
G37*
G36*
X196160285Y-68333060D02*
G01*
X196341397Y-68408079D01*
X196504393Y-68516990D01*
X196643010Y-68655607D01*
X196751921Y-68818603D01*
X196826940Y-68999715D01*
X196865185Y-69191983D01*
X196865185Y-69388017D01*
X196826940Y-69580285D01*
X196751921Y-69761397D01*
X196643010Y-69924393D01*
X196504393Y-70063010D01*
X196341397Y-70171921D01*
X196160285Y-70246940D01*
X195968017Y-70285185D01*
X195771983Y-70285185D01*
X195579715Y-70246940D01*
X195398603Y-70171921D01*
X195235607Y-70063010D01*
X195096990Y-69924393D01*
X194988079Y-69761397D01*
X194913060Y-69580285D01*
X194874815Y-69388017D01*
X194874815Y-69191983D01*
X194913060Y-68999715D01*
X194988079Y-68818603D01*
X195096990Y-68655607D01*
X195235607Y-68516990D01*
X195398603Y-68408079D01*
X195579715Y-68333060D01*
X195771983Y-68294815D01*
X195968017Y-68294815D01*
X196160285Y-68333060D01*
G37*
G36*
X200660285Y-68333060D02*
G01*
X200841397Y-68408079D01*
X201004393Y-68516990D01*
X201143010Y-68655607D01*
X201251921Y-68818603D01*
X201326940Y-68999715D01*
X201365185Y-69191983D01*
X201365185Y-69388017D01*
X201326940Y-69580285D01*
X201251921Y-69761397D01*
X201143010Y-69924393D01*
X201004393Y-70063010D01*
X200841397Y-70171921D01*
X200660285Y-70246940D01*
X200468017Y-70285185D01*
X200271983Y-70285185D01*
X200079715Y-70246940D01*
X199898603Y-70171921D01*
X199735607Y-70063010D01*
X199596990Y-69924393D01*
X199488079Y-69761397D01*
X199413060Y-69580285D01*
X199374815Y-69388017D01*
X199374815Y-69191983D01*
X199413060Y-68999715D01*
X199488079Y-68818603D01*
X199596990Y-68655607D01*
X199735607Y-68516990D01*
X199898603Y-68408079D01*
X200079715Y-68333060D01*
X200271983Y-68294815D01*
X200468017Y-68294815D01*
X200660285Y-68333060D01*
G37*
G36*
X184382228Y-67734448D02*
G01*
X184527117Y-67794463D01*
X184657515Y-67881592D01*
X184768408Y-67992485D01*
X184855537Y-68122883D01*
X184915552Y-68267772D01*
X184946148Y-68421586D01*
X184946148Y-68578414D01*
X184915552Y-68732228D01*
X184855537Y-68877117D01*
X184768408Y-69007515D01*
X184657515Y-69118408D01*
X184527117Y-69205537D01*
X184382228Y-69265552D01*
X184228414Y-69296148D01*
X184071586Y-69296148D01*
X183917772Y-69265552D01*
X183772883Y-69205537D01*
X183642485Y-69118408D01*
X183531592Y-69007515D01*
X183444463Y-68877117D01*
X183384448Y-68732228D01*
X183353852Y-68578414D01*
X183353852Y-68421586D01*
X183384448Y-68267772D01*
X183444463Y-68122883D01*
X183531592Y-67992485D01*
X183642485Y-67881592D01*
X183772883Y-67794463D01*
X183917772Y-67734448D01*
X184071586Y-67703852D01*
X184228414Y-67703852D01*
X184382228Y-67734448D01*
G37*
G36*
X164062228Y-66544448D02*
G01*
X164207117Y-66604463D01*
X164337515Y-66691592D01*
X164448408Y-66802485D01*
X164535537Y-66932883D01*
X164595552Y-67077772D01*
X164626148Y-67231586D01*
X164626148Y-67388414D01*
X164595552Y-67542228D01*
X164535537Y-67687117D01*
X164448408Y-67817515D01*
X164337515Y-67928408D01*
X164207117Y-68015537D01*
X164062228Y-68075552D01*
X163908414Y-68106148D01*
X163751586Y-68106148D01*
X163597772Y-68075552D01*
X163452883Y-68015537D01*
X163322485Y-67928408D01*
X163211592Y-67817515D01*
X163124463Y-67687117D01*
X163064448Y-67542228D01*
X163033852Y-67388414D01*
X163033852Y-67231586D01*
X163064448Y-67077772D01*
X163124463Y-66932883D01*
X163211592Y-66802485D01*
X163322485Y-66691592D01*
X163452883Y-66604463D01*
X163597772Y-66544448D01*
X163751586Y-66513852D01*
X163908414Y-66513852D01*
X164062228Y-66544448D01*
G37*
G36*
X179302228Y-66544448D02*
G01*
X179447117Y-66604463D01*
X179577515Y-66691592D01*
X179688408Y-66802485D01*
X179775537Y-66932883D01*
X179835552Y-67077772D01*
X179866148Y-67231586D01*
X179866148Y-67388414D01*
X179835552Y-67542228D01*
X179775537Y-67687117D01*
X179688408Y-67817515D01*
X179577515Y-67928408D01*
X179447117Y-68015537D01*
X179302228Y-68075552D01*
X179148414Y-68106148D01*
X178991586Y-68106148D01*
X178837772Y-68075552D01*
X178692883Y-68015537D01*
X178562485Y-67928408D01*
X178451592Y-67817515D01*
X178364463Y-67687117D01*
X178304448Y-67542228D01*
X178273852Y-67388414D01*
X178273852Y-67231586D01*
X178304448Y-67077772D01*
X178364463Y-66932883D01*
X178451592Y-66802485D01*
X178562485Y-66691592D01*
X178692883Y-66604463D01*
X178837772Y-66544448D01*
X178991586Y-66513852D01*
X179148414Y-66513852D01*
X179302228Y-66544448D01*
G37*
G36*
X164062228Y-64004448D02*
G01*
X164207117Y-64064463D01*
X164337515Y-64151592D01*
X164448408Y-64262485D01*
X164535537Y-64392883D01*
X164595552Y-64537772D01*
X164626148Y-64691586D01*
X164626148Y-64848414D01*
X164595552Y-65002228D01*
X164535537Y-65147117D01*
X164448408Y-65277515D01*
X164337515Y-65388408D01*
X164207117Y-65475537D01*
X164062228Y-65535552D01*
X163908414Y-65566148D01*
X163751586Y-65566148D01*
X163597772Y-65535552D01*
X163452883Y-65475537D01*
X163322485Y-65388408D01*
X163211592Y-65277515D01*
X163124463Y-65147117D01*
X163064448Y-65002228D01*
X163033852Y-64848414D01*
X163033852Y-64691586D01*
X163064448Y-64537772D01*
X163124463Y-64392883D01*
X163211592Y-64262485D01*
X163322485Y-64151592D01*
X163452883Y-64064463D01*
X163597772Y-64004448D01*
X163751586Y-63973852D01*
X163908414Y-63973852D01*
X164062228Y-64004448D01*
G37*
G36*
X179302228Y-64004448D02*
G01*
X179447117Y-64064463D01*
X179577515Y-64151592D01*
X179688408Y-64262485D01*
X179775537Y-64392883D01*
X179835552Y-64537772D01*
X179866148Y-64691586D01*
X179866148Y-64848414D01*
X179835552Y-65002228D01*
X179775537Y-65147117D01*
X179688408Y-65277515D01*
X179577515Y-65388408D01*
X179447117Y-65475537D01*
X179302228Y-65535552D01*
X179148414Y-65566148D01*
X178991586Y-65566148D01*
X178837772Y-65535552D01*
X178692883Y-65475537D01*
X178562485Y-65388408D01*
X178451592Y-65277515D01*
X178364463Y-65147117D01*
X178304448Y-65002228D01*
X178273852Y-64848414D01*
X178273852Y-64691586D01*
X178304448Y-64537772D01*
X178364463Y-64392883D01*
X178451592Y-64262485D01*
X178562485Y-64151592D01*
X178692883Y-64064463D01*
X178837772Y-64004448D01*
X178991586Y-63973852D01*
X179148414Y-63973852D01*
X179302228Y-64004448D01*
G37*
G36*
X184382228Y-62734448D02*
G01*
X184527117Y-62794463D01*
X184657515Y-62881592D01*
X184768408Y-62992485D01*
X184855537Y-63122883D01*
X184915552Y-63267772D01*
X184946148Y-63421586D01*
X184946148Y-63578414D01*
X184915552Y-63732228D01*
X184855537Y-63877117D01*
X184768408Y-64007515D01*
X184657515Y-64118408D01*
X184527117Y-64205537D01*
X184382228Y-64265552D01*
X184228414Y-64296148D01*
X184071586Y-64296148D01*
X183917772Y-64265552D01*
X183772883Y-64205537D01*
X183642485Y-64118408D01*
X183531592Y-64007515D01*
X183444463Y-63877117D01*
X183384448Y-63732228D01*
X183353852Y-63578414D01*
X183353852Y-63421586D01*
X183384448Y-63267772D01*
X183444463Y-63122883D01*
X183531592Y-62992485D01*
X183642485Y-62881592D01*
X183772883Y-62794463D01*
X183917772Y-62734448D01*
X184071586Y-62703852D01*
X184228414Y-62703852D01*
X184382228Y-62734448D01*
G37*
G36*
X196160285Y-61833060D02*
G01*
X196341397Y-61908079D01*
X196504393Y-62016990D01*
X196643010Y-62155607D01*
X196751921Y-62318603D01*
X196826940Y-62499715D01*
X196865185Y-62691983D01*
X196865185Y-62888017D01*
X196826940Y-63080285D01*
X196751921Y-63261397D01*
X196643010Y-63424393D01*
X196504393Y-63563010D01*
X196341397Y-63671921D01*
X196160285Y-63746940D01*
X195968017Y-63785185D01*
X195771983Y-63785185D01*
X195579715Y-63746940D01*
X195398603Y-63671921D01*
X195235607Y-63563010D01*
X195096990Y-63424393D01*
X194988079Y-63261397D01*
X194913060Y-63080285D01*
X194874815Y-62888017D01*
X194874815Y-62691983D01*
X194913060Y-62499715D01*
X194988079Y-62318603D01*
X195096990Y-62155607D01*
X195235607Y-62016990D01*
X195398603Y-61908079D01*
X195579715Y-61833060D01*
X195771983Y-61794815D01*
X195968017Y-61794815D01*
X196160285Y-61833060D01*
G37*
G36*
X200660285Y-61833060D02*
G01*
X200841397Y-61908079D01*
X201004393Y-62016990D01*
X201143010Y-62155607D01*
X201251921Y-62318603D01*
X201326940Y-62499715D01*
X201365185Y-62691983D01*
X201365185Y-62888017D01*
X201326940Y-63080285D01*
X201251921Y-63261397D01*
X201143010Y-63424393D01*
X201004393Y-63563010D01*
X200841397Y-63671921D01*
X200660285Y-63746940D01*
X200468017Y-63785185D01*
X200271983Y-63785185D01*
X200079715Y-63746940D01*
X199898603Y-63671921D01*
X199735607Y-63563010D01*
X199596990Y-63424393D01*
X199488079Y-63261397D01*
X199413060Y-63080285D01*
X199374815Y-62888017D01*
X199374815Y-62691983D01*
X199413060Y-62499715D01*
X199488079Y-62318603D01*
X199596990Y-62155607D01*
X199735607Y-62016990D01*
X199898603Y-61908079D01*
X200079715Y-61833060D01*
X200271983Y-61794815D01*
X200468017Y-61794815D01*
X200660285Y-61833060D01*
G37*
G36*
X164062228Y-61464448D02*
G01*
X164207117Y-61524463D01*
X164337515Y-61611592D01*
X164448408Y-61722485D01*
X164535537Y-61852883D01*
X164595552Y-61997772D01*
X164626148Y-62151586D01*
X164626148Y-62308414D01*
X164595552Y-62462228D01*
X164535537Y-62607117D01*
X164448408Y-62737515D01*
X164337515Y-62848408D01*
X164207117Y-62935537D01*
X164062228Y-62995552D01*
X163908414Y-63026148D01*
X163751586Y-63026148D01*
X163597772Y-62995552D01*
X163452883Y-62935537D01*
X163322485Y-62848408D01*
X163211592Y-62737515D01*
X163124463Y-62607117D01*
X163064448Y-62462228D01*
X163033852Y-62308414D01*
X163033852Y-62151586D01*
X163064448Y-61997772D01*
X163124463Y-61852883D01*
X163211592Y-61722485D01*
X163322485Y-61611592D01*
X163452883Y-61524463D01*
X163597772Y-61464448D01*
X163751586Y-61433852D01*
X163908414Y-61433852D01*
X164062228Y-61464448D01*
G37*
G36*
X179302228Y-61464448D02*
G01*
X179447117Y-61524463D01*
X179577515Y-61611592D01*
X179688408Y-61722485D01*
X179775537Y-61852883D01*
X179835552Y-61997772D01*
X179866148Y-62151586D01*
X179866148Y-62308414D01*
X179835552Y-62462228D01*
X179775537Y-62607117D01*
X179688408Y-62737515D01*
X179577515Y-62848408D01*
X179447117Y-62935537D01*
X179302228Y-62995552D01*
X179148414Y-63026148D01*
X178991586Y-63026148D01*
X178837772Y-62995552D01*
X178692883Y-62935537D01*
X178562485Y-62848408D01*
X178451592Y-62737515D01*
X178364463Y-62607117D01*
X178304448Y-62462228D01*
X178273852Y-62308414D01*
X178273852Y-62151586D01*
X178304448Y-61997772D01*
X178364463Y-61852883D01*
X178451592Y-61722485D01*
X178562485Y-61611592D01*
X178692883Y-61524463D01*
X178837772Y-61464448D01*
X178991586Y-61433852D01*
X179148414Y-61433852D01*
X179302228Y-61464448D01*
G37*
G36*
X189462228Y-61464448D02*
G01*
X189607117Y-61524463D01*
X189737515Y-61611592D01*
X189848408Y-61722485D01*
X189935537Y-61852883D01*
X189995552Y-61997772D01*
X190026148Y-62151586D01*
X190026148Y-62308414D01*
X189995552Y-62462228D01*
X189935537Y-62607117D01*
X189848408Y-62737515D01*
X189737515Y-62848408D01*
X189607117Y-62935537D01*
X189462228Y-62995552D01*
X189308414Y-63026148D01*
X189151586Y-63026148D01*
X188997772Y-62995552D01*
X188852883Y-62935537D01*
X188722485Y-62848408D01*
X188611592Y-62737515D01*
X188524463Y-62607117D01*
X188464448Y-62462228D01*
X188433852Y-62308414D01*
X188433852Y-62151586D01*
X188464448Y-61997772D01*
X188524463Y-61852883D01*
X188611592Y-61722485D01*
X188722485Y-61611592D01*
X188852883Y-61524463D01*
X188997772Y-61464448D01*
X189151586Y-61433852D01*
X189308414Y-61433852D01*
X189462228Y-61464448D01*
G37*
G36*
X164062228Y-58924448D02*
G01*
X164207117Y-58984463D01*
X164337515Y-59071592D01*
X164448408Y-59182485D01*
X164535537Y-59312883D01*
X164595552Y-59457772D01*
X164626148Y-59611586D01*
X164626148Y-59768414D01*
X164595552Y-59922228D01*
X164535537Y-60067117D01*
X164448408Y-60197515D01*
X164337515Y-60308408D01*
X164207117Y-60395537D01*
X164062228Y-60455552D01*
X163908414Y-60486148D01*
X163751586Y-60486148D01*
X163597772Y-60455552D01*
X163452883Y-60395537D01*
X163322485Y-60308408D01*
X163211592Y-60197515D01*
X163124463Y-60067117D01*
X163064448Y-59922228D01*
X163033852Y-59768414D01*
X163033852Y-59611586D01*
X163064448Y-59457772D01*
X163124463Y-59312883D01*
X163211592Y-59182485D01*
X163322485Y-59071592D01*
X163452883Y-58984463D01*
X163597772Y-58924448D01*
X163751586Y-58893852D01*
X163908414Y-58893852D01*
X164062228Y-58924448D01*
G37*
G36*
X179302228Y-58924448D02*
G01*
X179447117Y-58984463D01*
X179577515Y-59071592D01*
X179688408Y-59182485D01*
X179775537Y-59312883D01*
X179835552Y-59457772D01*
X179866148Y-59611586D01*
X179866148Y-59768414D01*
X179835552Y-59922228D01*
X179775537Y-60067117D01*
X179688408Y-60197515D01*
X179577515Y-60308408D01*
X179447117Y-60395537D01*
X179302228Y-60455552D01*
X179148414Y-60486148D01*
X178991586Y-60486148D01*
X178837772Y-60455552D01*
X178692883Y-60395537D01*
X178562485Y-60308408D01*
X178451592Y-60197515D01*
X178364463Y-60067117D01*
X178304448Y-59922228D01*
X178273852Y-59768414D01*
X178273852Y-59611586D01*
X178304448Y-59457772D01*
X178364463Y-59312883D01*
X178451592Y-59182485D01*
X178562485Y-59071592D01*
X178692883Y-58984463D01*
X178837772Y-58924448D01*
X178991586Y-58893852D01*
X179148414Y-58893852D01*
X179302228Y-58924448D01*
G37*
G36*
X189462228Y-57654448D02*
G01*
X189607117Y-57714463D01*
X189737515Y-57801592D01*
X189848408Y-57912485D01*
X189935537Y-58042883D01*
X189995552Y-58187772D01*
X190026148Y-58341586D01*
X190026148Y-58498414D01*
X189995552Y-58652228D01*
X189935537Y-58797117D01*
X189848408Y-58927515D01*
X189737515Y-59038408D01*
X189607117Y-59125537D01*
X189462228Y-59185552D01*
X189308414Y-59216148D01*
X189151586Y-59216148D01*
X188997772Y-59185552D01*
X188852883Y-59125537D01*
X188722485Y-59038408D01*
X188611592Y-58927515D01*
X188524463Y-58797117D01*
X188464448Y-58652228D01*
X188433852Y-58498414D01*
X188433852Y-58341586D01*
X188464448Y-58187772D01*
X188524463Y-58042883D01*
X188611592Y-57912485D01*
X188722485Y-57801592D01*
X188852883Y-57714463D01*
X188997772Y-57654448D01*
X189151586Y-57623852D01*
X189308414Y-57623852D01*
X189462228Y-57654448D01*
G37*
G36*
X196160285Y-56903060D02*
G01*
X196341397Y-56978079D01*
X196504393Y-57086990D01*
X196643010Y-57225607D01*
X196751921Y-57388603D01*
X196826940Y-57569715D01*
X196865185Y-57761983D01*
X196865185Y-57958017D01*
X196826940Y-58150285D01*
X196751921Y-58331397D01*
X196643010Y-58494393D01*
X196504393Y-58633010D01*
X196341397Y-58741921D01*
X196160285Y-58816940D01*
X195968017Y-58855185D01*
X195771983Y-58855185D01*
X195579715Y-58816940D01*
X195398603Y-58741921D01*
X195235607Y-58633010D01*
X195096990Y-58494393D01*
X194988079Y-58331397D01*
X194913060Y-58150285D01*
X194874815Y-57958017D01*
X194874815Y-57761983D01*
X194913060Y-57569715D01*
X194988079Y-57388603D01*
X195096990Y-57225607D01*
X195235607Y-57086990D01*
X195398603Y-56978079D01*
X195579715Y-56903060D01*
X195771983Y-56864815D01*
X195968017Y-56864815D01*
X196160285Y-56903060D01*
G37*
G36*
X200660285Y-56903060D02*
G01*
X200841397Y-56978079D01*
X201004393Y-57086990D01*
X201143010Y-57225607D01*
X201251921Y-57388603D01*
X201326940Y-57569715D01*
X201365185Y-57761983D01*
X201365185Y-57958017D01*
X201326940Y-58150285D01*
X201251921Y-58331397D01*
X201143010Y-58494393D01*
X201004393Y-58633010D01*
X200841397Y-58741921D01*
X200660285Y-58816940D01*
X200468017Y-58855185D01*
X200271983Y-58855185D01*
X200079715Y-58816940D01*
X199898603Y-58741921D01*
X199735607Y-58633010D01*
X199596990Y-58494393D01*
X199488079Y-58331397D01*
X199413060Y-58150285D01*
X199374815Y-57958017D01*
X199374815Y-57761983D01*
X199413060Y-57569715D01*
X199488079Y-57388603D01*
X199596990Y-57225607D01*
X199735607Y-57086990D01*
X199898603Y-56978079D01*
X200079715Y-56903060D01*
X200271983Y-56864815D01*
X200468017Y-56864815D01*
X200660285Y-56903060D01*
G37*
G36*
X164062228Y-56384448D02*
G01*
X164207117Y-56444463D01*
X164337515Y-56531592D01*
X164448408Y-56642485D01*
X164535537Y-56772883D01*
X164595552Y-56917772D01*
X164626148Y-57071586D01*
X164626148Y-57228414D01*
X164595552Y-57382228D01*
X164535537Y-57527117D01*
X164448408Y-57657515D01*
X164337515Y-57768408D01*
X164207117Y-57855537D01*
X164062228Y-57915552D01*
X163908414Y-57946148D01*
X163751586Y-57946148D01*
X163597772Y-57915552D01*
X163452883Y-57855537D01*
X163322485Y-57768408D01*
X163211592Y-57657515D01*
X163124463Y-57527117D01*
X163064448Y-57382228D01*
X163033852Y-57228414D01*
X163033852Y-57071586D01*
X163064448Y-56917772D01*
X163124463Y-56772883D01*
X163211592Y-56642485D01*
X163322485Y-56531592D01*
X163452883Y-56444463D01*
X163597772Y-56384448D01*
X163751586Y-56353852D01*
X163908414Y-56353852D01*
X164062228Y-56384448D01*
G37*
G36*
X179302228Y-56384448D02*
G01*
X179447117Y-56444463D01*
X179577515Y-56531592D01*
X179688408Y-56642485D01*
X179775537Y-56772883D01*
X179835552Y-56917772D01*
X179866148Y-57071586D01*
X179866148Y-57228414D01*
X179835552Y-57382228D01*
X179775537Y-57527117D01*
X179688408Y-57657515D01*
X179577515Y-57768408D01*
X179447117Y-57855537D01*
X179302228Y-57915552D01*
X179148414Y-57946148D01*
X178991586Y-57946148D01*
X178837772Y-57915552D01*
X178692883Y-57855537D01*
X178562485Y-57768408D01*
X178451592Y-57657515D01*
X178364463Y-57527117D01*
X178304448Y-57382228D01*
X178273852Y-57228414D01*
X178273852Y-57071586D01*
X178304448Y-56917772D01*
X178364463Y-56772883D01*
X178451592Y-56642485D01*
X178562485Y-56531592D01*
X178692883Y-56444463D01*
X178837772Y-56384448D01*
X178991586Y-56353852D01*
X179148414Y-56353852D01*
X179302228Y-56384448D01*
G37*
G36*
X184382228Y-56344448D02*
G01*
X184527117Y-56404463D01*
X184657515Y-56491592D01*
X184768408Y-56602485D01*
X184855537Y-56732883D01*
X184915552Y-56877772D01*
X184946148Y-57031586D01*
X184946148Y-57188414D01*
X184915552Y-57342228D01*
X184855537Y-57487117D01*
X184768408Y-57617515D01*
X184657515Y-57728408D01*
X184527117Y-57815537D01*
X184382228Y-57875552D01*
X184228414Y-57906148D01*
X184071586Y-57906148D01*
X183917772Y-57875552D01*
X183772883Y-57815537D01*
X183642485Y-57728408D01*
X183531592Y-57617515D01*
X183444463Y-57487117D01*
X183384448Y-57342228D01*
X183353852Y-57188414D01*
X183353852Y-57031586D01*
X183384448Y-56877772D01*
X183444463Y-56732883D01*
X183531592Y-56602485D01*
X183642485Y-56491592D01*
X183772883Y-56404463D01*
X183917772Y-56344448D01*
X184071586Y-56313852D01*
X184228414Y-56313852D01*
X184382228Y-56344448D01*
G37*
G36*
X164062228Y-53844448D02*
G01*
X164207117Y-53904463D01*
X164337515Y-53991592D01*
X164448408Y-54102485D01*
X164535537Y-54232883D01*
X164595552Y-54377772D01*
X164626148Y-54531586D01*
X164626148Y-54688414D01*
X164595552Y-54842228D01*
X164535537Y-54987117D01*
X164448408Y-55117515D01*
X164337515Y-55228408D01*
X164207117Y-55315537D01*
X164062228Y-55375552D01*
X163908414Y-55406148D01*
X163751586Y-55406148D01*
X163597772Y-55375552D01*
X163452883Y-55315537D01*
X163322485Y-55228408D01*
X163211592Y-55117515D01*
X163124463Y-54987117D01*
X163064448Y-54842228D01*
X163033852Y-54688414D01*
X163033852Y-54531586D01*
X163064448Y-54377772D01*
X163124463Y-54232883D01*
X163211592Y-54102485D01*
X163322485Y-53991592D01*
X163452883Y-53904463D01*
X163597772Y-53844448D01*
X163751586Y-53813852D01*
X163908414Y-53813852D01*
X164062228Y-53844448D01*
G37*
G36*
X179302228Y-53844448D02*
G01*
X179447117Y-53904463D01*
X179577515Y-53991592D01*
X179688408Y-54102485D01*
X179775537Y-54232883D01*
X179835552Y-54377772D01*
X179866148Y-54531586D01*
X179866148Y-54688414D01*
X179835552Y-54842228D01*
X179775537Y-54987117D01*
X179688408Y-55117515D01*
X179577515Y-55228408D01*
X179447117Y-55315537D01*
X179302228Y-55375552D01*
X179148414Y-55406148D01*
X178991586Y-55406148D01*
X178837772Y-55375552D01*
X178692883Y-55315537D01*
X178562485Y-55228408D01*
X178451592Y-55117515D01*
X178364463Y-54987117D01*
X178304448Y-54842228D01*
X178273852Y-54688414D01*
X178273852Y-54531586D01*
X178304448Y-54377772D01*
X178364463Y-54232883D01*
X178451592Y-54102485D01*
X178562485Y-53991592D01*
X178692883Y-53904463D01*
X178837772Y-53844448D01*
X178991586Y-53813852D01*
X179148414Y-53813852D01*
X179302228Y-53844448D01*
G37*
G36*
X184382228Y-51344448D02*
G01*
X184527117Y-51404463D01*
X184657515Y-51491592D01*
X184768408Y-51602485D01*
X184855537Y-51732883D01*
X184915552Y-51877772D01*
X184946148Y-52031586D01*
X184946148Y-52188414D01*
X184915552Y-52342228D01*
X184855537Y-52487117D01*
X184768408Y-52617515D01*
X184657515Y-52728408D01*
X184527117Y-52815537D01*
X184382228Y-52875552D01*
X184228414Y-52906148D01*
X184071586Y-52906148D01*
X183917772Y-52875552D01*
X183772883Y-52815537D01*
X183642485Y-52728408D01*
X183531592Y-52617515D01*
X183444463Y-52487117D01*
X183384448Y-52342228D01*
X183353852Y-52188414D01*
X183353852Y-52031586D01*
X183384448Y-51877772D01*
X183444463Y-51732883D01*
X183531592Y-51602485D01*
X183642485Y-51491592D01*
X183772883Y-51404463D01*
X183917772Y-51344448D01*
X184071586Y-51313852D01*
X184228414Y-51313852D01*
X184382228Y-51344448D01*
G37*
G36*
X164062228Y-51304448D02*
G01*
X164207117Y-51364463D01*
X164337515Y-51451592D01*
X164448408Y-51562485D01*
X164535537Y-51692883D01*
X164595552Y-51837772D01*
X164626148Y-51991586D01*
X164626148Y-52148414D01*
X164595552Y-52302228D01*
X164535537Y-52447117D01*
X164448408Y-52577515D01*
X164337515Y-52688408D01*
X164207117Y-52775537D01*
X164062228Y-52835552D01*
X163908414Y-52866148D01*
X163751586Y-52866148D01*
X163597772Y-52835552D01*
X163452883Y-52775537D01*
X163322485Y-52688408D01*
X163211592Y-52577515D01*
X163124463Y-52447117D01*
X163064448Y-52302228D01*
X163033852Y-52148414D01*
X163033852Y-51991586D01*
X163064448Y-51837772D01*
X163124463Y-51692883D01*
X163211592Y-51562485D01*
X163322485Y-51451592D01*
X163452883Y-51364463D01*
X163597772Y-51304448D01*
X163751586Y-51273852D01*
X163908414Y-51273852D01*
X164062228Y-51304448D01*
G37*
G36*
X179302228Y-51304448D02*
G01*
X179447117Y-51364463D01*
X179577515Y-51451592D01*
X179688408Y-51562485D01*
X179775537Y-51692883D01*
X179835552Y-51837772D01*
X179866148Y-51991586D01*
X179866148Y-52148414D01*
X179835552Y-52302228D01*
X179775537Y-52447117D01*
X179688408Y-52577515D01*
X179577515Y-52688408D01*
X179447117Y-52775537D01*
X179302228Y-52835552D01*
X179148414Y-52866148D01*
X178991586Y-52866148D01*
X178837772Y-52835552D01*
X178692883Y-52775537D01*
X178562485Y-52688408D01*
X178451592Y-52577515D01*
X178364463Y-52447117D01*
X178304448Y-52302228D01*
X178273852Y-52148414D01*
X178273852Y-51991586D01*
X178304448Y-51837772D01*
X178364463Y-51692883D01*
X178451592Y-51562485D01*
X178562485Y-51451592D01*
X178692883Y-51364463D01*
X178837772Y-51304448D01*
X178991586Y-51273852D01*
X179148414Y-51273852D01*
X179302228Y-51304448D01*
G37*
G36*
X196160285Y-50403060D02*
G01*
X196341397Y-50478079D01*
X196504393Y-50586990D01*
X196643010Y-50725607D01*
X196751921Y-50888603D01*
X196826940Y-51069715D01*
X196865185Y-51261983D01*
X196865185Y-51458017D01*
X196826940Y-51650285D01*
X196751921Y-51831397D01*
X196643010Y-51994393D01*
X196504393Y-52133010D01*
X196341397Y-52241921D01*
X196160285Y-52316940D01*
X195968017Y-52355185D01*
X195771983Y-52355185D01*
X195579715Y-52316940D01*
X195398603Y-52241921D01*
X195235607Y-52133010D01*
X195096990Y-51994393D01*
X194988079Y-51831397D01*
X194913060Y-51650285D01*
X194874815Y-51458017D01*
X194874815Y-51261983D01*
X194913060Y-51069715D01*
X194988079Y-50888603D01*
X195096990Y-50725607D01*
X195235607Y-50586990D01*
X195398603Y-50478079D01*
X195579715Y-50403060D01*
X195771983Y-50364815D01*
X195968017Y-50364815D01*
X196160285Y-50403060D01*
G37*
G36*
X200660285Y-50403060D02*
G01*
X200841397Y-50478079D01*
X201004393Y-50586990D01*
X201143010Y-50725607D01*
X201251921Y-50888603D01*
X201326940Y-51069715D01*
X201365185Y-51261983D01*
X201365185Y-51458017D01*
X201326940Y-51650285D01*
X201251921Y-51831397D01*
X201143010Y-51994393D01*
X201004393Y-52133010D01*
X200841397Y-52241921D01*
X200660285Y-52316940D01*
X200468017Y-52355185D01*
X200271983Y-52355185D01*
X200079715Y-52316940D01*
X199898603Y-52241921D01*
X199735607Y-52133010D01*
X199596990Y-51994393D01*
X199488079Y-51831397D01*
X199413060Y-51650285D01*
X199374815Y-51458017D01*
X199374815Y-51261983D01*
X199413060Y-51069715D01*
X199488079Y-50888603D01*
X199596990Y-50725607D01*
X199735607Y-50586990D01*
X199898603Y-50478079D01*
X200079715Y-50403060D01*
X200271983Y-50364815D01*
X200468017Y-50364815D01*
X200660285Y-50403060D01*
G37*
G36*
X189462228Y-50034448D02*
G01*
X189607117Y-50094463D01*
X189737515Y-50181592D01*
X189848408Y-50292485D01*
X189935537Y-50422883D01*
X189995552Y-50567772D01*
X190026148Y-50721586D01*
X190026148Y-50878414D01*
X189995552Y-51032228D01*
X189935537Y-51177117D01*
X189848408Y-51307515D01*
X189737515Y-51418408D01*
X189607117Y-51505537D01*
X189462228Y-51565552D01*
X189308414Y-51596148D01*
X189151586Y-51596148D01*
X188997772Y-51565552D01*
X188852883Y-51505537D01*
X188722485Y-51418408D01*
X188611592Y-51307515D01*
X188524463Y-51177117D01*
X188464448Y-51032228D01*
X188433852Y-50878414D01*
X188433852Y-50721586D01*
X188464448Y-50567772D01*
X188524463Y-50422883D01*
X188611592Y-50292485D01*
X188722485Y-50181592D01*
X188852883Y-50094463D01*
X188997772Y-50034448D01*
X189151586Y-50003852D01*
X189308414Y-50003852D01*
X189462228Y-50034448D01*
G37*
G36*
X164062228Y-48764448D02*
G01*
X164207117Y-48824463D01*
X164337515Y-48911592D01*
X164448408Y-49022485D01*
X164535537Y-49152883D01*
X164595552Y-49297772D01*
X164626148Y-49451586D01*
X164626148Y-49608414D01*
X164595552Y-49762228D01*
X164535537Y-49907117D01*
X164448408Y-50037515D01*
X164337515Y-50148408D01*
X164207117Y-50235537D01*
X164062228Y-50295552D01*
X163908414Y-50326148D01*
X163751586Y-50326148D01*
X163597772Y-50295552D01*
X163452883Y-50235537D01*
X163322485Y-50148408D01*
X163211592Y-50037515D01*
X163124463Y-49907117D01*
X163064448Y-49762228D01*
X163033852Y-49608414D01*
X163033852Y-49451586D01*
X163064448Y-49297772D01*
X163124463Y-49152883D01*
X163211592Y-49022485D01*
X163322485Y-48911592D01*
X163452883Y-48824463D01*
X163597772Y-48764448D01*
X163751586Y-48733852D01*
X163908414Y-48733852D01*
X164062228Y-48764448D01*
G37*
G36*
X179302228Y-48764448D02*
G01*
X179447117Y-48824463D01*
X179577515Y-48911592D01*
X179688408Y-49022485D01*
X179775537Y-49152883D01*
X179835552Y-49297772D01*
X179866148Y-49451586D01*
X179866148Y-49608414D01*
X179835552Y-49762228D01*
X179775537Y-49907117D01*
X179688408Y-50037515D01*
X179577515Y-50148408D01*
X179447117Y-50235537D01*
X179302228Y-50295552D01*
X179148414Y-50326148D01*
X178991586Y-50326148D01*
X178837772Y-50295552D01*
X178692883Y-50235537D01*
X178562485Y-50148408D01*
X178451592Y-50037515D01*
X178364463Y-49907117D01*
X178304448Y-49762228D01*
X178273852Y-49608414D01*
X178273852Y-49451586D01*
X178304448Y-49297772D01*
X178364463Y-49152883D01*
X178451592Y-49022485D01*
X178562485Y-48911592D01*
X178692883Y-48824463D01*
X178837772Y-48764448D01*
X178991586Y-48733852D01*
X179148414Y-48733852D01*
X179302228Y-48764448D01*
G37*
G36*
X164062228Y-46224448D02*
G01*
X164207117Y-46284463D01*
X164337515Y-46371592D01*
X164448408Y-46482485D01*
X164535537Y-46612883D01*
X164595552Y-46757772D01*
X164626148Y-46911586D01*
X164626148Y-47068414D01*
X164595552Y-47222228D01*
X164535537Y-47367117D01*
X164448408Y-47497515D01*
X164337515Y-47608408D01*
X164207117Y-47695537D01*
X164062228Y-47755552D01*
X163908414Y-47786148D01*
X163751586Y-47786148D01*
X163597772Y-47755552D01*
X163452883Y-47695537D01*
X163322485Y-47608408D01*
X163211592Y-47497515D01*
X163124463Y-47367117D01*
X163064448Y-47222228D01*
X163033852Y-47068414D01*
X163033852Y-46911586D01*
X163064448Y-46757772D01*
X163124463Y-46612883D01*
X163211592Y-46482485D01*
X163322485Y-46371592D01*
X163452883Y-46284463D01*
X163597772Y-46224448D01*
X163751586Y-46193852D01*
X163908414Y-46193852D01*
X164062228Y-46224448D01*
G37*
G36*
X179302228Y-46224448D02*
G01*
X179447117Y-46284463D01*
X179577515Y-46371592D01*
X179688408Y-46482485D01*
X179775537Y-46612883D01*
X179835552Y-46757772D01*
X179866148Y-46911586D01*
X179866148Y-47068414D01*
X179835552Y-47222228D01*
X179775537Y-47367117D01*
X179688408Y-47497515D01*
X179577515Y-47608408D01*
X179447117Y-47695537D01*
X179302228Y-47755552D01*
X179148414Y-47786148D01*
X178991586Y-47786148D01*
X178837772Y-47755552D01*
X178692883Y-47695537D01*
X178562485Y-47608408D01*
X178451592Y-47497515D01*
X178364463Y-47367117D01*
X178304448Y-47222228D01*
X178273852Y-47068414D01*
X178273852Y-46911586D01*
X178304448Y-46757772D01*
X178364463Y-46612883D01*
X178451592Y-46482485D01*
X178562485Y-46371592D01*
X178692883Y-46284463D01*
X178837772Y-46224448D01*
X178991586Y-46193852D01*
X179148414Y-46193852D01*
X179302228Y-46224448D01*
G37*
G36*
X200290000Y-45350000D02*
G01*
X198490000Y-45350000D01*
X198490000Y-43550000D01*
X200290000Y-43550000D01*
X200290000Y-45350000D01*
G37*
G36*
X197111256Y-43588754D02*
G01*
X197274257Y-43656271D01*
X197420954Y-43754291D01*
X197545709Y-43879046D01*
X197643729Y-44025743D01*
X197711246Y-44188744D01*
X197745666Y-44361785D01*
X197745666Y-44538215D01*
X197711246Y-44711256D01*
X197643729Y-44874257D01*
X197545709Y-45020954D01*
X197420954Y-45145709D01*
X197274257Y-45243729D01*
X197111256Y-45311246D01*
X196938215Y-45345666D01*
X196761785Y-45345666D01*
X196588744Y-45311246D01*
X196425743Y-45243729D01*
X196279046Y-45145709D01*
X196154291Y-45020954D01*
X196056271Y-44874257D01*
X195988754Y-44711256D01*
X195954334Y-44538215D01*
X195954334Y-44361785D01*
X195988754Y-44188744D01*
X196056271Y-44025743D01*
X196154291Y-43879046D01*
X196279046Y-43754291D01*
X196425743Y-43656271D01*
X196588744Y-43588754D01*
X196761785Y-43554334D01*
X196938215Y-43554334D01*
X197111256Y-43588754D01*
G37*
G36*
X164062228Y-43684448D02*
G01*
X164207117Y-43744463D01*
X164337515Y-43831592D01*
X164448408Y-43942485D01*
X164535537Y-44072883D01*
X164595552Y-44217772D01*
X164626148Y-44371586D01*
X164626148Y-44528414D01*
X164595552Y-44682228D01*
X164535537Y-44827117D01*
X164448408Y-44957515D01*
X164337515Y-45068408D01*
X164207117Y-45155537D01*
X164062228Y-45215552D01*
X163908414Y-45246148D01*
X163751586Y-45246148D01*
X163597772Y-45215552D01*
X163452883Y-45155537D01*
X163322485Y-45068408D01*
X163211592Y-44957515D01*
X163124463Y-44827117D01*
X163064448Y-44682228D01*
X163033852Y-44528414D01*
X163033852Y-44371586D01*
X163064448Y-44217772D01*
X163124463Y-44072883D01*
X163211592Y-43942485D01*
X163322485Y-43831592D01*
X163452883Y-43744463D01*
X163597772Y-43684448D01*
X163751586Y-43653852D01*
X163908414Y-43653852D01*
X164062228Y-43684448D01*
G37*
G36*
X179302228Y-43684448D02*
G01*
X179447117Y-43744463D01*
X179577515Y-43831592D01*
X179688408Y-43942485D01*
X179775537Y-44072883D01*
X179835552Y-44217772D01*
X179866148Y-44371586D01*
X179866148Y-44528414D01*
X179835552Y-44682228D01*
X179775537Y-44827117D01*
X179688408Y-44957515D01*
X179577515Y-45068408D01*
X179447117Y-45155537D01*
X179302228Y-45215552D01*
X179148414Y-45246148D01*
X178991586Y-45246148D01*
X178837772Y-45215552D01*
X178692883Y-45155537D01*
X178562485Y-45068408D01*
X178451592Y-44957515D01*
X178364463Y-44827117D01*
X178304448Y-44682228D01*
X178273852Y-44528414D01*
X178273852Y-44371586D01*
X178304448Y-44217772D01*
X178364463Y-44072883D01*
X178451592Y-43942485D01*
X178562485Y-43831592D01*
X178692883Y-43744463D01*
X178837772Y-43684448D01*
X178991586Y-43653852D01*
X179148414Y-43653852D01*
X179302228Y-43684448D01*
G37*
G36*
X184152228Y-41974448D02*
G01*
X184297117Y-42034463D01*
X184427515Y-42121592D01*
X184538408Y-42232485D01*
X184625537Y-42362883D01*
X184685552Y-42507772D01*
X184716148Y-42661586D01*
X184716148Y-42818414D01*
X184685552Y-42972228D01*
X184625537Y-43117117D01*
X184538408Y-43247515D01*
X184427515Y-43358408D01*
X184297117Y-43445537D01*
X184152228Y-43505552D01*
X183998414Y-43536148D01*
X183841586Y-43536148D01*
X183687772Y-43505552D01*
X183542883Y-43445537D01*
X183412485Y-43358408D01*
X183301592Y-43247515D01*
X183214463Y-43117117D01*
X183154448Y-42972228D01*
X183123852Y-42818414D01*
X183123852Y-42661586D01*
X183154448Y-42507772D01*
X183214463Y-42362883D01*
X183301592Y-42232485D01*
X183412485Y-42121592D01*
X183542883Y-42034463D01*
X183687772Y-41974448D01*
X183841586Y-41943852D01*
X183998414Y-41943852D01*
X184152228Y-41974448D01*
G37*
G36*
X191772228Y-41974448D02*
G01*
X191917117Y-42034463D01*
X192047515Y-42121592D01*
X192158408Y-42232485D01*
X192245537Y-42362883D01*
X192305552Y-42507772D01*
X192336148Y-42661586D01*
X192336148Y-42818414D01*
X192305552Y-42972228D01*
X192245537Y-43117117D01*
X192158408Y-43247515D01*
X192047515Y-43358408D01*
X191917117Y-43445537D01*
X191772228Y-43505552D01*
X191618414Y-43536148D01*
X191461586Y-43536148D01*
X191307772Y-43505552D01*
X191162883Y-43445537D01*
X191032485Y-43358408D01*
X190921592Y-43247515D01*
X190834463Y-43117117D01*
X190774448Y-42972228D01*
X190743852Y-42818414D01*
X190743852Y-42661586D01*
X190774448Y-42507772D01*
X190834463Y-42362883D01*
X190921592Y-42232485D01*
X191032485Y-42121592D01*
X191162883Y-42034463D01*
X191307772Y-41974448D01*
X191461586Y-41943852D01*
X191618414Y-41943852D01*
X191772228Y-41974448D01*
G37*
G36*
X144272000Y-41402000D02*
G01*
X142748000Y-41402000D01*
X142748000Y-39878000D01*
X144272000Y-39878000D01*
X144272000Y-41402000D01*
G37*
G36*
X146271197Y-39910811D02*
G01*
X146409204Y-39967976D01*
X146533408Y-40050966D01*
X146639034Y-40156592D01*
X146722024Y-40280796D01*
X146779189Y-40418803D01*
X146808331Y-40565311D01*
X146808331Y-40714689D01*
X146779189Y-40861197D01*
X146722024Y-40999204D01*
X146639034Y-41123408D01*
X146533408Y-41229034D01*
X146409204Y-41312024D01*
X146271197Y-41369189D01*
X146124689Y-41398331D01*
X145975311Y-41398331D01*
X145828803Y-41369189D01*
X145690796Y-41312024D01*
X145566592Y-41229034D01*
X145460966Y-41123408D01*
X145377976Y-40999204D01*
X145320811Y-40861197D01*
X145291669Y-40714689D01*
X145291669Y-40565311D01*
X145320811Y-40418803D01*
X145377976Y-40280796D01*
X145460966Y-40156592D01*
X145566592Y-40050966D01*
X145690796Y-39967976D01*
X145828803Y-39910811D01*
X145975311Y-39881669D01*
X146124689Y-39881669D01*
X146271197Y-39910811D01*
G37*
G36*
X148811197Y-39910811D02*
G01*
X148949204Y-39967976D01*
X149073408Y-40050966D01*
X149179034Y-40156592D01*
X149262024Y-40280796D01*
X149319189Y-40418803D01*
X149348331Y-40565311D01*
X149348331Y-40714689D01*
X149319189Y-40861197D01*
X149262024Y-40999204D01*
X149179034Y-41123408D01*
X149073408Y-41229034D01*
X148949204Y-41312024D01*
X148811197Y-41369189D01*
X148664689Y-41398331D01*
X148515311Y-41398331D01*
X148368803Y-41369189D01*
X148230796Y-41312024D01*
X148106592Y-41229034D01*
X148000966Y-41123408D01*
X147917976Y-40999204D01*
X147860811Y-40861197D01*
X147831669Y-40714689D01*
X147831669Y-40565311D01*
X147860811Y-40418803D01*
X147917976Y-40280796D01*
X148000966Y-40156592D01*
X148106592Y-40050966D01*
X148230796Y-39967976D01*
X148368803Y-39910811D01*
X148515311Y-39881669D01*
X148664689Y-39881669D01*
X148811197Y-39910811D01*
G37*
G36*
X151351197Y-39910811D02*
G01*
X151489204Y-39967976D01*
X151613408Y-40050966D01*
X151719034Y-40156592D01*
X151802024Y-40280796D01*
X151859189Y-40418803D01*
X151888331Y-40565311D01*
X151888331Y-40714689D01*
X151859189Y-40861197D01*
X151802024Y-40999204D01*
X151719034Y-41123408D01*
X151613408Y-41229034D01*
X151489204Y-41312024D01*
X151351197Y-41369189D01*
X151204689Y-41398331D01*
X151055311Y-41398331D01*
X150908803Y-41369189D01*
X150770796Y-41312024D01*
X150646592Y-41229034D01*
X150540966Y-41123408D01*
X150457976Y-40999204D01*
X150400811Y-40861197D01*
X150371669Y-40714689D01*
X150371669Y-40565311D01*
X150400811Y-40418803D01*
X150457976Y-40280796D01*
X150540966Y-40156592D01*
X150646592Y-40050966D01*
X150770796Y-39967976D01*
X150908803Y-39910811D01*
X151055311Y-39881669D01*
X151204689Y-39881669D01*
X151351197Y-39910811D01*
G37*
M02*
